<?xml version="1.0" encoding="UTF-8"?>
<svg width="253px" height="99px" viewBox="0 0 253 99" version="1.1" xmlns="http://www.w3.org/2000/svg" xmlns:xlink="http://www.w3.org/1999/xlink">
    <!-- Generator: Sketch 60 (88103) - https://sketch.com -->
    <title>bzx</title>
    <desc>Created with Sketch.</desc>
    <defs>
        <linearGradient x1="-0.0492338844%" y1="50.0214286%" x2="99.9935795%" y2="50.0214286%" id="linearGradient-1">
            <stop stop-color="#00CC99" offset="0%"></stop>
            <stop stop-color="#0033CC" offset="100%"></stop>
        </linearGradient>
    </defs>
    <g id="Page-1" stroke="none" stroke-width="1" fill="none" fill-rule="evenodd">
        <g id="bzx" fill-rule="nonzero">
            <g id="Group">
                <path d="M93.3070866,5.11811024 C92.3622047,4.2519685 91.2598425,3.46456693 90.0787402,2.83464567 C88.5826772,2.04724409 87.007874,1.41732283 85.2755906,1.1023622 C84.2519685,0.866141732 83.1496063,0.787401575 82.0472441,0.787401575 L51.5748031,0.787401575 L49.8425197,0.787401575 L42.3622047,0.787401575 L42.1259843,0.787401575 L32.4409449,0.787401575 L24.7244094,0.787401575 L19.6850394,0.787401575 L17.6377953,0.787401575 C12.5984252,0.787401575 8.18897638,2.99212598 5.03937008,6.37795276 C3.07086614,8.66141732 1.57480315,11.4173228 1.02362205,14.488189 C0.866141732,15.4330709 0.787401575,16.4566929 0.787401575,17.4015748 L0.787401575,30.2362205 L0.787401575,33.5433071 L0.787401575,36.0629921 L0.787401575,43.1496063 L0.787401575,54.0944882 L0.787401575,55.3543307 L0.787401575,64.1732283 L0.787401575,76.9291339 L0.787401575,82.1259843 C0.787401575,84.7244094 1.33858268,87.3228346 2.51968504,89.6062992 C3.46456693,91.496063 4.80314961,93.2283465 6.37795276,94.6456693 C9.37007874,97.3228346 13.2283465,98.8976378 17.5590551,98.8976378 L21.5748031,98.8976378 L41.8110236,98.8976378 L46.4566929,98.8976378 L51.5748031,98.8976378 L59.1338583,98.8976378 L74.488189,98.8976378 L80.7086614,98.8976378 L80.7874016,98.8976378 L82.0472441,98.8976378 C87.2440945,98.8976378 91.9685039,96.5354331 95.0393701,92.7559055 C96.0629921,91.496063 96.9291339,90.1574803 97.5590551,88.6614173 C98.4251969,86.6141732 98.8976378,84.4094488 98.8976378,82.0472441 L98.8976378,73.3858268 L98.8976378,70.8661417 L98.8976378,64.4094488 L98.8976378,45.511811 L98.8976378,35.4330709 L98.8976378,34.5669291 L98.8976378,32.9133858 L98.8976378,19.3700787 L98.8976378,17.6377953 C98.8976378,12.6771654 96.6929134,8.26771654 93.3070866,5.11811024 Z" id="Path" fill="url(#linearGradient-1)"></path>
                <g id="Path">
                    <polygon fill="#0035DD" points="98.8976378 73.3858268 98.8976378 70.9448819 97.0866142 73.2283465"></polygon>
                    <polygon fill="#003ED9" points="97.0866142 73.2283465 98.8976378 70.9448819 98.8976378 64.488189 92.992126 69.7637795"></polygon>
                    <polygon fill="#003CDA" points="98.8976378 64.488189 98.8976378 45.5905512 92.992126 69.7637795"></polygon>
                    <polygon fill="#00B2AF" points="27.7165354 10 24.6456693 0.787401575 19.6850394 0.787401575 18.503937 16.2992126"></polygon>
                    <path d="M19.6850394,0.787401575 L17.6377953,0.787401575 C12.5984252,0.787401575 8.18897638,2.99212598 5.03937008,6.37795276 L18.503937,16.2992126 L19.6850394,0.787401575 Z" fill="#00C0AB"></path>
                    <polygon fill="#00E2A0" points="0.708661417 54.0944882 0.708661417 55.3543307 1.49606299 54.488189"></polygon>
                    <path d="M97.5590551,88.6614173 C98.4251969,86.6141732 98.8976378,84.4094488 98.8976378,82.0472441 L98.8976378,73.3858268 L97.0866142,73.1496063 L97.5590551,88.6614173 Z" fill="#003ED9"></path>
                    <path d="M5.03937008,6.37795276 C3.07086614,8.66141732 1.57480315,11.4173228 1.02362205,14.488189 C0.866141732,15.4330709 0.787401575,16.4566929 0.787401575,17.4015748 L0.787401575,30.2362205 L18.5826772,16.2992126 L5.03937008,6.37795276 Z" fill="#00D3A6"></path>
                    <polygon fill="#00D1A7" points="18.503937 16.2992126 0.787401575 30.2362205 0.708661417 33.6220472 10.7874016 33.6220472"></polygon>
                    <polygon fill="#00D1A7" points="6.53543307 43.1496063 0.708661417 43.1496063 0.708661417 54.0944882 1.49606299 54.488189"></polygon>
                    <polygon fill="#004CD3" points="86.4566929 28.5826772 98.8976378 34.5669291 98.8976378 32.9133858 89.7637795 22.2834646"></polygon>
                    <polygon fill="#00B5B0" points="32.4409449 68.0314961 33.8582677 68.5826772 33.7795276 68.0314961"></polygon>
                    <polygon fill="#00B5B0" points="23.1496063 33.6220472 28.7401575 33.6220472 28.0314961 28.8976378"></polygon>
                    <polygon fill="#00B5B0" points="32.4409449 58.8188976 30.1574803 43.1496063 13.2283465 43.1496063 1.49606299 54.488189 32.4409449 67.9527559"></polygon>
                    <polygon fill="#00A0B8" points="22.7559055 81.8897638 41.8110236 98.976378 46.4566929 98.976378 33.8582677 68.5826772"></polygon>
                    <path d="M0.787401575,76.9291339 L0.787401575,82.1259843 C0.787401575,84.7244094 1.33858268,87.3228346 2.51968504,89.6062992 C3.46456693,91.496063 4.80314961,93.2283465 6.37795276,94.6456693 L22.7559055,81.8897638 L0.787401575,76.9291339 Z" fill="#00CEA7"></path>
                    <polygon fill="#00CEA7" points="1.49606299 54.488189 0.708661417 55.3543307 0.708661417 64.1732283 0.787401575 76.9291339 22.7559055 81.8897638"></polygon>
                    <path d="M6.37795276,94.6456693 C9.37007874,97.3228346 13.2283465,98.8976378 17.5590551,98.8976378 L21.5748031,98.8976378 L22.7559055,81.8897638 L6.37795276,94.6456693 Z" fill="#00BEAE"></path>
                    <polygon fill="#00AFB2" points="27.7165354 10 18.503937 16.2992126 28.0314961 28.8976378"></polygon>
                    <polygon fill="#00B7AF" points="32.4409449 68.0314961 32.4409449 67.9527559 1.49606299 54.488189 22.7559055 81.8897638 33.8582677 68.5826772"></polygon>
                    <polygon fill="#00BCAD" points="6.53543307 43.1496063 1.49606299 54.488189 13.2283465 43.1496063"></polygon>
                    <polygon fill="#00BCAD" points="18.503937 16.2992126 10.7874016 33.6220472 23.1496063 33.6220472 28.0314961 28.8976378"></polygon>
                    <polygon fill="#007BC3" points="61.6535433 70.7874016 51.5748031 98.976378 59.1338583 98.976378 70.6299213 91.2598425"></polygon>
                    <polygon fill="#00A6B6" points="21.5748031 98.976378 41.8110236 98.976378 22.7559055 81.8897638"></polygon>
                    <polygon fill="#0051D1" points="92.992126 69.7637795 98.8976378 45.5905512 98.8976378 35.4330709 73.8582677 32.1259843"></polygon>
                    <polygon fill="#0054D1" points="73.8582677 32.1259843 98.8976378 35.4330709 98.8976378 34.5669291 86.4566929 28.5826772"></polygon>
                    <polygon fill="#0063CB" points="70.6299213 91.2598425 74.488189 98.976378 80.7086614 98.976378 80.7086614 98.8976378"></polygon>
                    <polygon fill="#0089C0" points="49.6850394 12.2047244 49.9212598 33.6220472 51.8897638 33.6220472 55.2755906 11.1811024"></polygon>
                    <polygon fill="#0089C0" points="50.3937008 43.1496063 50 43.1496063 50 45.7480315"></polygon>
                    <polygon fill="#00A0B6" points="42.0472441 11.4173228 42.0472441 18.1102362 49.6850394 12.2047244"></polygon>
                    <polygon fill="#00A0B6" points="32.4409449 25.511811 32.4409449 10.4724409 27.7165354 10 28.0314961 28.8976378"></polygon>
                    <polygon fill="#0195BB" points="42.0472441 11.4173228 49.6850394 12.2047244 49.8425197 0.787401575 42.2834646 0.787401575 42.0472441 0.94488189"></polygon>
                    <polygon fill="#0195BB" points="32.4409449 7.00787402 27.7165354 10 32.4409449 10.4724409"></polygon>
                    <polygon fill="#01A4B7" points="32.4409449 7.00787402 32.4409449 0.787401575 24.6456693 0.787401575 27.7165354 10"></polygon>
                    <polygon fill="#01A4B7" points="42.2834646 0.787401575 42.0472441 0.787401575 42.0472441 0.94488189"></polygon>
                    <polygon fill="#009DB8" points="33.7795276 68.0314961 33.8582677 68.5826772 34.2519685 68.0314961"></polygon>
                    <polygon fill="#009DB8" points="28.7401575 33.6220472 34.1732283 33.6220472 28.0314961 28.8976378"></polygon>
                    <polygon fill="#009DB8" points="32.4409449 48.8188976 42.0472441 48.8188976 42.0472441 57.007874 50 45.7480315 46.6141732 43.1496063 30.1574803 43.1496063 32.4409449 58.8188976"></polygon>
                    <polygon fill="#0096BB" points="50 43.1496063 46.6141732 43.1496063 50 45.7480315"></polygon>
                    <polygon fill="#0096BB" points="42.0472441 18.1102362 42.0472441 27.9527559 42.0472441 27.9527559 32.4409449 27.9527559 32.4409449 25.511811 28.0314961 28.8976378 34.1732283 33.6220472 49.9212598 33.6220472 49.6850394 12.2047244"></polygon>
                    <polygon fill="#0071C7" points="72.8346457 20.7086614 55.2755906 11.1811024 73.8582677 32.1259843"></polygon>
                    <path d="M98.8976378,19.3700787 L98.8976378,17.6377953 C98.8976378,12.6771654 96.7716535,8.26771654 93.3070866,5.19685039 L89.7637795,22.2834646 L98.8976378,19.3700787 Z" fill="#0145D6"></path>
                    <polygon fill="#0089C0" points="55.2755906 11.1811024 51.5748031 0.787401575 49.8425197 0.787401575 49.6850394 12.2047244"></polygon>
                    <polygon fill="#008CBD" points="42.0472441 57.007874 42.0472441 58.2677165 55.8267717 58.2677165 50 45.7480315"></polygon>
                    <polygon fill="#008CBD" points="34.2519685 68.0314961 33.8582677 68.5826772 61.6535433 70.7874016 60.3149606 68.0314961"></polygon>
                    <polygon fill="#008DBD" points="33.8582677 68.5826772 46.4566929 98.976378 51.5748031 98.976378 61.6535433 70.7874016"></polygon>
                    <polygon fill="#007CC2" points="54.6456693 43.1496063 50.3937008 43.1496063 50 45.7480315"></polygon>
                    <polygon fill="#007CC2" points="55.2755906 11.1811024 51.8897638 33.6220472 67.0866142 33.6220472 67.0866142 36.0629921 73.8582677 32.1259843"></polygon>
                    <polygon fill="#005FCD" points="80.7086614 98.8976378 88.3464567 74.8818898 70.6299213 91.2598425"></polygon>
                    <polygon fill="#005ECF" points="61.6535433 70.7874016 88.3464567 74.8818898 92.992126 69.7637795"></polygon>
                    <polygon fill="#0068CB" points="70.6299213 91.2598425 88.3464567 74.8818898 61.6535433 70.7874016"></polygon>
                    <polygon fill="#0042D7" points="98.8976378 32.9133858 98.8976378 19.3700787 89.7637795 22.2834646"></polygon>
                    <polygon fill="#0079C4" points="60.3149606 68.0314961 61.6535433 70.7874016 62.519685 68.0314961"></polygon>
                    <polygon fill="#0079C4" points="55.8267717 58.2677165 57.3228346 58.2677165 57.3228346 43.1496063 54.6456693 43.1496063 50 45.7480315"></polygon>
                    <polygon fill="#0079C4" points="67.0866142 36.0629921 67.0866142 53.6220472 73.8582677 32.1259843"></polygon>
                    <polygon fill="#0072C8" points="59.1338583 98.976378 74.488189 98.976378 70.6299213 91.2598425"></polygon>
                    <path d="M88.3464567,74.8818898 L80.7086614,98.8976378 L80.7874016,98.8976378 L82.0472441,98.8976378 C87.2440945,98.8976378 91.9685039,96.5354331 95.0393701,92.7559055 L88.3464567,74.8818898 Z" fill="#0052D2"></path>
                    <polygon fill="#0064CC" points="73.8582677 32.1259843 67.0866142 53.6220472 67.0866142 68.0314961 62.519685 68.0314961 61.6535433 70.7874016 92.992126 69.7637795"></polygon>
                    <polygon fill="#0062CD" points="86.4566929 28.5826772 72.8346457 20.7086614 73.8582677 32.1259843"></polygon>
                    <polygon fill="#005BCE" points="89.7637795 22.2834646 72.8346457 20.7086614 86.4566929 28.5826772"></polygon>
                    <path d="M89.7637795,22.2834646 L93.3858268,5.19685039 C92.4409449,4.33070866 91.3385827,3.54330709 90.1574803,2.91338583 L72.8346457,20.7086614 L89.7637795,22.2834646 Z" fill="#0157D0"></path>
                    <polygon fill="#0056D1" points="80.7086614 98.976378 80.7874016 98.976378 80.7086614 98.8976378"></polygon>
                    <polygon fill="#004CD5" points="92.992126 69.7637795 88.3464567 74.8818898 97.0866142 73.2283465"></polygon>
                    <path d="M72.8346457,20.7086614 L90.0787402,2.83464567 C88.5826772,2.04724409 87.007874,1.41732283 85.2755906,1.1023622 L55.2755906,11.1811024 L72.8346457,20.7086614 Z" fill="#0068CB"></path>
                    <path d="M85.2755906,1.1023622 C84.2519685,0.866141732 83.1496063,0.787401575 82.0472441,0.787401575 L51.5748031,0.787401575 L55.2755906,11.1811024 L85.2755906,1.1023622 Z" fill="#0071C7"></path>
                    <path d="M88.3464567,74.8818898 L95.0393701,92.7559055 C96.0629921,91.496063 96.9291339,90.1574803 97.5590551,88.6614173 L97.0866142,73.2283465 L88.3464567,74.8818898 Z" fill="#014AD5"></path>
                    <polygon fill="#FFFFFF" points="32.4409449 10.4724409 32.4409449 25.511811 32.4409449 27.9527559 42.0472441 27.9527559 42.0472441 27.9527559 42.0472441 18.1102362 42.0472441 11.4173228 42.0472441 0.94488189 42.0472441 0.787401575 32.4409449 0.787401575 32.4409449 7.00787402"></polygon>
                    <polygon fill="#FFFFFF" points="13.2283465 43.1496063 30.1574803 43.1496063 46.6141732 43.1496063 50 43.1496063 50.3937008 43.1496063 54.6456693 43.1496063 57.3228346 43.1496063 57.3228346 58.2677165 55.8267717 58.2677165 42.0472441 58.2677165 42.0472441 57.007874 42.0472441 48.8188976 32.4409449 48.8188976 32.4409449 58.8188976 32.4409449 67.9527559 32.4409449 68.0314961 32.4409449 68.0314961 33.7795276 68.0314961 34.2519685 68.0314961 60.3149606 68.0314961 62.519685 68.0314961 67.0866142 68.0314961 67.0866142 53.6220472 67.0866142 36.0629921 67.0866142 33.6220472 51.8897638 33.6220472 49.9212598 33.6220472 34.1732283 33.6220472 28.7401575 33.6220472 23.1496063 33.6220472 10.7874016 33.6220472 0.708661417 33.6220472 0.708661417 36.1417323 0.708661417 43.1496063 6.53543307 43.1496063"></polygon>
                </g>
            </g>
            <g id="Group" transform="translate(122.047244, 21.259843)" fill="#0053D2">
                <path d="M21.1023622,19.2913386 C16.6141732,19.2913386 12.3622047,21.023622 10.6299213,24.3307087 L10.6299213,0.708661417 L0.0787401575,0.708661417 L0.0787401575,55.7480315 L10.6299213,55.7480315 L10.6299213,51.4173228 C12.3622047,54.6456693 16.6929134,56.6141732 21.1023622,56.6141732 C30.3149606,56.6141732 38.3464567,49.3700787 38.3464567,38.1102362 C38.3464567,26.5354331 30.2362205,19.2913386 21.1023622,19.2913386 Z M18.976378,46.4566929 C14.6456693,46.4566929 10.7086614,42.9133858 10.7086614,37.8740157 C10.7086614,32.4409449 14.6456693,29.3700787 18.976378,29.3700787 C23.5433071,29.3700787 27.2440945,32.8346457 27.2440945,37.8740157 C27.2440945,43.0708661 23.4645669,46.4566929 18.976378,46.4566929 Z" id="Shape"></path>
                <polygon id="Path" points="118.897638 55.6692913 131.023622 55.6692913 117.165354 36.3779528 128.897638 20.0787402 116.614173 20.0787402 111.259843 27.8740157 105.984252 20.0787402 93.7007874 20.0787402 105.433071 36.3779528 91.4173228 55.6692913 103.700787 55.6692913 111.259843 44.8031496"></polygon>
                <path d="M53.8582677,17.007874 C53.8582677,14.2519685 56.1417323,11.9685039 58.8976378,11.9685039 L75.0393701,11.9685039 C75.0393701,11.9685039 75.0393701,11.9685039 75.0393701,11.9685039 L48.5826772,46.5354331 L47.3228346,48.1889764 C48.7401575,52.519685 52.8346457,55.6692913 57.7165354,55.6692913 L73.8582677,55.6692913 C79.9212598,55.6692913 84.8031496,50.7874016 84.8031496,44.7244094 L84.8031496,22.1259843 L77.9527559,30.7874016 L77.9527559,43.8582677 C77.9527559,46.6141732 75.6692913,48.8976378 72.9133858,48.8976378 L56.6929134,48.8976378 C55.8267717,48.8976378 55.0393701,48.7401575 54.488189,48.4251969 L78.8188976,16.8503937 L78.8188976,16.8503937 L83.4645669,10.7874016 C81.6535433,7.32283465 77.9527559,4.88188976 73.7795276,4.88188976 L57.6377953,4.88188976 C51.5748031,4.88188976 46.6929134,9.76377953 46.6929134,15.8267717 L46.6929134,36.2204724 L53.7795276,27.0866142 L53.7795276,17.007874 L53.8582677,17.007874 Z" id="Path"></path>
            </g>
        </g>
    </g>
</svg>