<?xml version="1.0" encoding="UTF-8"?>
<svg width="294px" height="210px" viewBox="0 0 294 210" version="1.1" xmlns="http://www.w3.org/2000/svg" xmlns:xlink="http://www.w3.org/1999/xlink">
    <!-- Generator: Sketch 60 (88103) - https://sketch.com -->
    <title>Group 2</title>
    <desc>Created with Sketch.</desc>
    <g id="Teaser" stroke="none" stroke-width="1" fill="none" fill-rule="evenodd">
        <g id="Desktop-HD-Copy" transform="translate(-361.000000, -323.000000)" fill-rule="nonzero">
            <g id="Group-2" transform="translate(361.000000, 323.000000)">
                <path d="M74.84,197.28 C76.36,197.96 77.85,198.23 79.31,198.09 C80.77,197.95 82.16,197.54 83.48,196.86 C84.8,196.18 86.05,195.27 87.23,194.13 C88.41,192.99 89.49,191.77 90.47,190.47 C91.45,189.17 92.34,187.84 93.14,186.48 C93.94,185.12 94.62,183.86 95.18,182.7 C95.38,182.26 95.59,181.8 95.81,181.32 C96.03,180.84 96,180.38 95.72,179.94 C95.48,179.5 95.16,179.29 94.76,179.31 C94.36,179.33 94,179.44 93.68,179.64 C92.76,180.24 91.91,181 91.13,181.92 C90.35,182.84 89.56,183.66 88.76,184.38 C88.4,184.74 87.96,185.17 87.44,185.67 C86.92,186.17 86.37,186.68 85.79,187.2 C85.21,187.72 84.61,188.23 83.99,188.73 C83.37,189.23 82.76,189.64 82.16,189.96 C80.84,190.68 79.99,190.87 79.61,190.53 C79.23,190.19 79.1,189.38 79.22,188.1 C79.3,187.06 79.33,186.07 79.31,185.13 C79.29,184.19 79.06,183.28 78.62,182.4 C79.58,181.96 80.51,181.48 81.41,180.96 C82.31,180.44 83.2,179.88 84.08,179.28 C85.36,178.4 86.57,177.36 87.71,176.16 C88.85,174.96 89.8,173.66 90.56,172.26 C91.32,170.86 91.8,169.38 92,167.82 C92.2,166.26 91.98,164.66 91.34,163.02 C90.54,160.98 89.24,159.34 87.44,158.1 C85.64,156.86 83.68,156.08 81.56,155.76 C79.76,155.52 77.79,155.52 75.65,155.76 C73.51,156 71.35,156.47 69.17,157.17 C66.99,157.87 64.86,158.77 62.78,159.87 C60.7,160.97 58.8,162.24 57.08,163.68 C55.36,165.12 53.89,166.71 52.67,168.45 C51.45,170.19 50.64,172.04 50.24,174 C50.04,174.8 50.06,175.51 50.3,176.13 C50.54,176.75 50.88,177.21 51.32,177.51 C51.76,177.81 52.27,177.9 52.85,177.78 C53.43,177.66 54,177.24 54.56,176.52 C55.72,175 57.08,173.58 58.64,172.26 C60.2,170.94 61.86,169.76 63.62,168.72 C65.38,167.68 67.19,166.79 69.05,166.05 C70.91,165.31 72.74,164.76 74.54,164.4 C75.3,164.24 76.1,164.1 76.94,163.98 C77.78,163.86 78.59,163.81 79.37,163.83 C80.15,163.85 80.86,163.99 81.5,164.25 C82.14,164.51 82.62,164.94 82.94,165.54 C83.26,166.18 83.32,166.87 83.12,167.61 C82.92,168.35 82.54,169.09 81.98,169.83 C81.42,170.57 80.75,171.3 79.97,172.02 C79.19,172.74 78.39,173.41 77.57,174.03 C76.75,174.65 75.95,175.18 75.17,175.62 C74.39,176.06 73.76,176.36 73.28,176.52 C72.84,176.4 72.38,176.31 71.9,176.25 C71.42,176.19 70.9,176.2 70.34,176.28 C71.62,174.48 72.8,172.56 73.88,170.52 C74.28,169.8 74.46,169.16 74.42,168.6 C74.38,168.04 74.19,167.6 73.85,167.28 C73.51,166.96 73.05,166.77 72.47,166.71 C71.89,166.65 71.28,166.74 70.64,166.98 C69.36,167.42 68.15,168.06 67.01,168.9 C65.87,169.74 64.79,170.69 63.77,171.75 C62.75,172.81 61.8,173.92 60.92,175.08 C60.04,176.24 59.24,177.36 58.52,178.44 C57.84,179.48 57.19,180.58 56.57,181.74 C55.95,182.9 55.4,184.09 54.92,185.31 C54.44,186.53 54.08,187.78 53.84,189.06 C53.6,190.34 53.56,191.6 53.72,192.84 C53.76,193.24 53.84,193.68 53.96,194.16 C54.08,194.64 54.24,195.11 54.44,195.57 C54.64,196.03 54.89,196.45 55.19,196.83 C55.49,197.21 55.86,197.48 56.3,197.64 C56.78,197.84 57.22,197.9 57.62,197.82 C58.02,197.74 58.37,197.57 58.67,197.31 C58.97,197.05 59.23,196.72 59.45,196.32 C59.67,195.92 59.86,195.52 60.02,195.12 C60.82,193.12 61.62,191.17 62.42,189.27 C63.22,187.37 64.2,185.48 65.36,183.6 C66.12,183.96 67.05,184.18 68.15,184.26 C69.25,184.34 70.26,184.34 71.18,184.26 C71.3,184.66 71.34,185.1 71.3,185.58 C71.26,186.06 71.19,186.57 71.09,187.11 C70.99,187.65 70.88,188.22 70.76,188.82 C70.64,189.42 70.58,190.04 70.58,190.68 C70.58,192.2 70.96,193.54 71.72,194.7 C72.48,195.86 73.52,196.72 74.84,197.28 Z M101.727273,198.21931 L102.12,198.21 C103.56,198.15 104.98,197.9 106.38,197.46 C107.78,197.02 109.13,196.43 110.43,195.69 C111.73,194.95 112.94,194.14 114.06,193.26 C117.58,190.38 120.44,186.72 122.64,182.28 C122.88,181.76 122.97,181.27 122.91,180.81 C122.85,180.35 122.69,180.01 122.43,179.79 C122.17,179.57 121.84,179.49 121.44,179.55 C121.04,179.61 120.64,179.88 120.24,180.36 C119.68,181 118.92,181.77 117.96,182.67 C117,183.57 115.92,184.48 114.72,185.4 C113.52,186.32 112.25,187.19 110.91,188.01 C109.57,188.83 108.24,189.48 106.92,189.96 C105.6,190.44 104.33,190.69 103.11,190.71 C101.89,190.73 100.8,190.38 99.84,189.66 C99.28,189.22 99.01,188.6 99.03,187.8 C99.05,187 99.22,186.14 99.54,185.22 C101.58,185.82 103.61,186.05 105.63,185.91 C107.65,185.77 109.68,185.1 111.72,183.9 C112.96,183.18 114.14,182.23 115.26,181.05 C116.38,179.87 117.27,178.58 117.93,177.18 C118.59,175.78 118.95,174.32 119.01,172.8 C119.07,171.28 118.68,169.8 117.84,168.36 C116.96,166.84 115.73,165.73 114.15,165.03 C112.57,164.33 110.94,164.08 109.26,164.28 C107.82,164.44 106.45,164.83 105.15,165.45 C103.85,166.07 102.62,166.83 101.46,167.73 C100.3,168.63 99.23,169.63 98.25,170.73 C97.27,171.83 96.38,172.94 95.58,174.06 C94.78,175.22 94.03,176.52 93.33,177.96 C92.63,179.4 92.07,180.89 91.65,182.43 C91.23,183.97 90.99,185.51 90.93,187.05 C90.87,188.59 91.06,190.03 91.5,191.37 C91.94,192.71 92.67,193.92 93.69,195 C94.71,196.08 96.08,196.92 97.8,197.52 C99.24,198.04 100.68,198.27 102.12,198.21 L101.727273,198.21931 Z M105.42,179.94 C104.3,180.34 103.1,180.48 101.82,180.36 C102.42,179.4 103.08,178.46 103.8,177.54 C104.52,176.62 105.3,175.76 106.14,174.96 C106.62,174.52 107.17,174.05 107.79,173.55 C108.41,173.05 109.06,172.7 109.74,172.5 C110.22,172.34 110.64,172.33 111,172.47 C111.36,172.61 111.44,173.02 111.24,173.7 C111.12,174.3 110.86,174.92 110.46,175.56 C110.06,176.2 109.72,176.68 109.44,177 C108.32,178.36 106.98,179.34 105.42,179.94 Z M124.12,196.86 C125.96,197.78 127.87,198.14 129.85,197.94 C131.83,197.74 133.72,197.22 135.52,196.38 C137.68,195.38 139.67,194.07 141.49,192.45 C143.31,190.83 144.92,189.04 146.32,187.08 C146.88,186.28 147.42,185.46 147.94,184.62 C148.46,183.78 148.88,182.88 149.2,181.92 C149.4,181.32 149.47,180.78 149.41,180.3 C149.35,179.82 149.22,179.46 149.02,179.22 C148.82,178.98 148.55,178.88 148.21,178.92 C147.87,178.96 147.54,179.2 147.22,179.64 C146.66,180.36 145.9,181.21 144.94,182.19 C143.98,183.17 142.91,184.14 141.73,185.1 C140.55,186.06 139.3,186.96 137.98,187.8 C136.66,188.64 135.38,189.32 134.14,189.84 C132.9,190.36 131.74,190.65 130.66,190.71 C129.58,190.77 128.68,190.48 127.96,189.84 C127.36,189.32 127.07,188.6 127.09,187.68 C127.11,186.76 127.28,185.81 127.6,184.83 C127.92,183.85 128.32,182.92 128.8,182.04 C129.28,181.16 129.66,180.48 129.94,180 C130.54,179.04 131.2,178.12 131.92,177.24 C132.64,176.36 133.4,175.52 134.2,174.72 C134.84,174.08 135.47,173.56 136.09,173.16 C136.71,172.76 137.24,172.5 137.68,172.38 C138.12,172.26 138.46,172.31 138.7,172.53 C138.94,172.75 139,173.12 138.88,173.64 C138.72,174.32 138.45,174.99 138.07,175.65 C137.69,176.31 137.36,176.8 137.08,177.12 C136.64,177.68 136.45,178.28 136.51,178.92 C136.57,179.56 136.79,180.1 137.17,180.54 C137.55,180.98 138.03,181.29 138.61,181.47 C139.19,181.65 139.8,181.58 140.44,181.26 C141.4,180.78 142.27,180.11 143.05,179.25 C143.83,178.39 144.47,177.45 144.97,176.43 C145.47,175.41 145.81,174.34 145.99,173.22 C146.17,172.1 146.14,171 145.9,169.92 C145.58,168.52 144.98,167.4 144.1,166.56 C143.22,165.72 142.21,165.12 141.07,164.76 C139.93,164.4 138.71,164.26 137.41,164.34 C136.11,164.42 134.9,164.7 133.78,165.18 C131.74,166.02 129.8,167.24 127.96,168.84 C126.12,170.44 124.5,172.26 123.1,174.3 C121.7,176.34 120.6,178.51 119.8,180.81 C119,183.11 118.62,185.36 118.66,187.56 C118.7,189.52 119.18,191.33 120.1,192.99 C121.02,194.65 122.36,195.94 124.12,196.86 Z M160.91,164.4 C161.73,164.56 162.52,164.52 163.28,164.28 C164.04,164.04 164.72,163.6 165.32,162.96 C165.92,162.32 166.3,161.44 166.46,160.32 C166.7,158.92 166.46,157.82 165.74,157.02 C165.02,156.22 164.15,155.73 163.13,155.55 C162.11,155.37 161.08,155.51 160.04,155.97 C159,156.43 158.28,157.22 157.88,158.34 C157.48,159.5 157.39,160.5 157.61,161.34 C157.83,162.18 158.23,162.86 158.81,163.38 C159.39,163.9 160.09,164.24 160.91,164.4 Z M146.48,197.46 C147.8,197.98 149.03,198.14 150.17,197.94 C151.31,197.74 152.39,197.32 153.41,196.68 C154.43,196.04 155.37,195.25 156.23,194.31 C157.09,193.37 157.9,192.42 158.66,191.46 C159.14,190.86 159.75,190.09 160.49,189.15 C161.23,188.21 161.97,187.24 162.71,186.24 C163.45,185.24 164.14,184.26 164.78,183.3 C165.42,182.34 165.92,181.54 166.28,180.9 C166.52,180.5 166.58,180.14 166.46,179.82 C166.34,179.5 166.14,179.27 165.86,179.13 C165.58,178.99 165.26,178.96 164.9,179.04 C164.54,179.12 164.24,179.32 164,179.64 C163.76,179.96 163.2,180.59 162.32,181.53 C161.44,182.47 160.43,183.52 159.29,184.68 C158.15,185.84 156.98,186.99 155.78,188.13 C154.58,189.27 153.5,190.16 152.54,190.8 C151.5,191.52 150.8,191.67 150.44,191.25 C150.08,190.83 150.12,190.04 150.56,188.88 C151.2,187.2 152.05,185.6 153.11,184.08 C154.17,182.56 155.26,180.96 156.38,179.28 C157.3,178 158.23,176.67 159.17,175.29 C160.11,173.91 160.78,172.46 161.18,170.94 C161.5,169.66 161.35,168.62 160.73,167.82 C160.11,167.02 159.33,166.51 158.39,166.29 C157.45,166.07 156.49,166.18 155.51,166.62 C154.53,167.06 153.84,167.9 153.44,169.14 C153.28,169.62 153.04,170.13 152.72,170.67 C152.4,171.21 152.04,171.76 151.64,172.32 C151.24,172.88 150.84,173.43 150.44,173.97 C150.04,174.51 149.68,175.02 149.36,175.5 C148.4,176.9 147.46,178.3 146.54,179.7 C145.62,181.1 144.8,182.56 144.08,184.08 C143.56,185.2 143.12,186.42 142.76,187.74 C142.4,189.06 142.25,190.35 142.31,191.61 C142.37,192.87 142.71,194.03 143.33,195.09 C143.95,196.15 145,196.94 146.48,197.46 Z M155.61,209.79 C156.23,209.81 156.84,209.66 157.44,209.34 C157.96,209.1 158.36,208.78 158.64,208.38 C158.92,207.98 159.15,207.54 159.33,207.06 C159.51,206.58 159.66,206.09 159.78,205.59 C159.9,205.09 160.06,204.6 160.26,204.12 C160.86,202.44 161.52,200.81 162.24,199.23 C162.96,197.65 163.72,196.1 164.52,194.58 C165.44,195.82 166.7,196.71 168.3,197.25 C169.9,197.79 171.48,197.96 173.04,197.76 C175.8,198.36 178.43,198.32 180.93,197.64 C183.43,196.96 185.75,195.84 187.89,194.28 C190.03,192.72 191.97,190.84 193.71,188.64 C195.45,186.44 196.94,184.16 198.18,181.8 C198.46,181.24 198.6,180.73 198.6,180.27 C198.6,179.81 198.49,179.48 198.27,179.28 C198.05,179.08 197.73,179.04 197.31,179.16 C196.89,179.28 196.44,179.62 195.96,180.18 C194.52,181.82 193.06,183.47 191.58,185.13 C190.1,186.79 188.26,188.26 186.06,189.54 C185.74,189.74 185.41,189.93 185.07,190.11 C184.73,190.29 184.4,190.46 184.08,190.62 C184.76,189.82 185.37,188.98 185.91,188.1 C186.45,187.22 186.96,186.36 187.44,185.52 C188.08,184.36 188.69,183.09 189.27,181.71 C189.85,180.33 190.31,178.91 190.65,177.45 C190.99,175.99 191.18,174.53 191.22,173.07 C191.26,171.61 191.04,170.22 190.56,168.9 C190.2,167.9 189.67,167.04 188.97,166.32 C188.27,165.6 187.47,165.08 186.57,164.76 C185.67,164.44 184.72,164.32 183.72,164.4 C182.72,164.48 181.74,164.82 180.78,165.42 C179.7,166.1 178.79,166.95 178.05,167.97 C177.31,168.99 176.6,170.04 175.92,171.12 C175.96,170.92 175.99,170.72 176.01,170.52 C176.03,170.32 176.04,170.12 176.04,169.92 C176.04,169.08 175.85,168.38 175.47,167.82 C175.09,167.26 174.61,166.84 174.03,166.56 C173.45,166.28 172.82,166.14 172.14,166.14 C171.46,166.14 170.82,166.28 170.22,166.56 C169.62,166.84 169.12,167.27 168.72,167.85 C168.32,168.43 168.1,169.14 168.06,169.98 C167.62,171.02 167.05,172.26 166.35,173.7 C165.65,175.14 164.89,176.67 164.07,178.29 C163.25,179.91 162.4,181.58 161.52,183.3 C160.64,185.02 159.78,186.68 158.94,188.28 C158.1,189.88 157.33,191.36 156.63,192.72 C155.93,194.08 155.34,195.24 154.86,196.2 C154.54,196.84 154.18,197.59 153.78,198.45 C153.38,199.31 153.01,200.21 152.67,201.15 C152.33,202.09 152.07,203.02 151.89,203.94 C151.71,204.86 151.68,205.72 151.8,206.52 C151.92,207.16 152.17,207.72 152.55,208.2 C152.93,208.68 153.38,209.06 153.9,209.34 C154.42,209.62 154.99,209.77 155.61,209.79 Z M172.86,189.6 C172.5,189.32 172.15,189.03 171.81,188.73 C171.47,188.43 171.13,188.17 170.79,187.95 C170.45,187.73 170.07,187.56 169.65,187.44 C169.23,187.32 168.76,187.3 168.24,187.38 C168.76,186.38 169.21,185.57 169.59,184.95 C169.97,184.33 170.28,183.81 170.52,183.39 C170.76,182.97 170.96,182.64 171.12,182.4 L171.12,182.4 L171.6,181.68 C172.44,180.44 173.33,179.23 174.27,178.05 C175.21,176.87 176.2,175.76 177.24,174.72 C178.84,173.16 180.08,172.13 180.96,171.63 C181.84,171.13 182.45,170.99 182.79,171.21 C183.13,171.43 183.26,171.91 183.18,172.65 C183.1,173.39 182.91,174.22 182.61,175.14 C182.31,176.06 181.94,176.98 181.5,177.9 C181.06,178.82 180.66,179.56 180.3,180.12 C179.38,181.92 178.33,183.66 177.15,185.34 C175.97,187.02 174.54,188.44 172.86,189.6 Z M204.667273,198.21931 L205.06,198.21 C206.5,198.15 207.92,197.9 209.32,197.46 C210.72,197.02 212.07,196.43 213.37,195.69 C214.67,194.95 215.88,194.14 217,193.26 C220.52,190.38 223.38,186.72 225.58,182.28 C225.82,181.76 225.91,181.27 225.85,180.81 C225.79,180.35 225.63,180.01 225.37,179.79 C225.11,179.57 224.78,179.49 224.38,179.55 C223.98,179.61 223.58,179.88 223.18,180.36 C222.62,181 221.86,181.77 220.9,182.67 C219.94,183.57 218.86,184.48 217.66,185.4 C216.46,186.32 215.19,187.19 213.85,188.01 C212.51,188.83 211.18,189.48 209.86,189.96 C208.54,190.44 207.27,190.69 206.05,190.71 C204.83,190.73 203.74,190.38 202.78,189.66 C202.22,189.22 201.95,188.6 201.97,187.8 C201.99,187 202.16,186.14 202.48,185.22 C204.52,185.82 206.55,186.05 208.57,185.91 C210.59,185.77 212.62,185.1 214.66,183.9 C215.9,183.18 217.08,182.23 218.2,181.05 C219.32,179.87 220.21,178.58 220.87,177.18 C221.53,175.78 221.89,174.32 221.95,172.8 C222.01,171.28 221.62,169.8 220.78,168.36 C219.9,166.84 218.67,165.73 217.09,165.03 C215.51,164.33 213.88,164.08 212.2,164.28 C210.76,164.44 209.39,164.83 208.09,165.45 C206.79,166.07 205.56,166.83 204.4,167.73 C203.24,168.63 202.17,169.63 201.19,170.73 C200.21,171.83 199.32,172.94 198.52,174.06 C197.72,175.22 196.97,176.52 196.27,177.96 C195.57,179.4 195.01,180.89 194.59,182.43 C194.17,183.97 193.93,185.51 193.87,187.05 C193.81,188.59 194,190.03 194.44,191.37 C194.88,192.71 195.61,193.92 196.63,195 C197.65,196.08 199.02,196.92 200.74,197.52 C202.18,198.04 203.62,198.27 205.06,198.21 L204.667273,198.21931 Z M208.36,179.94 C207.24,180.34 206.04,180.48 204.76,180.36 C205.36,179.4 206.02,178.46 206.74,177.54 C207.46,176.62 208.24,175.76 209.08,174.96 C209.56,174.52 210.11,174.05 210.73,173.55 C211.35,173.05 212,172.7 212.68,172.5 C213.16,172.34 213.58,172.33 213.94,172.47 C214.3,172.61 214.38,173.02 214.18,173.7 C214.06,174.3 213.8,174.92 213.4,175.56 C213,176.2 212.66,176.68 212.38,177 C211.26,178.36 209.92,179.34 208.36,179.94 Z M227.42,198.21 C228.82,198.23 230.25,198.11 231.71,197.85 C233.17,197.59 234.57,197.21 235.91,196.71 C237.25,196.21 238.4,195.62 239.36,194.94 C241.68,193.26 243.72,191.27 245.48,188.97 C247.24,186.67 248.86,184.14 250.34,181.38 C250.7,180.78 250.86,180.26 250.82,179.82 C250.78,179.38 250.64,179.06 250.4,178.86 C250.16,178.66 249.83,178.62 249.41,178.74 C248.99,178.86 248.56,179.2 248.12,179.76 C247.76,180.2 247.34,180.77 246.86,181.47 C246.38,182.17 245.84,182.88 245.24,183.6 C244.64,184.32 243.99,185.02 243.29,185.7 C242.59,186.38 241.86,186.94 241.1,187.38 C241.34,186.14 241.35,184.97 241.13,183.87 C240.91,182.77 240.48,181.82 239.84,181.02 C239.2,180.22 238.35,179.6 237.29,179.16 C236.23,178.72 235.02,178.56 233.66,178.68 C233.38,178.68 233.01,178.72 232.55,178.8 C232.09,178.88 231.62,178.93 231.14,178.95 C230.66,178.97 230.24,178.97 229.88,178.95 C229.52,178.93 229.28,178.82 229.16,178.62 C228.96,178.3 229.08,177.77 229.52,177.03 C229.96,176.29 230.9,175.4 232.34,174.36 C232.74,174.04 233.25,173.7 233.87,173.34 C234.49,172.98 235.11,172.65 235.73,172.35 C236.35,172.05 236.92,171.84 237.44,171.72 C237.96,171.6 238.35,171.63 238.61,171.81 C238.87,171.99 238.94,172.35 238.82,172.89 C238.7,173.43 238.32,174.24 237.68,175.32 C237.28,176.04 237.26,176.62 237.62,177.06 C237.98,177.5 238.56,177.6 239.36,177.36 C240.4,176.96 241.33,176.36 242.15,175.56 C242.97,174.76 243.59,173.86 244.01,172.86 C244.43,171.86 244.61,170.81 244.55,169.71 C244.49,168.61 244.08,167.58 243.32,166.62 C242.44,165.54 241.39,164.82 240.17,164.46 C238.95,164.1 237.69,164 236.39,164.16 C235.09,164.32 233.81,164.66 232.55,165.18 C231.29,165.7 230.18,166.28 229.22,166.92 C228.26,167.6 227.33,168.4 226.43,169.32 C225.53,170.24 224.76,171.26 224.12,172.38 C223.48,173.5 223.04,174.67 222.8,175.89 C222.56,177.11 222.62,178.34 222.98,179.58 C223.26,180.7 223.75,181.59 224.45,182.25 C225.15,182.91 225.96,183.4 226.88,183.72 C227.8,184.04 228.78,184.22 229.82,184.26 C230.86,184.3 231.86,184.22 232.82,184.02 C233.06,183.94 233.38,183.89 233.78,183.87 C234.18,183.85 234.46,183.96 234.62,184.2 C234.82,184.56 234.66,185.08 234.14,185.76 C233.62,186.44 232.99,187.14 232.25,187.86 C231.51,188.58 230.77,189.21 230.03,189.75 C229.29,190.29 228.8,190.58 228.56,190.62 C227.52,190.18 226.54,189.56 225.62,188.76 C224.98,188.24 224.27,187.96 223.49,187.92 C222.71,187.88 221.97,188.03 221.27,188.37 C220.57,188.71 219.98,189.22 219.5,189.9 C219.02,190.58 218.78,191.34 218.78,192.18 C218.78,192.86 218.93,193.49 219.23,194.07 C219.53,194.65 219.92,195.17 220.4,195.63 C220.88,196.09 221.41,196.49 221.99,196.83 C222.57,197.17 223.14,197.44 223.7,197.64 C224.78,198 226.02,198.19 227.42,198.21 Z" id="Recipes" fill="#FFFFFF" transform="translate(150.464818, 182.632914) rotate(-4.000000) translate(-150.464818, -182.632914) "></path>
                <path d="M71.84,194.28 C73.36,194.96 74.85,195.23 76.31,195.09 C77.77,194.95 79.16,194.54 80.48,193.86 C81.8,193.18 83.05,192.27 84.23,191.13 C85.41,189.99 86.49,188.77 87.47,187.47 C88.45,186.17 89.34,184.84 90.14,183.48 C90.94,182.12 91.62,180.86 92.18,179.7 C92.38,179.26 92.59,178.8 92.81,178.32 C93.03,177.84 93,177.38 92.72,176.94 C92.48,176.5 92.16,176.29 91.76,176.31 C91.36,176.33 91,176.44 90.68,176.64 C89.76,177.24 88.91,178 88.13,178.92 C87.35,179.84 86.56,180.66 85.76,181.38 C85.4,181.74 84.96,182.17 84.44,182.67 C83.92,183.17 83.37,183.68 82.79,184.2 C82.21,184.72 81.61,185.23 80.99,185.73 C80.37,186.23 79.76,186.64 79.16,186.96 C77.84,187.68 76.99,187.87 76.61,187.53 C76.23,187.19 76.1,186.38 76.22,185.1 C76.3,184.06 76.33,183.07 76.31,182.13 C76.29,181.19 76.06,180.28 75.62,179.4 C76.58,178.96 77.51,178.48 78.41,177.96 C79.31,177.44 80.2,176.88 81.08,176.28 C82.36,175.4 83.57,174.36 84.71,173.16 C85.85,171.96 86.8,170.66 87.56,169.26 C88.32,167.86 88.8,166.38 89,164.82 C89.2,163.26 88.98,161.66 88.34,160.02 C87.54,157.98 86.24,156.34 84.44,155.1 C82.64,153.86 80.68,153.08 78.56,152.76 C76.76,152.52 74.79,152.52 72.65,152.76 C70.51,153 68.35,153.47 66.17,154.17 C63.99,154.87 61.86,155.77 59.78,156.87 C57.7,157.97 55.8,159.24 54.08,160.68 C52.36,162.12 50.89,163.71 49.67,165.45 C48.45,167.19 47.64,169.04 47.24,171 C47.04,171.8 47.06,172.51 47.3,173.13 C47.54,173.75 47.88,174.21 48.32,174.51 C48.76,174.81 49.27,174.9 49.85,174.78 C50.43,174.66 51,174.24 51.56,173.52 C52.72,172 54.08,170.58 55.64,169.26 C57.2,167.94 58.86,166.76 60.62,165.72 C62.38,164.68 64.19,163.79 66.05,163.05 C67.91,162.31 69.74,161.76 71.54,161.4 C72.3,161.24 73.1,161.1 73.94,160.98 C74.78,160.86 75.59,160.81 76.37,160.83 C77.15,160.85 77.86,160.99 78.5,161.25 C79.14,161.51 79.62,161.94 79.94,162.54 C80.26,163.18 80.32,163.87 80.12,164.61 C79.92,165.35 79.54,166.09 78.98,166.83 C78.42,167.57 77.75,168.3 76.97,169.02 C76.19,169.74 75.39,170.41 74.57,171.03 C73.75,171.65 72.95,172.18 72.17,172.62 C71.39,173.06 70.76,173.36 70.28,173.52 C69.84,173.4 69.38,173.31 68.9,173.25 C68.42,173.19 67.9,173.2 67.34,173.28 C68.62,171.48 69.8,169.56 70.88,167.52 C71.28,166.8 71.46,166.16 71.42,165.6 C71.38,165.04 71.19,164.6 70.85,164.28 C70.51,163.96 70.05,163.77 69.47,163.71 C68.89,163.65 68.28,163.74 67.64,163.98 C66.36,164.42 65.15,165.06 64.01,165.9 C62.87,166.74 61.79,167.69 60.77,168.75 C59.75,169.81 58.8,170.92 57.92,172.08 C57.04,173.24 56.24,174.36 55.52,175.44 C54.84,176.48 54.19,177.58 53.57,178.74 C52.95,179.9 52.4,181.09 51.92,182.31 C51.44,183.53 51.08,184.78 50.84,186.06 C50.6,187.34 50.56,188.6 50.72,189.84 C50.76,190.24 50.84,190.68 50.96,191.16 C51.08,191.64 51.24,192.11 51.44,192.57 C51.64,193.03 51.89,193.45 52.19,193.83 C52.49,194.21 52.86,194.48 53.3,194.64 C53.78,194.84 54.22,194.9 54.62,194.82 C55.02,194.74 55.37,194.57 55.67,194.31 C55.97,194.05 56.23,193.72 56.45,193.32 C56.67,192.92 56.86,192.52 57.02,192.12 C57.82,190.12 58.62,188.17 59.42,186.27 C60.22,184.37 61.2,182.48 62.36,180.6 C63.12,180.96 64.05,181.18 65.15,181.26 C66.25,181.34 67.26,181.34 68.18,181.26 C68.3,181.66 68.34,182.1 68.3,182.58 C68.26,183.06 68.19,183.57 68.09,184.11 C67.99,184.65 67.88,185.22 67.76,185.82 C67.64,186.42 67.58,187.04 67.58,187.68 C67.58,189.2 67.96,190.54 68.72,191.7 C69.48,192.86 70.52,193.72 71.84,194.28 Z M98.7272727,195.21931 L99.12,195.21 C100.56,195.15 101.98,194.9 103.38,194.46 C104.78,194.02 106.13,193.43 107.43,192.69 C108.73,191.95 109.94,191.14 111.06,190.26 C114.58,187.38 117.44,183.72 119.64,179.28 C119.88,178.76 119.97,178.27 119.91,177.81 C119.85,177.35 119.69,177.01 119.43,176.79 C119.17,176.57 118.84,176.49 118.44,176.55 C118.04,176.61 117.64,176.88 117.24,177.36 C116.68,178 115.92,178.77 114.96,179.67 C114,180.57 112.92,181.48 111.72,182.4 C110.52,183.32 109.25,184.19 107.91,185.01 C106.57,185.83 105.24,186.48 103.92,186.96 C102.6,187.44 101.33,187.69 100.11,187.71 C98.89,187.73 97.8,187.38 96.84,186.66 C96.28,186.22 96.01,185.6 96.03,184.8 C96.05,184 96.22,183.14 96.54,182.22 C98.58,182.82 100.61,183.05 102.63,182.91 C104.65,182.77 106.68,182.1 108.72,180.9 C109.96,180.18 111.14,179.23 112.26,178.05 C113.38,176.87 114.27,175.58 114.93,174.18 C115.59,172.78 115.95,171.32 116.01,169.8 C116.07,168.28 115.68,166.8 114.84,165.36 C113.96,163.84 112.73,162.73 111.15,162.03 C109.57,161.33 107.94,161.08 106.26,161.28 C104.82,161.44 103.45,161.83 102.15,162.45 C100.85,163.07 99.62,163.83 98.46,164.73 C97.3,165.63 96.23,166.63 95.25,167.73 C94.27,168.83 93.38,169.94 92.58,171.06 C91.78,172.22 91.03,173.52 90.33,174.96 C89.63,176.4 89.07,177.89 88.65,179.43 C88.23,180.97 87.99,182.51 87.93,184.05 C87.87,185.59 88.06,187.03 88.5,188.37 C88.94,189.71 89.67,190.92 90.69,192 C91.71,193.08 93.08,193.92 94.8,194.52 C96.24,195.04 97.68,195.27 99.12,195.21 L98.7272727,195.21931 Z M102.42,176.94 C101.3,177.34 100.1,177.48 98.82,177.36 C99.42,176.4 100.08,175.46 100.8,174.54 C101.52,173.62 102.3,172.76 103.14,171.96 C103.62,171.52 104.17,171.05 104.79,170.55 C105.41,170.05 106.06,169.7 106.74,169.5 C107.22,169.34 107.64,169.33 108,169.47 C108.36,169.61 108.44,170.02 108.24,170.7 C108.12,171.3 107.86,171.92 107.46,172.56 C107.06,173.2 106.72,173.68 106.44,174 C105.32,175.36 103.98,176.34 102.42,176.94 Z M121.12,193.86 C122.96,194.78 124.87,195.14 126.85,194.94 C128.83,194.74 130.72,194.22 132.52,193.38 C134.68,192.38 136.67,191.07 138.49,189.45 C140.31,187.83 141.92,186.04 143.32,184.08 C143.88,183.28 144.42,182.46 144.94,181.62 C145.46,180.78 145.88,179.88 146.2,178.92 C146.4,178.32 146.47,177.78 146.41,177.3 C146.35,176.82 146.22,176.46 146.02,176.22 C145.82,175.98 145.55,175.88 145.21,175.92 C144.87,175.96 144.54,176.2 144.22,176.64 C143.66,177.36 142.9,178.21 141.94,179.19 C140.98,180.17 139.91,181.14 138.73,182.1 C137.55,183.06 136.3,183.96 134.98,184.8 C133.66,185.64 132.38,186.32 131.14,186.84 C129.9,187.36 128.74,187.65 127.66,187.71 C126.58,187.77 125.68,187.48 124.96,186.84 C124.36,186.32 124.07,185.6 124.09,184.68 C124.11,183.76 124.28,182.81 124.6,181.83 C124.92,180.85 125.32,179.92 125.8,179.04 C126.28,178.16 126.66,177.48 126.94,177 C127.54,176.04 128.2,175.12 128.92,174.24 C129.64,173.36 130.4,172.52 131.2,171.72 C131.84,171.08 132.47,170.56 133.09,170.16 C133.71,169.76 134.24,169.5 134.68,169.38 C135.12,169.26 135.46,169.31 135.7,169.53 C135.94,169.75 136,170.12 135.88,170.64 C135.72,171.32 135.45,171.99 135.07,172.65 C134.69,173.31 134.36,173.8 134.08,174.12 C133.64,174.68 133.45,175.28 133.51,175.92 C133.57,176.56 133.79,177.1 134.17,177.54 C134.55,177.98 135.03,178.29 135.61,178.47 C136.19,178.65 136.8,178.58 137.44,178.26 C138.4,177.78 139.27,177.11 140.05,176.25 C140.83,175.39 141.47,174.45 141.97,173.43 C142.47,172.41 142.81,171.34 142.99,170.22 C143.17,169.1 143.14,168 142.9,166.92 C142.58,165.52 141.98,164.4 141.1,163.56 C140.22,162.72 139.21,162.12 138.07,161.76 C136.93,161.4 135.71,161.26 134.41,161.34 C133.11,161.42 131.9,161.7 130.78,162.18 C128.74,163.02 126.8,164.24 124.96,165.84 C123.12,167.44 121.5,169.26 120.1,171.3 C118.7,173.34 117.6,175.51 116.8,177.81 C116,180.11 115.62,182.36 115.66,184.56 C115.7,186.52 116.18,188.33 117.1,189.99 C118.02,191.65 119.36,192.94 121.12,193.86 Z M157.91,161.4 C158.73,161.56 159.52,161.52 160.28,161.28 C161.04,161.04 161.72,160.6 162.32,159.96 C162.92,159.32 163.3,158.44 163.46,157.32 C163.7,155.92 163.46,154.82 162.74,154.02 C162.02,153.22 161.15,152.73 160.13,152.55 C159.11,152.37 158.08,152.51 157.04,152.97 C156,153.43 155.28,154.22 154.88,155.34 C154.48,156.5 154.39,157.5 154.61,158.34 C154.83,159.18 155.23,159.86 155.81,160.38 C156.39,160.9 157.09,161.24 157.91,161.4 Z M143.48,194.46 C144.8,194.98 146.03,195.14 147.17,194.94 C148.31,194.74 149.39,194.32 150.41,193.68 C151.43,193.04 152.37,192.25 153.23,191.31 C154.09,190.37 154.9,189.42 155.66,188.46 C156.14,187.86 156.75,187.09 157.49,186.15 C158.23,185.21 158.97,184.24 159.71,183.24 C160.45,182.24 161.14,181.26 161.78,180.3 C162.42,179.34 162.92,178.54 163.28,177.9 C163.52,177.5 163.58,177.14 163.46,176.82 C163.34,176.5 163.14,176.27 162.86,176.13 C162.58,175.99 162.26,175.96 161.9,176.04 C161.54,176.12 161.24,176.32 161,176.64 C160.76,176.96 160.2,177.59 159.32,178.53 C158.44,179.47 157.43,180.52 156.29,181.68 C155.15,182.84 153.98,183.99 152.78,185.13 C151.58,186.27 150.5,187.16 149.54,187.8 C148.5,188.52 147.8,188.67 147.44,188.25 C147.08,187.83 147.12,187.04 147.56,185.88 C148.2,184.2 149.05,182.6 150.11,181.08 C151.17,179.56 152.26,177.96 153.38,176.28 C154.3,175 155.23,173.67 156.17,172.29 C157.11,170.91 157.78,169.46 158.18,167.94 C158.5,166.66 158.35,165.62 157.73,164.82 C157.11,164.02 156.33,163.51 155.39,163.29 C154.45,163.07 153.49,163.18 152.51,163.62 C151.53,164.06 150.84,164.9 150.44,166.14 C150.28,166.62 150.04,167.13 149.72,167.67 C149.4,168.21 149.04,168.76 148.64,169.32 C148.24,169.88 147.84,170.43 147.44,170.97 C147.04,171.51 146.68,172.02 146.36,172.5 C145.4,173.9 144.46,175.3 143.54,176.7 C142.62,178.1 141.8,179.56 141.08,181.08 C140.56,182.2 140.12,183.42 139.76,184.74 C139.4,186.06 139.25,187.35 139.31,188.61 C139.37,189.87 139.71,191.03 140.33,192.09 C140.95,193.15 142,193.94 143.48,194.46 Z M152.61,206.79 C153.23,206.81 153.84,206.66 154.44,206.34 C154.96,206.1 155.36,205.78 155.64,205.38 C155.92,204.98 156.15,204.54 156.33,204.06 C156.51,203.58 156.66,203.09 156.78,202.59 C156.9,202.09 157.06,201.6 157.26,201.12 C157.86,199.44 158.52,197.81 159.24,196.23 C159.96,194.65 160.72,193.1 161.52,191.58 C162.44,192.82 163.7,193.71 165.3,194.25 C166.9,194.79 168.48,194.96 170.04,194.76 C172.8,195.36 175.43,195.32 177.93,194.64 C180.43,193.96 182.75,192.84 184.89,191.28 C187.03,189.72 188.97,187.84 190.71,185.64 C192.45,183.44 193.94,181.16 195.18,178.8 C195.46,178.24 195.6,177.73 195.6,177.27 C195.6,176.81 195.49,176.48 195.27,176.28 C195.05,176.08 194.73,176.04 194.31,176.16 C193.89,176.28 193.44,176.62 192.96,177.18 C191.52,178.82 190.06,180.47 188.58,182.13 C187.1,183.79 185.26,185.26 183.06,186.54 C182.74,186.74 182.41,186.93 182.07,187.11 C181.73,187.29 181.4,187.46 181.08,187.62 C181.76,186.82 182.37,185.98 182.91,185.1 C183.45,184.22 183.96,183.36 184.44,182.52 C185.08,181.36 185.69,180.09 186.27,178.71 C186.85,177.33 187.31,175.91 187.65,174.45 C187.99,172.99 188.18,171.53 188.22,170.07 C188.26,168.61 188.04,167.22 187.56,165.9 C187.2,164.9 186.67,164.04 185.97,163.32 C185.27,162.6 184.47,162.08 183.57,161.76 C182.67,161.44 181.72,161.32 180.72,161.4 C179.72,161.48 178.74,161.82 177.78,162.42 C176.7,163.1 175.79,163.95 175.05,164.97 C174.31,165.99 173.6,167.04 172.92,168.12 C172.96,167.92 172.99,167.72 173.01,167.52 C173.03,167.32 173.04,167.12 173.04,166.92 C173.04,166.08 172.85,165.38 172.47,164.82 C172.09,164.26 171.61,163.84 171.03,163.56 C170.45,163.28 169.82,163.14 169.14,163.14 C168.46,163.14 167.82,163.28 167.22,163.56 C166.62,163.84 166.12,164.27 165.72,164.85 C165.32,165.43 165.1,166.14 165.06,166.98 C164.62,168.02 164.05,169.26 163.35,170.7 C162.65,172.14 161.89,173.67 161.07,175.29 C160.25,176.91 159.4,178.58 158.52,180.3 C157.64,182.02 156.78,183.68 155.94,185.28 C155.1,186.88 154.33,188.36 153.63,189.72 C152.93,191.08 152.34,192.24 151.86,193.2 C151.54,193.84 151.18,194.59 150.78,195.45 C150.38,196.31 150.01,197.21 149.67,198.15 C149.33,199.09 149.07,200.02 148.89,200.94 C148.71,201.86 148.68,202.72 148.8,203.52 C148.92,204.16 149.17,204.72 149.55,205.2 C149.93,205.68 150.38,206.06 150.9,206.34 C151.42,206.62 151.99,206.77 152.61,206.79 Z M169.86,186.6 C169.5,186.32 169.15,186.03 168.81,185.73 C168.47,185.43 168.13,185.17 167.79,184.95 C167.45,184.73 167.07,184.56 166.65,184.44 C166.23,184.32 165.76,184.3 165.24,184.38 C165.76,183.38 166.21,182.57 166.59,181.95 C166.97,181.33 167.28,180.81 167.52,180.39 C167.76,179.97 167.96,179.64 168.12,179.4 L168.12,179.4 L168.6,178.68 C169.44,177.44 170.33,176.23 171.27,175.05 C172.21,173.87 173.2,172.76 174.24,171.72 C175.84,170.16 177.08,169.13 177.96,168.63 C178.84,168.13 179.45,167.99 179.79,168.21 C180.13,168.43 180.26,168.91 180.18,169.65 C180.1,170.39 179.91,171.22 179.61,172.14 C179.31,173.06 178.94,173.98 178.5,174.9 C178.06,175.82 177.66,176.56 177.3,177.12 C176.38,178.92 175.33,180.66 174.15,182.34 C172.97,184.02 171.54,185.44 169.86,186.6 Z M201.667273,195.21931 L202.06,195.21 C203.5,195.15 204.92,194.9 206.32,194.46 C207.72,194.02 209.07,193.43 210.37,192.69 C211.67,191.95 212.88,191.14 214,190.26 C217.52,187.38 220.38,183.72 222.58,179.28 C222.82,178.76 222.91,178.27 222.85,177.81 C222.79,177.35 222.63,177.01 222.37,176.79 C222.11,176.57 221.78,176.49 221.38,176.55 C220.98,176.61 220.58,176.88 220.18,177.36 C219.62,178 218.86,178.77 217.9,179.67 C216.94,180.57 215.86,181.48 214.66,182.4 C213.46,183.32 212.19,184.19 210.85,185.01 C209.51,185.83 208.18,186.48 206.86,186.96 C205.54,187.44 204.27,187.69 203.05,187.71 C201.83,187.73 200.74,187.38 199.78,186.66 C199.22,186.22 198.95,185.6 198.97,184.8 C198.99,184 199.16,183.14 199.48,182.22 C201.52,182.82 203.55,183.05 205.57,182.91 C207.59,182.77 209.62,182.1 211.66,180.9 C212.9,180.18 214.08,179.23 215.2,178.05 C216.32,176.87 217.21,175.58 217.87,174.18 C218.53,172.78 218.89,171.32 218.95,169.8 C219.01,168.28 218.62,166.8 217.78,165.36 C216.9,163.84 215.67,162.73 214.09,162.03 C212.51,161.33 210.88,161.08 209.2,161.28 C207.76,161.44 206.39,161.83 205.09,162.45 C203.79,163.07 202.56,163.83 201.4,164.73 C200.24,165.63 199.17,166.63 198.19,167.73 C197.21,168.83 196.32,169.94 195.52,171.06 C194.72,172.22 193.97,173.52 193.27,174.96 C192.57,176.4 192.01,177.89 191.59,179.43 C191.17,180.97 190.93,182.51 190.87,184.05 C190.81,185.59 191,187.03 191.44,188.37 C191.88,189.71 192.61,190.92 193.63,192 C194.65,193.08 196.02,193.92 197.74,194.52 C199.18,195.04 200.62,195.27 202.06,195.21 L201.667273,195.21931 Z M205.36,176.94 C204.24,177.34 203.04,177.48 201.76,177.36 C202.36,176.4 203.02,175.46 203.74,174.54 C204.46,173.62 205.24,172.76 206.08,171.96 C206.56,171.52 207.11,171.05 207.73,170.55 C208.35,170.05 209,169.7 209.68,169.5 C210.16,169.34 210.58,169.33 210.94,169.47 C211.3,169.61 211.38,170.02 211.18,170.7 C211.06,171.3 210.8,171.92 210.4,172.56 C210,173.2 209.66,173.68 209.38,174 C208.26,175.36 206.92,176.34 205.36,176.94 Z M224.42,195.21 C225.82,195.23 227.25,195.11 228.71,194.85 C230.17,194.59 231.57,194.21 232.91,193.71 C234.25,193.21 235.4,192.62 236.36,191.94 C238.68,190.26 240.72,188.27 242.48,185.97 C244.24,183.67 245.86,181.14 247.34,178.38 C247.7,177.78 247.86,177.26 247.82,176.82 C247.78,176.38 247.64,176.06 247.4,175.86 C247.16,175.66 246.83,175.62 246.41,175.74 C245.99,175.86 245.56,176.2 245.12,176.76 C244.76,177.2 244.34,177.77 243.86,178.47 C243.38,179.17 242.84,179.88 242.24,180.6 C241.64,181.32 240.99,182.02 240.29,182.7 C239.59,183.38 238.86,183.94 238.1,184.38 C238.34,183.14 238.35,181.97 238.13,180.87 C237.91,179.77 237.48,178.82 236.84,178.02 C236.2,177.22 235.35,176.6 234.29,176.16 C233.23,175.72 232.02,175.56 230.66,175.68 C230.38,175.68 230.01,175.72 229.55,175.8 C229.09,175.88 228.62,175.93 228.14,175.95 C227.66,175.97 227.24,175.97 226.88,175.95 C226.52,175.93 226.28,175.82 226.16,175.62 C225.96,175.3 226.08,174.77 226.52,174.03 C226.96,173.29 227.9,172.4 229.34,171.36 C229.74,171.04 230.25,170.7 230.87,170.34 C231.49,169.98 232.11,169.65 232.73,169.35 C233.35,169.05 233.92,168.84 234.44,168.72 C234.96,168.6 235.35,168.63 235.61,168.81 C235.87,168.99 235.94,169.35 235.82,169.89 C235.7,170.43 235.32,171.24 234.68,172.32 C234.28,173.04 234.26,173.62 234.62,174.06 C234.98,174.5 235.56,174.6 236.36,174.36 C237.4,173.96 238.33,173.36 239.15,172.56 C239.97,171.76 240.59,170.86 241.01,169.86 C241.43,168.86 241.61,167.81 241.55,166.71 C241.49,165.61 241.08,164.58 240.32,163.62 C239.44,162.54 238.39,161.82 237.17,161.46 C235.95,161.1 234.69,161 233.39,161.16 C232.09,161.32 230.81,161.66 229.55,162.18 C228.29,162.7 227.18,163.28 226.22,163.92 C225.26,164.6 224.33,165.4 223.43,166.32 C222.53,167.24 221.76,168.26 221.12,169.38 C220.48,170.5 220.04,171.67 219.8,172.89 C219.56,174.11 219.62,175.34 219.98,176.58 C220.26,177.7 220.75,178.59 221.45,179.25 C222.15,179.91 222.96,180.4 223.88,180.72 C224.8,181.04 225.78,181.22 226.82,181.26 C227.86,181.3 228.86,181.22 229.82,181.02 C230.06,180.94 230.38,180.89 230.78,180.87 C231.18,180.85 231.46,180.96 231.62,181.2 C231.82,181.56 231.66,182.08 231.14,182.76 C230.62,183.44 229.99,184.14 229.25,184.86 C228.51,185.58 227.77,186.21 227.03,186.75 C226.29,187.29 225.8,187.58 225.56,187.62 C224.52,187.18 223.54,186.56 222.62,185.76 C221.98,185.24 221.27,184.96 220.49,184.92 C219.71,184.88 218.97,185.03 218.27,185.37 C217.57,185.71 216.98,186.22 216.5,186.9 C216.02,187.58 215.78,188.34 215.78,189.18 C215.78,189.86 215.93,190.49 216.23,191.07 C216.53,191.65 216.92,192.17 217.4,192.63 C217.88,193.09 218.41,193.49 218.99,193.83 C219.57,194.17 220.14,194.44 220.7,194.64 C221.78,195 223.02,195.19 224.42,195.21 Z" id="Recipes-Copy" fill="#000000" transform="translate(147.464818, 179.632914) rotate(-4.000000) translate(-147.464818, -179.632914) "></path>
                <g id="Group-19-Copy-2" transform="translate(0.000000, 101.000000)">
                    <path d="M4.51615145,46.3888889 C4.11184237,46.3888889 3.75807724,46.2361126 3.45484543,45.9305555 C3.15161363,45.6249984 3,45.2685205 3,44.8611111 L3,5.2 C3,4.75184961 3.14150605,4.37500153 3.4245224,4.06944444 C3.70753875,3.76388736 4.07141146,3.61111111 4.51615145,3.61111111 L20.4660646,3.61111111 C26.4498389,3.61111111 31.0993234,5.04720786 34.4146578,7.91944445 C37.7299923,10.791681 39.4684952,14.9166398 39.6302188,20.2944445 C39.6706498,21.4759318 39.6908648,23.0444346 39.6908648,25 C39.6908648,26.9555654 39.6706498,28.503698 39.6302188,29.6444445 C39.2259097,40.8074632 32.938998,46.3888889 20.7692949,46.3888889 L4.51615145,46.3888889 Z M20.4660646,37.2222222 C23.0132118,37.2222222 24.8932207,36.6111172 26.106148,35.3888889 C27.3190751,34.1666605 27.96596,32.2111245 28.0468218,29.5222222 C28.1276837,28.3407348 28.1681139,26.8129724 28.1681139,24.9388889 C28.1681139,23.0648055 28.1276837,21.5574131 28.0468218,20.4166666 C27.96596,17.8092462 27.2685373,15.8842655 25.9545328,14.6416667 C24.6405283,13.3990679 22.7099814,12.7777778 20.1628343,12.7777778 L14.4014588,12.7777778 L14.4014588,37.2222222 L20.4660646,37.2222222 Z M60.229663,47 C55.2970924,47 51.4157835,45.6657541 48.58562,42.9972222 C45.7554564,40.3286904 44.2999656,36.4481736 44.2191039,31.3555555 L44.2191039,29.4611111 C44.3808274,24.6129387 45.8767486,20.8240877 48.7069121,18.0944445 C51.5370756,15.3648012 55.3577391,14 60.169017,14 C63.6460751,14 66.5873794,14.7027707 68.9930183,16.1083334 C71.3986574,17.5138959 73.1978058,19.4490617 74.3905175,21.9138889 C75.5832293,24.378716 76.1795763,27.1796139 76.1795763,30.3166666 L76.1795763,31.8444445 C76.1795763,32.2925948 76.0279626,32.6694429 75.7247308,32.975 C75.421499,33.2805571 75.0475187,33.4333334 74.6027787,33.4333334 L55.3779785,33.4333334 L55.3779785,33.8 C55.4184094,35.6333424 55.8429275,37.1101795 56.6515456,38.2305555 C57.4601638,39.3509316 58.6124274,39.9111111 60.108371,39.9111111 C61.0787127,39.9111111 61.856996,39.7175946 62.4432441,39.3305555 C63.0294923,38.9435165 63.585409,38.4444476 64.1110108,37.8333334 C64.4748889,37.4259239 64.7680086,37.1712968 64.9903786,37.0694445 C65.2127486,36.9675921 65.5665137,36.9166666 66.0516846,36.9166666 L73.9963182,36.9166666 C74.3601963,36.9166666 74.6735312,37.0287025 74.936332,37.2527778 C75.199133,37.476853 75.3305315,37.7518502 75.3305315,38.0777778 C75.3305315,39.1370424 74.7341845,40.3796224 73.5414727,41.8055555 C72.348761,43.2314886 70.610258,44.4536986 68.3259118,45.4722222 C66.0415655,46.4907458 63.3428429,47 60.229663,47 Z M65.0207016,27.2 L65.0207016,27.0777778 C65.0207016,25.1222125 64.5961834,23.604635 63.7471344,22.525 C62.8980853,21.445365 61.7053915,20.9055555 60.169017,20.9055555 C58.6326425,20.9055555 57.4500562,21.445365 56.6212226,22.525 C55.792389,23.604635 55.3779785,25.1222125 55.3779785,27.0777778 L55.3779785,27.2 L65.0207016,27.2 Z M78.8277874,46.3888889 C78.4639093,46.3888889 78.1404668,46.2564828 77.8574505,45.9916666 C77.5744342,45.7268506 77.4329281,45.3907428 77.4329281,44.9833334 C77.4329281,44.6574058 77.554219,44.3518533 77.7968044,44.0666666 L87.86405,30.0722222 L78.7064953,16.9333334 C78.4639098,16.6074058 78.3426189,16.3018533 78.3426189,16.0166666 C78.3426189,15.6092572 78.484125,15.2731495 78.7671414,15.0083333 C79.0501577,14.7435172 79.3736001,14.6111111 79.7374783,14.6111111 L87.5608197,14.6111111 C88.0459906,14.6111111 88.4098633,14.7129619 88.6524487,14.9166667 C88.8950343,15.1203714 89.1376161,15.3851836 89.3802015,15.7111111 L94.7170545,23.2277778 L100.114554,15.7111111 C100.154985,15.6703702 100.25606,15.5481492 100.417784,15.3444444 C100.579508,15.1407397 100.791767,14.9675933 101.054568,14.825 C101.317368,14.6824067 101.610488,14.6111111 101.933935,14.6111111 L109.3934,14.6111111 C109.757279,14.6111111 110.080721,14.7435172 110.363737,15.0083333 C110.646754,15.2731495 110.78826,15.5888871 110.78826,15.9555555 C110.78826,16.2814831 110.666969,16.6074058 110.424383,16.9333334 L101.084891,30.0722222 L111.334074,44.0666666 C111.536229,44.3518533 111.637305,44.6574058 111.637305,44.9833334 C111.637305,45.3907428 111.505906,45.7268506 111.243105,45.9916666 C110.980304,46.2564828 110.646754,46.3888889 110.242445,46.3888889 L102.055227,46.3888889 C101.367902,46.3888889 100.801878,46.0629662 100.357138,45.4111111 L94.4744703,37.3444445 L88.5311567,45.4111111 C88.2885711,45.7370386 88.0459893,45.9814806 87.8034039,46.1444445 C87.5608185,46.3074082 87.217161,46.3888889 86.7724209,46.3888889 L78.8277874,46.3888889 Z M124.352761,46.3888889 C123.786729,46.3888889 123.352103,46.2564828 123.048871,45.9916666 C122.745639,45.7268506 122.513165,45.3500025 122.351441,44.8611111 L113.618409,16.5666666 L113.497117,16.0166666 C113.497117,15.6092572 113.638623,15.2731495 113.921639,15.0083333 C114.204656,14.7435172 114.528098,14.6111111 114.891976,14.6111111 L121.502397,14.6111111 C121.987568,14.6111111 122.391871,14.7435172 122.715318,15.0083333 C123.038765,15.2731495 123.240917,15.5685169 123.321778,15.8944444 L128.294755,32.8222222 L133.570962,16.0166666 C133.651824,15.6499982 133.853976,15.3240755 134.177423,15.0388889 C134.50087,14.7537023 134.925388,14.6111111 135.450989,14.6111111 L139.635568,14.6111111 C140.16117,14.6111111 140.585688,14.7537023 140.909135,15.0388889 C141.232582,15.3240755 141.454949,15.6499982 141.576242,16.0166666 L146.852449,32.8222222 L151.764779,15.8944444 C151.886072,15.5685169 152.098331,15.2731495 152.401562,15.0083333 C152.704795,14.7435172 153.09899,14.6111111 153.584161,14.6111111 L160.194581,14.6111111 C160.59889,14.6111111 160.93244,14.7435172 161.195242,15.0083333 C161.458042,15.2731495 161.589441,15.6092572 161.589441,16.0166666 C161.589441,16.2203714 161.569226,16.4037029 161.528795,16.5666666 L152.735117,44.8611111 C152.4521,45.8796347 151.805216,46.3888889 150.794443,46.3888889 L145.033066,46.3888889 C144.022294,46.3888889 143.33498,45.8796347 142.971101,44.8611111 L137.573602,28.6055555 L132.115457,44.8611111 C131.832441,45.8796347 131.16534,46.3888889 130.114137,46.3888889 L124.352761,46.3888889 Z M174.426189,47 C172.283352,47 170.332589,46.5824115 168.573845,45.7472222 C166.815101,44.9120328 165.44047,43.7611185 164.449913,42.2944445 C163.459356,40.8277705 162.964084,39.2185273 162.964084,37.4666666 C162.964084,34.6962825 164.10624,32.445379 166.390587,30.7138889 C168.674934,28.9823987 171.818389,27.790744 175.821049,27.1388889 L183.34116,25.9777778 L183.34116,25.2444445 C183.34116,23.7370294 183.037932,22.6370404 182.431469,21.9444445 C181.825005,21.2518484 180.794032,20.9055555 179.33852,20.9055555 C178.529903,20.9055555 177.852694,21.0481467 177.306877,21.3333334 C176.76106,21.6185199 176.144498,22.0462935 175.457172,22.6166666 C174.931571,23.0648171 174.466623,23.3907397 174.062313,23.5944445 C173.90059,23.8796311 173.698438,24.0222222 173.455853,24.0222222 L166.42091,24.0222222 C166.016601,24.0222222 165.683051,23.8898162 165.420249,23.625 C165.157449,23.3601838 165.046266,23.0444463 165.086696,22.6777778 C165.127128,21.5777723 165.672937,20.3453772 166.72414,18.9805555 C167.775344,17.6157339 169.372341,16.4444494 171.515179,15.4666667 C173.658017,14.488884 176.306202,14 179.459813,14 C184.473245,14 188.192832,15.1101741 190.618687,17.3305555 C193.044541,19.550937 194.25745,22.5555366 194.25745,26.3444445 L194.25745,44.8611111 C194.25745,45.2685205 194.115944,45.6249984 193.832929,45.9305555 C193.549912,46.2361126 193.186039,46.3888889 192.7413,46.3888889 L185.281834,46.3888889 C184.877525,46.3888889 184.52376,46.2361126 184.220527,45.9305555 C183.917296,45.6249984 183.765683,45.2685205 183.765683,44.8611111 L183.765683,42.7222222 C182.876203,43.9851916 181.643078,45.0138849 180.066273,45.8083334 C178.489467,46.6027817 176.609459,47 174.426189,47 Z M177.458493,39.7888889 C179.237453,39.7888889 180.682835,39.1981541 181.794685,38.0166666 C182.906536,36.8351793 183.462453,35.1240853 183.462453,32.8833334 L183.462453,32.15 L178.428829,33.0055555 C175.032633,33.6574106 173.33456,34.8796206 173.33456,36.6722222 C173.33456,37.6092639 173.728756,38.3629601 174.517159,38.9333334 C175.305562,39.5037065 176.285996,39.7888889 177.458493,39.7888889 Z M201.939285,46.3888889 C201.494545,46.3888889 201.120564,46.2462977 200.817333,45.9611111 C200.5141,45.6759244 200.362487,45.3092614 200.362487,44.8611111 L200.362487,4.52777778 C200.362487,4.07962739 200.5141,3.71296439 200.817333,3.42777778 C201.120564,3.14259117 201.494545,3 201.939285,3 L209.520041,3 C209.964781,3 210.328654,3.14259117 210.61167,3.42777778 C210.894687,3.71296439 211.036193,4.07962739 211.036193,4.52777778 L211.036193,44.8611111 C211.036193,45.2685205 210.894687,45.6249984 210.61167,45.9305555 C210.328654,46.2361126 209.964781,46.3888889 209.520041,46.3888889 L201.939285,46.3888889 Z M219.021258,46.3888889 C218.576518,46.3888889 218.202537,46.2462977 217.899305,45.9611111 C217.596073,45.6759244 217.44446,45.3092614 217.44446,44.8611111 L217.44446,4.52777778 C217.44446,4.07962739 217.596073,3.71296439 217.899305,3.42777778 C218.202537,3.14259117 218.576518,3 219.021258,3 L226.602014,3 C227.046754,3 227.410627,3.14259117 227.693643,3.42777778 C227.97666,3.71296439 228.118166,4.07962739 228.118166,4.52777778 L228.118166,44.8611111 C228.118166,45.2685205 227.97666,45.6249984 227.693643,45.9305555 C227.410627,46.2361126 227.046754,46.3888889 226.602014,46.3888889 L219.021258,46.3888889 Z M249.324071,47 C244.3915,47 240.510191,45.6657541 237.680027,42.9972222 C234.849865,40.3286904 233.394374,36.4481736 233.313511,31.3555555 L233.313511,29.4611111 C233.475235,24.6129387 234.971156,20.8240877 237.80132,18.0944445 C240.631483,15.3648012 244.452147,14 249.263425,14 C252.740483,14 255.681788,14.7027707 258.087426,16.1083334 C260.493066,17.5138959 262.292213,19.4490617 263.484926,21.9138889 C264.677637,24.378716 265.273984,27.1796139 265.273984,30.3166666 L265.273984,31.8444445 C265.273984,32.2925948 265.12237,32.6694429 264.819139,32.975 C264.515906,33.2805571 264.141927,33.4333334 263.697187,33.4333334 L244.472386,33.4333334 L244.472386,33.8 C244.512817,35.6333424 244.937335,37.1101795 245.745954,38.2305555 C246.554572,39.3509316 247.706835,39.9111111 249.202778,39.9111111 C250.173121,39.9111111 250.951403,39.7175946 251.537652,39.3305555 C252.1239,38.9435165 252.679817,38.4444476 253.205418,37.8333334 C253.569297,37.4259239 253.862416,37.1712968 254.084786,37.0694445 C254.307156,36.9675921 254.660922,36.9166666 255.146092,36.9166666 L263.090725,36.9166666 C263.454604,36.9166666 263.767939,37.0287025 264.03074,37.2527778 C264.29354,37.476853 264.424939,37.7518502 264.424939,38.0777778 C264.424939,39.1370424 263.828592,40.3796224 262.635881,41.8055555 C261.443168,43.2314886 259.704666,44.4536986 257.42032,45.4722222 C255.135973,46.4907458 252.437251,47 249.324071,47 Z M254.115109,27.2 L254.115109,27.0777778 C254.115109,25.1222125 253.690591,23.604635 252.841542,22.525 C251.992493,21.445365 250.799799,20.9055555 249.263425,20.9055555 C247.72705,20.9055555 246.544464,21.445365 245.715631,22.525 C244.886797,23.604635 244.472386,25.1222125 244.472386,27.0777778 L244.472386,27.2 L254.115109,27.2 Z M286.722473,46.3888889 C278.151121,46.3888889 273.865509,42.3352257 273.865509,34.2277778 L273.865509,22.9222222 L269.074471,22.9222222 C268.670161,22.9222222 268.316396,22.769446 268.013165,22.4638889 C267.709932,22.1583318 267.558319,21.8018539 267.558319,21.3944445 L267.558319,16.1388889 C267.558319,15.6907385 267.709932,15.3240755 268.013165,15.0388889 C268.316396,14.7537023 268.670161,14.6111111 269.074471,14.6111111 L273.865509,14.6111111 L273.865509,4.52777778 C273.865509,4.07962739 274.017123,3.71296439 274.320354,3.42777778 C274.623586,3.14259117 274.977351,3 275.381661,3 L282.841125,3 C283.285865,3 283.649739,3.14259117 283.932754,3.42777778 C284.215771,3.71296439 284.357277,4.07962739 284.357277,4.52777778 L284.357277,14.6111111 L291.938033,14.6111111 C292.382773,14.6111111 292.756754,14.7537023 293.059987,15.0388889 C293.363218,15.3240755 293.514831,15.6907385 293.514831,16.1388889 L293.514831,21.3944445 C293.514831,21.8425948 293.363218,22.2092578 293.059987,22.4944445 C292.756754,22.7796311 292.382773,22.9222222 291.938033,22.9222222 L284.357277,22.9222222 L284.357277,33.3111111 C284.357277,34.7370442 284.620073,35.816663 285.145676,36.55 C285.671278,37.283337 286.520313,37.65 287.69281,37.65 L292.483848,37.65 C292.928588,37.65 293.292461,37.8027763 293.575477,38.1083334 C293.858494,38.4138905 294,38.7907384 294,39.2388889 L294,44.8611111 C294,45.2685205 293.858494,45.6249984 293.575477,45.9305555 C293.292461,46.2361126 292.928588,46.3888889 292.483848,46.3888889 L286.722473,46.3888889 Z" id="Dexwallet-Copy-2" fill="#FFFFFF"></path>
                    <path d="M1.51615145,43.3888889 C1.11184237,43.3888889 0.758077236,43.2361126 0.454845433,42.9305555 C0.151613628,42.6249984 0,42.2685205 0,41.8611111 L0,2.2 C0,1.75184961 0.141506052,1.37500153 0.424522404,1.06944444 C0.707538755,0.763887361 1.07141146,0.611111111 1.51615145,0.611111111 L17.4660646,0.611111111 C23.4498389,0.611111111 28.0993234,2.04720786 31.4146578,4.91944445 C34.7299923,7.79168103 36.4684952,11.9166398 36.6302188,17.2944445 C36.6706498,18.4759318 36.6908648,20.0444346 36.6908648,22 C36.6908648,23.9555654 36.6706498,25.503698 36.6302188,26.6444445 C36.2259097,37.8074632 29.938998,43.3888889 17.7692949,43.3888889 L1.51615145,43.3888889 Z M17.4660646,34.2222222 C20.0132118,34.2222222 21.8932207,33.6111172 23.106148,32.3888889 C24.3190751,31.1666605 24.96596,29.2111245 25.0468218,26.5222222 C25.1276837,25.3407348 25.1681139,23.8129724 25.1681139,21.9388889 C25.1681139,20.0648055 25.1276837,18.5574131 25.0468218,17.4166666 C24.96596,14.8092462 24.2685373,12.8842655 22.9545328,11.6416667 C21.6405283,10.3990679 19.7099814,9.77777778 17.1628343,9.77777778 L11.4014588,9.77777778 L11.4014588,34.2222222 L17.4660646,34.2222222 Z M57.229663,44 C52.2970924,44 48.4157835,42.6657541 45.58562,39.9972222 C42.7554564,37.3286904 41.2999656,33.4481736 41.2191039,28.3555555 L41.2191039,26.4611111 C41.3808274,21.6129387 42.8767486,17.8240877 45.7069121,15.0944445 C48.5370756,12.3648012 52.3577391,11 57.169017,11 C60.6460751,11 63.5873794,11.7027707 65.9930183,13.1083334 C68.3986574,14.5138959 70.1978058,16.4490617 71.3905175,18.9138889 C72.5832293,21.378716 73.1795763,24.1796139 73.1795763,27.3166666 L73.1795763,28.8444445 C73.1795763,29.2925948 73.0279626,29.6694429 72.7247308,29.975 C72.421499,30.2805571 72.0475187,30.4333334 71.6027787,30.4333334 L52.3779785,30.4333334 L52.3779785,30.8 C52.4184094,32.6333424 52.8429275,34.1101795 53.6515456,35.2305555 C54.4601638,36.3509316 55.6124274,36.9111111 57.108371,36.9111111 C58.0787127,36.9111111 58.856996,36.7175946 59.4432441,36.3305555 C60.0294923,35.9435165 60.585409,35.4444476 61.1110108,34.8333334 C61.4748889,34.4259239 61.7680086,34.1712968 61.9903786,34.0694445 C62.2127486,33.9675921 62.5665137,33.9166666 63.0516846,33.9166666 L70.9963182,33.9166666 C71.3601963,33.9166666 71.6735312,34.0287025 71.936332,34.2527778 C72.199133,34.476853 72.3305315,34.7518502 72.3305315,35.0777778 C72.3305315,36.1370424 71.7341845,37.3796224 70.5414727,38.8055555 C69.348761,40.2314886 67.610258,41.4536986 65.3259118,42.4722222 C63.0415655,43.4907458 60.3428429,44 57.229663,44 Z M62.0207016,24.2 L62.0207016,24.0777778 C62.0207016,22.1222125 61.5961834,20.604635 60.7471344,19.525 C59.8980853,18.445365 58.7053915,17.9055555 57.169017,17.9055555 C55.6326425,17.9055555 54.4500562,18.445365 53.6212226,19.525 C52.792389,20.604635 52.3779785,22.1222125 52.3779785,24.0777778 L52.3779785,24.2 L62.0207016,24.2 Z M75.8277874,43.3888889 C75.4639093,43.3888889 75.1404668,43.2564828 74.8574505,42.9916666 C74.5744342,42.7268506 74.4329281,42.3907428 74.4329281,41.9833334 C74.4329281,41.6574058 74.554219,41.3518533 74.7968044,41.0666666 L84.86405,27.0722222 L75.7064953,13.9333334 C75.4639098,13.6074058 75.3426189,13.3018533 75.3426189,13.0166666 C75.3426189,12.6092572 75.484125,12.2731495 75.7671414,12.0083333 C76.0501577,11.7435172 76.3736001,11.6111111 76.7374783,11.6111111 L84.5608197,11.6111111 C85.0459906,11.6111111 85.4098633,11.7129619 85.6524487,11.9166667 C85.8950343,12.1203714 86.1376161,12.3851836 86.3802015,12.7111111 L91.7170545,20.2277778 L97.1145536,12.7111111 C97.1549846,12.6703702 97.2560603,12.5481492 97.4177839,12.3444444 C97.5795076,12.1407397 97.7917666,11.9675933 98.0545676,11.825 C98.3173684,11.6824067 98.6104882,11.6111111 98.9339354,11.6111111 L106.3934,11.6111111 C106.757279,11.6111111 107.080721,11.7435172 107.363737,12.0083333 C107.646754,12.2731495 107.78826,12.5888871 107.78826,12.9555555 C107.78826,13.2814831 107.666969,13.6074058 107.424383,13.9333334 L98.0848906,27.0722222 L108.334074,41.0666666 C108.536229,41.3518533 108.637305,41.6574058 108.637305,41.9833334 C108.637305,42.3907428 108.505906,42.7268506 108.243105,42.9916666 C107.980304,43.2564828 107.646754,43.3888889 107.242445,43.3888889 L99.0552275,43.3888889 C98.3679021,43.3888889 97.8018778,43.0629662 97.3571379,42.4111111 L91.4744703,34.3444445 L85.5311567,42.4111111 C85.2885711,42.7370386 85.0459893,42.9814806 84.8034039,43.1444445 C84.5608185,43.3074082 84.217161,43.3888889 83.7724209,43.3888889 L75.8277874,43.3888889 Z M121.352761,43.3888889 C120.786729,43.3888889 120.352103,43.2564828 120.048871,42.9916666 C119.745639,42.7268506 119.513165,42.3500025 119.351441,41.8611111 L110.618409,13.5666666 L110.497117,13.0166666 C110.497117,12.6092572 110.638623,12.2731495 110.921639,12.0083333 C111.204656,11.7435172 111.528098,11.6111111 111.891976,11.6111111 L118.502397,11.6111111 C118.987568,11.6111111 119.391871,11.7435172 119.715318,12.0083333 C120.038765,12.2731495 120.240917,12.5685169 120.321778,12.8944444 L125.294755,29.8222222 L130.570962,13.0166666 C130.651824,12.6499982 130.853976,12.3240755 131.177423,12.0388889 C131.50087,11.7537023 131.925388,11.6111111 132.450989,11.6111111 L136.635568,11.6111111 C137.16117,11.6111111 137.585688,11.7537023 137.909135,12.0388889 C138.232582,12.3240755 138.454949,12.6499982 138.576242,13.0166666 L143.852449,29.8222222 L148.764779,12.8944444 C148.886072,12.5685169 149.098331,12.2731495 149.401562,12.0083333 C149.704795,11.7435172 150.09899,11.6111111 150.584161,11.6111111 L157.194581,11.6111111 C157.59889,11.6111111 157.93244,11.7435172 158.195242,12.0083333 C158.458042,12.2731495 158.589441,12.6092572 158.589441,13.0166666 C158.589441,13.2203714 158.569226,13.4037029 158.528795,13.5666666 L149.735117,41.8611111 C149.4521,42.8796347 148.805216,43.3888889 147.794443,43.3888889 L142.033066,43.3888889 C141.022294,43.3888889 140.33498,42.8796347 139.971101,41.8611111 L134.573602,25.6055555 L129.115457,41.8611111 C128.832441,42.8796347 128.16534,43.3888889 127.114137,43.3888889 L121.352761,43.3888889 Z M171.426189,44 C169.283352,44 167.332589,43.5824115 165.573845,42.7472222 C163.815101,41.9120328 162.44047,40.7611185 161.449913,39.2944445 C160.459356,37.8277705 159.964084,36.2185273 159.964084,34.4666666 C159.964084,31.6962825 161.10624,29.445379 163.390587,27.7138889 C165.674934,25.9823987 168.818389,24.790744 172.821049,24.1388889 L180.34116,22.9777778 L180.34116,22.2444445 C180.34116,20.7370294 180.037932,19.6370404 179.431469,18.9444445 C178.825005,18.2518484 177.794032,17.9055555 176.33852,17.9055555 C175.529903,17.9055555 174.852694,18.0481467 174.306877,18.3333334 C173.76106,18.6185199 173.144498,19.0462935 172.457172,19.6166666 C171.931571,20.0648171 171.466623,20.3907397 171.062313,20.5944445 C170.90059,20.8796311 170.698438,21.0222222 170.455853,21.0222222 L163.42091,21.0222222 C163.016601,21.0222222 162.683051,20.8898162 162.420249,20.625 C162.157449,20.3601838 162.046266,20.0444463 162.086696,19.6777778 C162.127128,18.5777723 162.672937,17.3453772 163.72414,15.9805555 C164.775344,14.6157339 166.372341,13.4444494 168.515179,12.4666667 C170.658017,11.488884 173.306202,11 176.459813,11 C181.473245,11 185.192832,12.1101741 187.618687,14.3305555 C190.044541,16.550937 191.25745,19.5555366 191.25745,23.3444445 L191.25745,41.8611111 C191.25745,42.2685205 191.115944,42.6249984 190.832929,42.9305555 C190.549912,43.2361126 190.186039,43.3888889 189.7413,43.3888889 L182.281834,43.3888889 C181.877525,43.3888889 181.52376,43.2361126 181.220527,42.9305555 C180.917296,42.6249984 180.765683,42.2685205 180.765683,41.8611111 L180.765683,39.7222222 C179.876203,40.9851916 178.643078,42.0138849 177.066273,42.8083334 C175.489467,43.6027817 173.609459,44 171.426189,44 Z M174.458493,36.7888889 C176.237453,36.7888889 177.682835,36.1981541 178.794685,35.0166666 C179.906536,33.8351793 180.462453,32.1240853 180.462453,29.8833334 L180.462453,29.15 L175.428829,30.0055555 C172.032633,30.6574106 170.33456,31.8796206 170.33456,33.6722222 C170.33456,34.6092639 170.728756,35.3629601 171.517159,35.9333334 C172.305562,36.5037065 173.285996,36.7888889 174.458493,36.7888889 Z M198.939285,43.3888889 C198.494545,43.3888889 198.120564,43.2462977 197.817333,42.9611111 C197.5141,42.6759244 197.362487,42.3092614 197.362487,41.8611111 L197.362487,1.52777778 C197.362487,1.07962739 197.5141,0.712964389 197.817333,0.427777778 C198.120564,0.142591166 198.494545,0 198.939285,0 L206.520041,0 C206.964781,0 207.328654,0.142591166 207.61167,0.427777778 C207.894687,0.712964389 208.036193,1.07962739 208.036193,1.52777778 L208.036193,41.8611111 C208.036193,42.2685205 207.894687,42.6249984 207.61167,42.9305555 C207.328654,43.2361126 206.964781,43.3888889 206.520041,43.3888889 L198.939285,43.3888889 Z M216.021258,43.3888889 C215.576518,43.3888889 215.202537,43.2462977 214.899305,42.9611111 C214.596073,42.6759244 214.44446,42.3092614 214.44446,41.8611111 L214.44446,1.52777778 C214.44446,1.07962739 214.596073,0.712964389 214.899305,0.427777778 C215.202537,0.142591166 215.576518,0 216.021258,0 L223.602014,0 C224.046754,0 224.410627,0.142591166 224.693643,0.427777778 C224.97666,0.712964389 225.118166,1.07962739 225.118166,1.52777778 L225.118166,41.8611111 C225.118166,42.2685205 224.97666,42.6249984 224.693643,42.9305555 C224.410627,43.2361126 224.046754,43.3888889 223.602014,43.3888889 L216.021258,43.3888889 Z M246.324071,44 C241.3915,44 237.510191,42.6657541 234.680027,39.9972222 C231.849865,37.3286904 230.394374,33.4481736 230.313511,28.3555555 L230.313511,26.4611111 C230.475235,21.6129387 231.971156,17.8240877 234.80132,15.0944445 C237.631483,12.3648012 241.452147,11 246.263425,11 C249.740483,11 252.681788,11.7027707 255.087426,13.1083334 C257.493066,14.5138959 259.292213,16.4490617 260.484926,18.9138889 C261.677637,21.378716 262.273984,24.1796139 262.273984,27.3166666 L262.273984,28.8444445 C262.273984,29.2925948 262.12237,29.6694429 261.819139,29.975 C261.515906,30.2805571 261.141927,30.4333334 260.697187,30.4333334 L241.472386,30.4333334 L241.472386,30.8 C241.512817,32.6333424 241.937335,34.1101795 242.745954,35.2305555 C243.554572,36.3509316 244.706835,36.9111111 246.202778,36.9111111 C247.173121,36.9111111 247.951403,36.7175946 248.537652,36.3305555 C249.1239,35.9435165 249.679817,35.4444476 250.205418,34.8333334 C250.569297,34.4259239 250.862416,34.1712968 251.084786,34.0694445 C251.307156,33.9675921 251.660922,33.9166666 252.146092,33.9166666 L260.090725,33.9166666 C260.454604,33.9166666 260.767939,34.0287025 261.03074,34.2527778 C261.29354,34.476853 261.424939,34.7518502 261.424939,35.0777778 C261.424939,36.1370424 260.828592,37.3796224 259.635881,38.8055555 C258.443168,40.2314886 256.704666,41.4536986 254.42032,42.4722222 C252.135973,43.4907458 249.437251,44 246.324071,44 Z M251.115109,24.2 L251.115109,24.0777778 C251.115109,22.1222125 250.690591,20.604635 249.841542,19.525 C248.992493,18.445365 247.799799,17.9055555 246.263425,17.9055555 C244.72705,17.9055555 243.544464,18.445365 242.715631,19.525 C241.886797,20.604635 241.472386,22.1222125 241.472386,24.0777778 L241.472386,24.2 L251.115109,24.2 Z M283.722473,43.3888889 C275.151121,43.3888889 270.865509,39.3352257 270.865509,31.2277778 L270.865509,19.9222222 L266.074471,19.9222222 C265.670161,19.9222222 265.316396,19.769446 265.013165,19.4638889 C264.709932,19.1583318 264.558319,18.8018539 264.558319,18.3944445 L264.558319,13.1388889 C264.558319,12.6907385 264.709932,12.3240755 265.013165,12.0388889 C265.316396,11.7537023 265.670161,11.6111111 266.074471,11.6111111 L270.865509,11.6111111 L270.865509,1.52777778 C270.865509,1.07962739 271.017123,0.712964389 271.320354,0.427777778 C271.623586,0.142591166 271.977351,0 272.381661,0 L279.841125,0 C280.285865,0 280.649739,0.142591166 280.932754,0.427777778 C281.215771,0.712964389 281.357277,1.07962739 281.357277,1.52777778 L281.357277,11.6111111 L288.938033,11.6111111 C289.382773,11.6111111 289.756754,11.7537023 290.059987,12.0388889 C290.363218,12.3240755 290.514831,12.6907385 290.514831,13.1388889 L290.514831,18.3944445 C290.514831,18.8425948 290.363218,19.2092578 290.059987,19.4944445 C289.756754,19.7796311 289.382773,19.9222222 288.938033,19.9222222 L281.357277,19.9222222 L281.357277,30.3111111 C281.357277,31.7370442 281.620073,32.816663 282.145676,33.55 C282.671278,34.283337 283.520313,34.65 284.69281,34.65 L289.483848,34.65 C289.928588,34.65 290.292461,34.8027763 290.575477,35.1083334 C290.858494,35.4138905 291,35.7907384 291,36.2388889 L291,41.8611111 C291,42.2685205 290.858494,42.6249984 290.575477,42.9305555 C290.292461,43.2361126 289.928588,43.3888889 289.483848,43.3888889 L283.722473,43.3888889 Z" id="Dexwallet-Copy-2-Copy" fill="#000000"></path>
                </g>
                <g id="Group-20" transform="translate(106.000000, 3.000000)" fill="#FFFFFF">
                    <rect id="Rectangle" x="0" y="0" width="86" height="86" rx="10"></rect>
                </g>
                <g id="Group-20-Copy" transform="translate(103.000000, 0.000000)">
                    <rect id="Rectangle" fill="#000000" x="0" y="0" width="86" height="86" rx="10"></rect>
                    <path d="M49.9262956,45.1944539 L62.771301,61.2402245 C62.9237677,61.4563383 63,61.6878854 63,61.9348728 C63,62.2436068 62.9008981,62.4983087 62.7026913,62.6989858 C62.5044843,62.899663 62.2529179,63 61.9479844,63 L55.7731102,63 C55.2547231,63 54.8278224,62.7530164 54.4923956,62.2590419 L44.9766831,50.6751742 C43.6256436,49.0304983 43.682293,46.6235882 45.1091629,45.0463978 L45.1091629,45.0463978 C46.2998178,43.7303075 48.3151731,43.6440297 49.6105849,44.853691 C49.723777,44.9593905 49.8292896,45.0732757 49.9262956,45.1944539 Z" id="Path-Copy-15" fill="#FFFFFF"></path>
                    <path d="M28.9262956,45.1944539 L41.771301,61.2402245 C41.9237677,61.4563383 42,61.6878854 42,61.9348728 C42,62.2436068 41.9008981,62.4983087 41.7026913,62.6989858 C41.5044843,62.899663 41.2529179,63 40.9479844,63 L34.7731102,63 C34.2547231,63 33.8278224,62.7530164 33.4923956,62.2590419 L23.9766831,50.6751742 C22.6256436,49.0304983 22.682293,46.6235882 24.1091629,45.0463978 L24.1091629,45.0463978 C25.2998178,43.7303075 27.3151731,43.6440297 28.6105849,44.853691 C28.723777,44.9593905 28.8292896,45.0732757 28.9262956,45.1944539 Z" id="Path-Copy-14" fill="#FFFFFF" transform="translate(32.500000, 53.500000) scale(-1, 1) translate(-32.500000, -53.500000) "></path>
                    <path d="M49.9262956,24.1944539 L62.771301,40.2402245 C62.9237677,40.4563383 63,40.6878854 63,40.9348728 C63,41.2436068 62.9008981,41.4983087 62.7026913,41.6989858 C62.5044843,41.899663 62.2529179,42 61.9479844,42 L55.7731102,42 C55.2547231,42 54.8278224,41.7530164 54.4923956,41.2590419 L44.9766831,29.6751742 C43.6256436,28.0304983 43.682293,25.6235882 45.1091629,24.0463978 L45.1091629,24.0463978 C46.2998178,22.7303075 48.3151731,22.6440297 49.6105849,23.853691 C49.723777,23.9593905 49.8292896,24.0732757 49.9262956,24.1944539 Z" id="Path-Copy-13" fill="#FFFFFF" transform="translate(53.500000, 32.500000) scale(-1, 1) rotate(-180.000000) translate(-53.500000, -32.500000) "></path>
                    <path d="M28.9262956,24.1944539 L41.771301,40.2402245 C41.9237677,40.4563383 42,40.6878854 42,40.9348728 C42,41.2436068 41.9008981,41.4983087 41.7026913,41.6989858 C41.5044843,41.899663 41.2529179,42 40.9479844,42 L34.7731102,42 C34.2547231,42 33.8278224,41.7530164 33.4923956,41.2590419 L23.9766831,29.6751742 C22.6256436,28.0304983 22.682293,25.6235882 24.1091629,24.0463978 L24.1091629,24.0463978 C25.2998178,22.7303075 27.3151731,22.6440297 28.6105849,23.853691 C28.723777,23.9593905 28.8292896,24.0732757 28.9262956,24.1944539 Z" id="Path-Copy-12" fill="#FFFFFF" transform="translate(32.500000, 32.500000) rotate(180.000000) translate(-32.500000, -32.500000) "></path>
                </g>
            </g>
        </g>
    </g>
</svg>