<?xml version="1.0" encoding="UTF-8"?>
<svg width="297px" height="50px" viewBox="0 0 297 50" version="1.1" xmlns="http://www.w3.org/2000/svg" xmlns:xlink="http://www.w3.org/1999/xlink">
    <!-- Generator: Sketch 54.1 (76490) - https://sketchapp.com -->
    <title>Dexwallet Logo Group</title>
    <desc>Created with Sketch.</desc>
    <g id="Page-1" stroke="none" stroke-width="1" fill="none" fill-rule="evenodd">
        <g id="Dexwallet-Logo-Group">
            <g id="Group-19-Copy-2" transform="translate(70.000000, 8.000000)" fill="#000000" fill-rule="nonzero">
                <path d="M1.18055556,33.5277778 C0.865739167,33.5277778 0.590278958,33.4097234 0.354166667,33.1736111 C0.118054375,32.9374988 0,32.6620386 0,32.3472222 L0,1.7 C0,1.35370197 0.110184083,1.06250118 0.330555556,0.826388889 C0.550927028,0.590276597 0.834257528,0.472222222 1.18055556,0.472222222 L13.6,0.472222222 C18.2592826,0.472222222 21.8796167,1.58193335 24.4611111,3.80138889 C27.0426055,6.02084443 28.3962957,9.20831256 28.5222222,13.3638889 C28.5537039,14.2768564 28.5694444,15.4888813 28.5694444,17 C28.5694444,18.5111187 28.5537039,19.707403 28.5222222,20.5888889 C28.2074058,29.2148579 23.3120844,33.5277778 13.8361111,33.5277778 L1.18055556,33.5277778 Z M13.6,26.4444444 C15.5833433,26.4444444 17.0472175,25.9722269 17.9916667,25.0277778 C18.9361158,24.0833286 19.4398145,22.5722326 19.5027778,20.4944444 C19.5657411,19.5814769 19.5972222,18.4009332 19.5972222,16.9527778 C19.5972222,15.5046224 19.5657411,14.3398192 19.5027778,13.4583333 C19.4398145,11.4435084 18.8967644,9.95602332 17.8736111,8.99583333 C16.8504578,8.03564335 15.3472321,7.55555556 13.3638889,7.55555556 L8.87777778,7.55555556 L8.87777778,26.4444444 L13.6,26.4444444 Z M44.562037,34 C40.7212771,34 37.6990851,32.9689918 35.4953704,30.9069444 C33.2916556,28.8448971 32.1583336,25.846316 32.0953704,21.9111111 L32.0953704,20.4472222 C32.2212969,16.7009072 33.3861001,13.7731587 35.5898148,11.6638889 C37.7935295,9.55461908 40.7684998,8.5 44.5148148,8.5 C47.2222358,8.5 49.5124906,9.04305012 51.3856481,10.1291667 C53.2588057,11.2152832 54.6597176,12.7106386 55.5884259,14.6152778 C56.5171343,16.5199169 56.9814815,18.6842471 56.9814815,21.1083333 L56.9814815,22.2888889 C56.9814815,22.6351869 56.8634271,22.9263877 56.6273148,23.1625 C56.3912025,23.3986123 56.1000017,23.5166667 55.7537037,23.5166667 L40.7842593,23.5166667 L40.7842593,23.8 C40.8157409,25.2166737 41.1462931,26.357866 41.7759259,27.2236111 C42.4055587,28.0893562 43.302772,28.5222222 44.4675926,28.5222222 C45.2231519,28.5222222 45.8291644,28.3726867 46.2856481,28.0736111 C46.7421319,27.7745355 47.174998,27.3888913 47.5842593,26.9166667 C47.867594,26.6018503 48.0958325,26.405093 48.2689815,26.3263889 C48.4421305,26.2476848 48.7175907,26.2083333 49.0953704,26.2083333 L55.2814815,26.2083333 C55.5648162,26.2083333 55.8087953,26.2949065 56.0134259,26.4680556 C56.2180566,26.6412046 56.3203704,26.8537024 56.3203704,27.1055556 C56.3203704,27.9240782 55.8560232,28.8842537 54.9273148,29.9861111 C53.9986065,31.0879685 52.6449163,32.0324035 50.8662037,32.8194444 C49.0874911,33.6064854 46.9861232,34 44.562037,34 Z M48.2925926,18.7 L48.2925926,18.6055556 C48.2925926,17.0944369 47.9620403,15.9217634 47.3009259,15.0875 C46.6398115,14.2532366 45.7111171,13.8361111 44.5148148,13.8361111 C43.3185125,13.8361111 42.3976884,14.2532366 41.7523148,15.0875 C41.1069412,15.9217634 40.7842593,17.0944369 40.7842593,18.6055556 L40.7842593,18.7 L48.2925926,18.7 Z M59.0435185,33.5277778 C58.7601838,33.5277778 58.5083344,33.425464 58.287963,33.2208333 C58.0675915,33.0162027 57.9574074,32.7564831 57.9574074,32.4416667 C57.9574074,32.1898136 58.0518509,31.9537048 58.2407407,31.7333333 L66.0796296,20.9194444 L58.9490741,10.7666667 C58.7601842,10.5148136 58.6657407,10.2787048 58.6657407,10.0583333 C58.6657407,9.74351694 58.7759248,9.48379732 58.9962963,9.27916667 C59.2166678,9.07453601 59.4685171,8.97222222 59.7518519,8.97222222 L65.8435185,8.97222222 C66.2212982,8.97222222 66.5046287,9.05092514 66.6935185,9.20833333 C66.8824084,9.36574153 67.0712954,9.57036911 67.2601852,9.82222222 L71.4157407,15.6305556 L75.6185185,9.82222222 C75.6500002,9.79074058 75.7287031,9.69629708 75.8546296,9.53888889 C75.9805562,9.38148069 76.1458323,9.24768574 76.350463,9.1375 C76.5550936,9.02731426 76.7833321,8.97222222 77.0351852,8.97222222 L82.8435185,8.97222222 C83.1268533,8.97222222 83.3787026,9.07453601 83.5990741,9.27916667 C83.8194455,9.48379732 83.9296296,9.72777636 83.9296296,10.0111111 C83.9296296,10.2629642 83.8351861,10.5148136 83.6462963,10.7666667 L76.3740741,20.9194444 L84.3546296,31.7333333 C84.5120378,31.9537048 84.5907407,32.1898136 84.5907407,32.4416667 C84.5907407,32.7564831 84.4884269,33.0162027 84.2837963,33.2208333 C84.0791656,33.425464 83.819446,33.5277778 83.5046296,33.5277778 L77.1296296,33.5277778 C76.5944418,33.5277778 76.1537054,33.2759284 75.8074074,32.7722222 L71.2268519,26.5388889 L66.5990741,32.7722222 C66.4101842,33.0240753 66.2212972,33.2129623 66.0324074,33.3388889 C65.8435176,33.4648154 65.5759277,33.5277778 65.2296296,33.5277778 L59.0435185,33.5277778 Z M94.4916667,33.5277778 C94.0509237,33.5277778 93.7125012,33.425464 93.4763889,33.2208333 C93.2402766,33.0162027 93.0592599,32.7250019 92.9333333,32.3472222 L86.1333333,10.4833333 L86.0388889,10.0583333 C86.0388889,9.74351694 86.149073,9.48379732 86.3694444,9.27916667 C86.5898159,9.07453601 86.8416653,8.97222222 87.125,8.97222222 L92.2722222,8.97222222 C92.6500019,8.97222222 92.9648136,9.07453601 93.2166667,9.27916667 C93.4685198,9.48379732 93.6259256,9.71203578 93.6888889,9.96388889 L97.5611111,23.0444444 L101.669444,10.0583333 C101.732408,9.77499858 101.889814,9.52314925 102.141667,9.30277778 C102.39352,9.08240631 102.724072,8.97222222 103.133333,8.97222222 L106.391667,8.97222222 C106.800928,8.97222222 107.13148,9.08240631 107.383333,9.30277778 C107.635186,9.52314925 107.808333,9.77499858 107.902778,10.0583333 L112.011111,23.0444444 L115.836111,9.96388889 C115.930556,9.71203578 116.095832,9.48379732 116.331944,9.27916667 C116.568057,9.07453601 116.874998,8.97222222 117.252778,8.97222222 L122.4,8.97222222 C122.714816,8.97222222 122.974536,9.07453601 123.179167,9.27916667 C123.383797,9.48379732 123.486111,9.74351694 123.486111,10.0583333 C123.486111,10.2157415 123.470371,10.3574068 123.438889,10.4833333 L116.591667,32.3472222 C116.371295,33.1342632 115.867597,33.5277778 115.080556,33.5277778 L110.594444,33.5277778 C109.807403,33.5277778 109.272224,33.1342632 108.988889,32.3472222 L104.786111,19.7861111 L100.536111,32.3472222 C100.31574,33.1342632 99.7963004,33.5277778 98.9777778,33.5277778 L94.4916667,33.5277778 Z M133.481481,34 C131.812955,34 130.293988,33.677318 128.924537,33.0319444 C127.555086,32.3865708 126.484726,31.4972279 125.713426,30.3638889 C124.942126,29.2305499 124.556481,27.9870438 124.556481,26.6333333 C124.556481,24.4925819 125.445824,22.7532474 127.224537,21.4152778 C129.00325,20.0773081 131.45091,19.156484 134.567593,18.6527778 L140.423148,17.7555556 L140.423148,17.1888889 C140.423148,16.0240682 140.187039,15.1740767 139.714815,14.6388889 C139.24259,14.103701 138.43982,13.8361111 137.306481,13.8361111 C136.676849,13.8361111 136.149539,13.9462952 135.724537,14.1666667 C135.299535,14.3870381 134.819447,14.7175904 134.284259,15.1583333 C133.874998,15.5046314 133.512965,15.7564807 133.198148,15.9138889 C133.072222,16.1342604 132.914816,16.2444444 132.725926,16.2444444 L127.248148,16.2444444 C126.933332,16.2444444 126.673612,16.1421307 126.468981,15.9375 C126.264351,15.7328693 126.177778,15.4888903 126.209259,15.2055556 C126.240741,14.3555513 126.665737,13.403246 127.484259,12.3486111 C128.302782,11.2939762 129.546288,10.3888927 131.214815,9.63333333 C132.883342,8.877774 134.945358,8.5 137.400926,8.5 C141.304649,8.5 144.200916,9.35786179 146.089815,11.0736111 C147.978713,12.7893604 148.923148,15.1110965 148.923148,18.0388889 L148.923148,32.3472222 C148.923148,32.6620386 148.812964,32.9374988 148.592593,33.1736111 C148.372221,33.4097234 148.088891,33.5277778 147.742593,33.5277778 L141.934259,33.5277778 C141.619443,33.5277778 141.343983,33.4097234 141.10787,33.1736111 C140.871758,32.9374988 140.753704,32.6620386 140.753704,32.3472222 L140.753704,30.6944444 C140.061108,31.6703753 139.100932,32.4652747 137.873148,33.0791667 C136.645364,33.6930586 135.18149,34 133.481481,34 Z M135.842593,28.4277778 C137.227785,28.4277778 138.353236,27.9713009 139.218981,27.0583333 C140.084727,26.1453658 140.517593,24.8231568 140.517593,23.0916667 L140.517593,22.525 L136.598148,23.1861111 C133.95369,23.6898173 132.631481,24.6342523 132.631481,26.0194444 C132.631481,26.7435221 132.938423,27.3259237 133.552315,27.7666667 C134.166207,28.2074096 134.929625,28.4277778 135.842593,28.4277778 Z M154.90463,33.5277778 C154.558332,33.5277778 154.267131,33.4175937 154.031019,33.1972222 C153.794906,32.9768507 153.676852,32.6935202 153.676852,32.3472222 L153.676852,1.18055556 C153.676852,0.834257528 153.794906,0.550927028 154.031019,0.330555556 C154.267131,0.110184083 154.558332,0 154.90463,0 L160.807407,0 C161.153705,0 161.437036,0.110184083 161.657407,0.330555556 C161.877779,0.550927028 161.987963,0.834257528 161.987963,1.18055556 L161.987963,32.3472222 C161.987963,32.6620386 161.877779,32.9374988 161.657407,33.1736111 C161.437036,33.4097234 161.153705,33.5277778 160.807407,33.5277778 L154.90463,33.5277778 Z M168.205556,33.5277778 C167.859258,33.5277778 167.568057,33.4175937 167.331944,33.1972222 C167.095832,32.9768507 166.977778,32.6935202 166.977778,32.3472222 L166.977778,1.18055556 C166.977778,0.834257528 167.095832,0.550927028 167.331944,0.330555556 C167.568057,0.110184083 167.859258,0 168.205556,0 L174.108333,0 C174.454631,0 174.737962,0.110184083 174.958333,0.330555556 C175.178705,0.550927028 175.288889,0.834257528 175.288889,1.18055556 L175.288889,32.3472222 C175.288889,32.6620386 175.178705,32.9374988 174.958333,33.1736111 C174.737962,33.4097234 174.454631,33.5277778 174.108333,33.5277778 L168.205556,33.5277778 Z M191.800926,34 C187.960166,34 184.937974,32.9689918 182.734259,30.9069444 C180.530545,28.8448971 179.397223,25.846316 179.334259,21.9111111 L179.334259,20.4472222 C179.460186,16.7009072 180.624989,13.7731587 182.828704,11.6638889 C185.032418,9.55461908 188.007389,8.5 191.753704,8.5 C194.461125,8.5 196.75138,9.04305012 198.624537,10.1291667 C200.497695,11.2152832 201.898606,12.7106386 202.827315,14.6152778 C203.756023,16.5199169 204.22037,18.6842471 204.22037,21.1083333 L204.22037,22.2888889 C204.22037,22.6351869 204.102316,22.9263877 203.866204,23.1625 C203.630091,23.3986123 203.338891,23.5166667 202.992593,23.5166667 L188.023148,23.5166667 L188.023148,23.8 C188.05463,25.2166737 188.385182,26.357866 189.014815,27.2236111 C189.644448,28.0893562 190.541661,28.5222222 191.706481,28.5222222 C192.462041,28.5222222 193.068053,28.3726867 193.524537,28.0736111 C193.981021,27.7745355 194.413887,27.3888913 194.823148,26.9166667 C195.106483,26.6018503 195.334721,26.405093 195.50787,26.3263889 C195.681019,26.2476848 195.95648,26.2083333 196.334259,26.2083333 L202.52037,26.2083333 C202.803705,26.2083333 203.047684,26.2949065 203.252315,26.4680556 C203.456945,26.6412046 203.559259,26.8537024 203.559259,27.1055556 C203.559259,27.9240782 203.094912,28.8842537 202.166204,29.9861111 C201.237495,31.0879685 199.883805,32.0324035 198.105093,32.8194444 C196.32638,33.6064854 194.225012,34 191.800926,34 Z M195.531481,18.7 L195.531481,18.6055556 C195.531481,17.0944369 195.200929,15.9217634 194.539815,15.0875 C193.8787,14.2532366 192.950006,13.8361111 191.753704,13.8361111 C190.557401,13.8361111 189.636577,14.2532366 188.991204,15.0875 C188.34583,15.9217634 188.023148,17.0944369 188.023148,18.6055556 L188.023148,18.7 L195.531481,18.7 Z M220.921296,33.5277778 C214.247189,33.5277778 210.910185,30.3954017 210.910185,24.1305556 L210.910185,15.3944444 L207.17963,15.3944444 C206.864813,15.3944444 206.589353,15.2763901 206.353241,15.0402778 C206.117128,14.8041655 205.999074,14.5287053 205.999074,14.2138889 L205.999074,10.1527778 C205.999074,9.80647975 206.117128,9.52314925 206.353241,9.30277778 C206.589353,9.08240631 206.864813,8.97222222 207.17963,8.97222222 L210.910185,8.97222222 L210.910185,1.18055556 C210.910185,0.834257528 211.02824,0.550927028 211.264352,0.330555556 C211.500464,0.110184083 211.775924,0 212.090741,0 L217.899074,0 C218.245372,0 218.528703,0.110184083 218.749074,0.330555556 C218.969446,0.550927028 219.07963,0.834257528 219.07963,1.18055556 L219.07963,8.97222222 L224.982407,8.97222222 C225.328705,8.97222222 225.619906,9.08240631 225.856019,9.30277778 C226.092131,9.52314925 226.210185,9.80647975 226.210185,10.1527778 L226.210185,14.2138889 C226.210185,14.5601869 226.092131,14.8435174 225.856019,15.0638889 C225.619906,15.2842604 225.328705,15.3944444 224.982407,15.3944444 L219.07963,15.3944444 L219.07963,23.4222222 C219.07963,24.5240796 219.284257,25.3583305 219.693519,25.925 C220.10278,26.4916695 220.763884,26.775 221.676852,26.775 L225.407407,26.775 C225.753705,26.775 226.037036,26.8930544 226.257407,27.1291667 C226.477779,27.365279 226.587963,27.6564797 226.587963,28.0027778 L226.587963,32.3472222 C226.587963,32.6620386 226.477779,32.9374988 226.257407,33.1736111 C226.037036,33.4097234 225.753705,33.5277778 225.407407,33.5277778 L220.921296,33.5277778 Z" id="Dexwallet-Copy-2"></path>
            </g>
            <g id="Group-20">
                <rect id="Rectangle" fill="#000000" x="0" y="0" width="50" height="50" rx="10"></rect>
                <g id="Group-21-Copy" transform="translate(13.000000, 13.000000)"></g>
                <path d="M29.3034196,26.6824502 L36.8653633,35.9802856 C36.9551215,36.1055143 37,36.2396859 37,36.3828045 C37,36.5617026 36.941658,36.7092914 36.8249723,36.8255752 C36.7082865,36.941859 36.5601876,37 36.3806711,37 L32.7454799,37 C32.4403018,37 32.1889824,36.8568836 31.9915143,36.5706466 L26.3895484,29.8582924 C25.5941821,28.9052733 25.627532,27.5105722 26.4675402,26.596658 L26.4675402,26.596658 C27.168487,25.8340402 28.3549406,25.7840459 29.1175585,26.4849927 C29.1841955,26.546241 29.2463115,26.6122326 29.3034196,26.6824502 Z" id="Path-Copy-15" fill="#FFFFFF"></path>
                <path d="M17.3034196,26.6824502 L24.8653633,35.9802856 C24.9551215,36.1055143 25,36.2396859 25,36.3828045 C25,36.5617026 24.941658,36.7092914 24.8249723,36.8255752 C24.7082865,36.941859 24.5601876,37 24.3806711,37 L20.7454799,37 C20.4403018,37 20.1889824,36.8568836 19.9915143,36.5706466 L14.3895484,29.8582924 C13.5941821,28.9052733 13.627532,27.5105722 14.4675402,26.596658 L14.4675402,26.596658 C15.168487,25.8340402 16.3549406,25.7840459 17.1175585,26.4849927 C17.1841955,26.546241 17.2463115,26.6122326 17.3034196,26.6824502 Z" id="Path-Copy-14" fill="#FFFFFF" transform="translate(19.000000, 31.000000) scale(-1, 1) translate(-19.000000, -31.000000) "></path>
                <path d="M29.3034196,14.6824502 L36.8653633,23.9802856 C36.9551215,24.1055143 37,24.2396859 37,24.3828045 C37,24.5617026 36.941658,24.7092914 36.8249723,24.8255752 C36.7082865,24.941859 36.5601876,25 36.3806711,25 L32.7454799,25 C32.4403018,25 32.1889824,24.8568836 31.9915143,24.5706466 L26.3895484,17.8582924 C25.5941821,16.9052733 25.627532,15.5105722 26.4675402,14.596658 L26.4675402,14.596658 C27.168487,13.8340402 28.3549406,13.7840459 29.1175585,14.4849927 C29.1841955,14.546241 29.2463115,14.6122326 29.3034196,14.6824502 Z" id="Path-Copy-13" fill="#FFFFFF" transform="translate(31.000000, 19.000000) scale(1, -1) translate(-31.000000, -19.000000) "></path>
                <path d="M17.3034196,14.6824502 L24.8653633,23.9802856 C24.9551215,24.1055143 25,24.2396859 25,24.3828045 C25,24.5617026 24.941658,24.7092914 24.8249723,24.8255752 C24.7082865,24.941859 24.5601876,25 24.3806711,25 L20.7454799,25 C20.4403018,25 20.1889824,24.8568836 19.9915143,24.5706466 L14.3895484,17.8582924 C13.5941821,16.9052733 13.627532,15.5105722 14.4675402,14.596658 L14.4675402,14.596658 C15.168487,13.8340402 16.3549406,13.7840459 17.1175585,14.4849927 C17.1841955,14.546241 17.2463115,14.6122326 17.3034196,14.6824502 Z" id="Path-Copy-12" fill="#FFFFFF" transform="translate(19.000000, 19.000000) scale(-1, -1) translate(-19.000000, -19.000000) "></path>
            </g>
        </g>
    </g>
</svg>