<?xml version="1.0" encoding="UTF-8"?>
<svg width="190px" height="100px" viewBox="0 0 190 100" version="1.1" xmlns="http://www.w3.org/2000/svg" xmlns:xlink="http://www.w3.org/1999/xlink">
    <!-- Generator: Sketch 60 (88103) - https://sketch.com -->
    <title>kyber-logo</title>
    <desc>Created with Sketch.</desc>
    <g id="Page-1" stroke="none" stroke-width="1" fill="none" fill-rule="evenodd">
        <g id="kyber-logo" fill-rule="nonzero">
            <g id="Group" transform="translate(83.582090, 23.880597)" fill="#141927">
                <path d="M17.5705345,23.0662587 C17.0919596,23.3360394 16.4994384,23.4709299 15.8157599,23.4709299 C15.5878672,23.4709299 15.0637137,23.4484482 14.1977211,23.3585212 L14.1977211,25.8090301 C14.9497673,26.0113658 15.7018136,26.0788109 16.476649,26.0788109 C17.6616915,26.0788109 18.6416306,25.7640667 19.4392554,25.1570599 C20.2368801,24.5500531 20.9433478,23.6058203 21.5358691,22.3018797 L28.2359172,7.19415475 L25.0682073,7.23911822 L21.0117157,17.131081 L17.0691703,7.23911822 L13.9014604,7.23911822 L19.3936767,20.1885967 L18.8239448,21.4700555 C18.4593163,22.2569163 18.02632,22.7964779 17.5705345,23.0662587 Z" id="Shape"></path>
                <path d="M33.2267694,18.9521013 C33.7281336,19.6490352 34.4118119,20.1885967 35.232226,20.5707863 C36.0754293,20.9529757 36.9870004,21.1553113 38.0125181,21.1553113 C39.9496069,21.1553113 41.5448564,20.503341 42.7982667,19.1319552 C44.0516772,17.7830513 44.7125663,16.0969212 44.7125663,14.0735652 C44.7125663,12.0502092 44.0744664,10.3640792 42.7754775,9.01517516 C41.4764885,7.66627115 39.8584497,6.99181915 37.9213609,6.99181915 L38.0353073,6.96933742 C36.05264,6.96933742 34.502969,7.62130769 33.4090836,8.92524824 L33.4090836,0.112408668 L30.4692666,0.112408668 L30.4692666,20.8180854 L33.2039801,20.8180854 L33.2039801,18.9521013 L33.2267694,18.9521013 Z M34.4801797,10.8137139 C35.3005937,10.0493349 36.2805328,9.64466372 37.4199967,9.64466372 C38.6278287,9.64466372 39.6305569,10.0493349 40.4509709,10.8811591 C41.2713851,11.7129832 41.6588027,12.7696247 41.6588027,14.0510835 C41.6588027,15.355024 41.2713851,16.4341473 40.4509709,17.2659713 C39.6305569,18.0977955 38.6961964,18.5474301 37.4883646,18.5474301 L37.4427861,18.5474301 C36.3033221,18.5474301 35.3233831,18.1877225 34.502969,17.4458252 C33.6825549,16.7039281 33.2723479,15.6023231 33.2723479,14.1410104 C33.2723479,12.6796977 33.6597657,11.5780928 34.4801797,10.8137139 Z" id="Shape"></path>
                <path d="M7.04188734,39.5228876 L7.01909806,39.5228876 C5.3099021,39.5228876 3.94254534,40.084931 2.89423848,41.186536 L2.89423848,39.8376319 L0.159524955,39.8376319 L0.159524955,53.4615625 L3.099342,53.4615625 L3.099342,45.3231749 C3.099342,44.4014239 3.37281336,43.6595266 3.96533461,43.0750015 C4.55785588,42.4904764 5.3099021,42.1982139 6.24426255,42.1982139 C7.13304445,42.1982139 7.8623014,42.5129582 8.43203339,43.0750015 C9.00176537,43.6595266 9.27523672,44.4239055 9.27523672,45.3681384 L9.27523672,53.4615625 L12.2150538,53.4615625 L12.2150538,44.9634672 C12.2150538,43.3447824 11.7592682,42.0408418 10.847697,41.0516455 C9.93612582,40.0624493 8.6371369,39.5228876 7.04188734,39.5228876 Z" id="Shape"></path>
                <path d="M21.9916546,39.500406 C20.0089873,39.500406 18.3225806,40.1973397 16.9552239,41.5687254 C15.5878672,42.9401112 14.8813994,44.6262412 14.8813994,46.6271155 C14.8813994,48.6504715 15.5878672,50.3366015 16.9780131,51.6855055 C18.3681593,53.0344096 20.145723,53.7313433 22.265126,53.7313433 C24.3617397,53.7313433 26.1848821,53.0119278 27.7573424,51.5506151 L26.3671963,49.5722225 C25.1365752,50.6513458 23.7920078,51.1684257 22.3562831,51.1684257 C21.1484513,51.1684257 20.145723,50.8536813 19.325309,50.2241928 C18.5048949,49.5947043 18.0035307,48.6954349 17.8212166,47.5713482 L28.0763922,47.5713482 C28.3270743,46.8968963 28.3498636,45.7503279 28.3498636,45.7503279 C28.3498636,43.9517891 27.734553,42.4679948 26.5267212,41.2764628 C25.3416787,40.084931 23.814797,39.500406 21.9916546,39.500406 Z M17.8895843,45.3231749 C18.1174772,44.3114969 18.5960519,43.5021545 19.325309,42.8951478 C20.0545658,42.2881409 20.87498,41.9958784 21.854919,41.9733966 C22.8348579,41.9733966 23.6552721,42.2881409 24.3389504,42.8951478 C24.9998396,43.5021545 25.3416787,44.3114969 25.3644679,45.3231749 L17.8895843,45.3231749 Z" id="Shape"></path>
                <path d="M54.7854278,21.177793 C56.8820413,21.177793 58.7051837,20.4583776 60.277644,18.9970649 L58.8874981,17.0186724 C57.6568769,18.0977955 56.3123094,18.6148754 54.8765848,18.6148754 C53.668753,18.6148754 52.6660248,18.3001312 51.8456106,17.6706425 C51.0251966,17.041154 50.5238324,16.1418848 50.3415182,15.0177981 L60.5966939,15.0177981 C60.8701654,14.2983826 60.8701654,13.1967776 60.8701654,13.1967776 C60.8701654,11.3982389 60.2548548,9.91444451 59.047023,8.72291263 C57.8391912,7.53138075 56.3350987,6.94685569 54.5119564,6.94685569 C52.5292891,6.94685569 50.8428824,7.64378942 49.4755257,9.01517516 C48.1081688,10.3865609 47.4017012,12.0726909 47.4017012,14.0735652 C47.4017012,16.0969212 48.1081688,17.7830513 49.4983149,19.1319552 C50.8884609,20.503341 52.6660248,21.177793 54.7854278,21.177793 Z M51.8228213,10.3640792 C52.5520784,9.75707237 53.3724924,9.46480984 54.3524313,9.4423281 C55.3323704,9.4423281 56.1527845,9.75707237 56.8364628,10.3640792 C57.4973519,10.971086 57.8391912,11.7804284 57.8619804,12.7921064 L50.3870967,12.7921064 C50.6149896,11.7579467 51.0935645,10.971086 51.8228213,10.3640792 Z" id="Shape"></path>
                <path d="M38.172043,51.0784987 C37.283261,51.0784987 36.5995827,50.9211266 36.1665864,50.5614188 C35.7108009,50.201711 35.5056973,49.5947043 35.5056973,48.7403984 L35.5056973,42.3555861 L39.5849784,42.3555861 L39.5849784,39.8376319 L35.5056973,39.8376319 L35.5056973,36.2855181 L32.543091,36.2855181 L32.543091,39.8376319 L30.3097416,39.8376319 L30.3097416,42.3555861 L32.543091,42.3555861 L32.543091,48.9876975 C32.543091,50.5614188 32.9988766,51.7529507 33.8876585,52.5173297 C34.7764404,53.2817087 36.0070615,53.6863799 37.602311,53.6863799 C38.3087787,53.6863799 39.1064034,53.5739712 40.0407639,53.3716355 L40.0407639,50.9211266 C39.2203499,51.0110536 38.6506179,51.0784987 38.2176216,51.0784987 L38.172043,51.0784987 Z" id="Shape"></path>
                <polygon id="Shape" points="58.0215054 48.5830263 53.7826994 39.5228876 52.779971 39.5228876 48.609533 48.6954349 44.9860376 39.8376319 41.8639063 39.8376319 47.9714331 53.6863799 48.9741615 53.6863799 53.2813352 44.6712046 57.5885091 53.6863799 58.6140266 53.6863799 64.6987642 39.8376319 61.576633 39.8376319"></polygon>
                <path d="M72.7889585,39.5228876 C70.7379233,39.5228876 69.0287273,40.2198213 67.6385813,41.5687254 C66.2484352,42.9176294 65.5419676,44.6037594 65.5419676,46.6046337 C65.5419676,48.6055081 66.2484352,50.2691563 67.6385813,51.6405421 C69.0287273,52.9894461 70.7379233,53.6863799 72.7889585,53.7088615 C74.7944151,53.7088615 76.503611,53.0119278 77.9393355,51.6405421 C79.3750601,50.2691563 80.0587385,48.5830263 80.0587385,46.5821519 C80.0587385,44.6037594 79.3294816,42.9176294 77.893757,41.5462437 C76.503611,40.1973397 74.7944151,39.5453694 72.7889585,39.5228876 Z M75.774354,49.7295948 C74.95394,50.5614188 73.9512116,50.96609 72.7433799,50.96609 C71.5127588,50.96609 70.5100304,50.5614188 69.6896164,49.7295948 C68.8692024,48.8977706 68.4817846,47.8411291 68.4817846,46.6046337 C68.4817846,45.3231749 68.8692024,44.2890152 69.6896164,43.457191 C70.5100304,42.6253669 71.5127588,42.2206957 72.7433799,42.1757322 L72.7661691,42.1757322 C73.9740009,42.1982139 74.9767293,42.6253669 75.7971433,43.4347093 C76.6175573,44.2665334 77.0049751,45.3231749 77.0049751,46.5821519 C77.0049751,47.8411291 76.5719788,48.8977706 75.774354,49.7295948 Z" id="Shape"></path>
                <path d="M89.4935003,39.7027415 C89.4935003,39.7027415 89.5470204,39.7027415 89.5470204,39.7027415 C89.5470204,39.7027415 89.6005407,39.7027415 89.6005407,39.7027415 L89.4935003,39.7027415 Z" id="Shape"></path>
                <path d="M85.5053764,41.5912072 L85.5053764,39.8151501 L82.7706628,39.8151501 L82.7706628,53.4390807 L85.7104799,53.4390807 L85.7104799,46.1549991 C85.7104799,44.9634672 86.0978976,44.0641979 86.8499439,43.3897458 C87.60199,42.7377755 88.5591399,42.4005496 89.6986037,42.4005496 L90.5873857,42.4005496 L90.5873857,39.8376319 C90.2683357,39.7477049 89.9037073,39.7027415 89.4935003,39.7027415 C87.8298828,39.7027415 86.4853154,40.33223 85.5053764,41.5912072 Z" id="Shape"></path>
                <path d="M66.5219066,13.6239306 C66.5219066,12.4323987 66.9093243,11.5331293 67.6613706,10.8586773 C68.4134167,10.206707 69.3705666,9.86948104 70.5100304,9.86948104 L71.3988124,9.86948104 L71.3988124,7.30656342 C71.0797625,7.21663648 70.715134,7.17167301 70.304927,7.17167301 C68.6185203,7.17167301 67.2739528,7.82364328 66.2940137,9.08262037 L66.2940137,7.30656342 L63.5593003,7.30656342 L63.5593003,20.9080122 L66.4991173,20.9080122 L66.4991173,13.6239306 L66.5219066,13.6239306 Z" id="Shape"></path>
                <path d="M70.304927,7.14919128 C70.304927,7.14919128 70.3584473,7.14919128 70.3584473,7.14919128 C70.3584473,7.14919128 70.4119675,7.14919128 70.4119675,7.14919128 L70.304927,7.14919128 Z" id="Shape"></path>
                <rect id="Rectangle-path" x="93.3220993" y="32.665959" width="2.93981704" height="20.7731218"></rect>
                <polygon id="Shape" points="99.8170439 45.7952913 105.354839 39.8376319 101.731343 39.8376319 96.3530733 45.7728096 102.346654 53.4390807 105.878992 53.4390807"></polygon>
                <polygon id="Shape" points="12.1922645 7.28408169 8.54597978 7.28408169 3.19049912 13.2417411 9.1840796 20.9080122 12.7164179 20.9080122 6.65446958 13.2642228"></polygon>
                <rect id="Rectangle-path" x="0.159524955" y="0.134890401" width="2.93981704" height="20.7731218"></rect>
            </g>
            <path d="M29.8507463,50.0127719 L67.2077569,71.3821749 C68.520117,72.1268321 70.1492537,71.1790866 70.1492537,69.6897724 L70.1492537,30.3132063 C70.1492537,28.8013267 68.520117,27.8761466 67.2077569,28.6208037 L29.8507463,50.0127719 Z" id="Shape" fill="#31CB9E"></path>
            <path d="M66.3779979,19.1568528 L40.8610491,0.401566218 C39.6758357,-0.471293187 37.9793536,0.155375103 37.6772403,1.54299775 L28.358209,43.2835821 L66.1456031,22.3797184 C67.4005351,21.685907 67.5167324,20.0073313 66.3779979,19.1568528" id="Shape" fill="#31CB9E"></path>
            <path d="M40.8370597,99.6082691 L66.3757131,80.8486807 C67.5143793,79.9980073 67.3981888,78.3190466 66.1665704,77.6250761 L28.358209,56.7164179 L37.6766803,98.4665758 C37.9555373,99.8545167 39.6751555,100.458943 40.8370597,99.6082691" id="Shape" fill="#31CB9E"></path>
            <path d="M20.1449819,49.265024 L29.8038412,3.86854219 C30.1839352,2.08430237 28.1716728,0.796939452 26.7407307,1.90361985 L2.01226234,20.9656251 C0.737829528,21.9367937 0,23.4725951 0,25.0761524 L0,73.4313103 C0,75.0348676 0.737829528,76.570669 2.01226234,77.5418376 L26.7407307,96.6038428 C28.1716728,97.7105233 30.1839352,96.4231603 29.8038412,94.6389204 L20.1449819,49.265024 Z" id="Shape" fill="#31CB9E"></path>
        </g>
    </g>
</svg>