<?xml version="1.0" encoding="UTF-8"?>
<svg width="381px" height="145px" viewBox="0 0 381 145" version="1.1" xmlns="http://www.w3.org/2000/svg" xmlns:xlink="http://www.w3.org/1999/xlink">
    <!-- Generator: Sketch 60 (88103) - https://sketch.com -->
    <title>Group</title>
    <desc>Created with Sketch.</desc>
    <g id="Teaser" stroke="none" stroke-width="1" fill="none" fill-rule="evenodd">
        <g id="Desktop-HD" transform="translate(-771.000000, -134.000000)" fill-rule="nonzero">
            <g id="Group" transform="translate(769.092120, 127.498127)">
                <path d="M10.5423486,34.0277355 C15.2316023,30.4832645 20.2285132,27.5443515 25.5332314,25.2109081 C30.8379496,22.8774647 36.3330863,21.0904874 42.0188064,19.8499225 C44.3048176,19.3773264 46.9424832,18.9785794 49.9318824,18.6536696 C52.9212816,18.3287597 55.8813286,18.3287597 58.8121121,18.6536696 C61.7428956,18.9785794 64.4538297,19.7317682 66.9449957,20.9132585 C69.4361617,22.0947488 71.3851035,23.9555682 72.7918796,26.4957724 C73.1435737,27.145592 73.3633791,27.8101704 73.4513026,28.4895273 C73.5392262,29.1688843 73.4659577,29.774389 73.2314946,30.3060596 C72.9970323,30.8377302 72.5720751,31.2217088 71.9566105,31.4580069 C71.341146,31.694305 70.5058852,31.7238418 69.4508031,31.5466182 C67.9854114,31.2512457 66.3881583,30.9706459 64.658996,30.7048106 C62.9298337,30.4389753 61.1420826,30.246986 59.295689,30.1288369 C57.4492953,30.0106879 55.5882757,29.9811511 53.7125742,30.0402256 C51.8368728,30.0993001 50.0198142,30.3060578 48.2613441,30.6605049 C45.5064076,33.9096033 43.0299327,37.2620318 40.831845,40.717891 C38.6337574,44.1737502 36.5089712,47.5852523 34.4574227,50.9524997 C33.3437249,52.8428843 32.2446976,54.7627772 31.1603077,56.7122363 C30.0759178,58.6616953 29.0794663,60.6554303 28.1709234,62.6935011 C27.2623805,64.7315719 26.4710809,66.799149 25.7970006,68.8962943 C25.1229204,70.9934396 24.6393484,73.1348587 24.3462701,75.3206158 L24.1704239,77.1814537 L24.1704239,77.1814537 C24.1118082,77.8312734 23.979925,78.4515465 23.7747701,79.0422917 C23.5696153,79.6330368 23.2618876,80.1351627 22.8515779,80.5486843 C22.4412682,80.9622059 21.8551203,81.2280373 21.0931166,81.3461863 C19.9794188,81.5234098 18.9976211,81.3314205 18.1476939,80.7702126 C17.2977666,80.2090047 16.5797354,79.4705844 15.9935787,78.5549294 C15.407422,77.6392744 14.9385037,76.6350227 14.5868097,75.5421441 C14.2351157,74.4492656 14.0006565,73.4893191 13.8834248,72.6622758 C13.5903468,70.1811462 13.7222301,67.7295905 14.2790789,65.3075354 C14.8359278,62.8854802 15.6418812,60.5077666 16.6969633,58.1743232 C17.7520453,55.8408798 18.982956,53.5960819 20.3897321,51.4398621 C21.7965082,49.2836422 23.1739558,47.2603704 24.5221162,45.3699859 C26.2805863,42.8888562 28.1562596,40.525911 30.1491924,38.2810794 L32.4281604,35.7290706 C33.5113704,34.5239589 34.510172,33.4251834 35.4245764,32.4327315 C31.4387108,33.2007003 27.4968661,34.0572679 23.598924,35.0024601 C19.7009819,35.9476524 15.7884446,36.8632937 11.8611946,37.7494114 C11.1578066,37.926635 10.6156197,37.8823297 10.2346179,37.6164944 C9.85361603,37.3506591 9.61915687,37.0109857 9.53123336,36.5974641 C9.44330985,36.1839425 9.48727154,35.7261219 9.66311796,35.2239885 C9.83896497,34.7218551 10.1320389,34.3231081 10.5423486,34.0277355 Z M95.71756,42.7182043 C92.7437251,42.3627191 89.9011315,42.6589523 87.1896938,43.606913 C84.4782562,44.5548737 81.9563654,45.902735 79.6239459,47.6505375 C77.2915264,49.39834 75.177803,51.3831029 73.2827121,53.6048857 C71.3876213,55.8266685 69.7695295,58.0632296 68.4283883,60.3146362 C66.0959688,64.224974 64.9735088,66.7873917 65.0609745,68.0019663 C65.1484402,69.2165409 65.9501974,69.4090925 67.4662701,68.579627 C68.9823428,67.7501614 70.9502922,66.0616318 73.3701774,63.5139875 C75.7900626,60.9663544 78.1953342,57.9151405 80.5860641,54.360288 L81.8105774,52.6618681 C82.0243811,52.3722153 82.2430444,52.0792706 82.466568,51.7830329 C83.1371386,50.8943197 83.8660087,50.0796783 84.6532003,49.339084 C85.4403919,48.5984897 86.3296135,47.9763999 87.3208918,47.4727958 C88.3121701,46.9691917 89.3908979,46.6581467 90.5571076,46.5396516 C91.9565593,46.4211566 93.137329,46.5988965 94.099452,47.0728769 C95.0615751,47.5468572 95.7904452,48.213382 96.2860844,49.0724714 C96.7817235,49.9315607 96.9858072,50.9535655 96.8983414,52.1385163 C96.8108757,53.3234672 96.388131,54.5676469 95.6300947,55.8710928 L95.0178381,56.9264322 C94.901218,57.1152826 94.777309,57.3106134 94.6461111,57.5124246 L94.23065,58.1372999 C93.6475451,58.9963893 93.0498716,59.9295241 92.4376115,60.9367323 C91.8253513,61.9439405 91.2422552,62.9659453 90.6883056,64.0027772 C90.134356,65.0396092 89.6824565,66.0319907 89.3325935,66.9799513 C88.8661096,68.2833972 88.9827289,68.8906754 89.6824547,68.8018041 C90.3821806,68.7129328 91.3151344,68.1649013 92.4813441,67.1576931 C94.6971426,65.2617717 96.7234017,63.2325739 98.560182,61.0700386 C100.396962,58.9075033 102.160828,56.9079288 103.851832,55.071255 C104.201695,54.7157697 104.56613,54.5084065 104.945148,54.4491589 C105.324167,54.3899114 105.674024,54.449158 105.994732,54.6269006 C106.31544,54.8046433 106.563256,55.0860649 106.738187,55.4711739 C106.913118,55.8562829 106.942273,56.3154445 106.825652,56.8486724 C106.359168,58.9223363 105.382482,61.3366374 103.895565,64.0916481 C102.408648,66.8466588 100.644782,69.4979465 98.6039147,72.0455908 C96.5630476,74.5932351 94.3764371,76.8149846 92.0440176,78.7109059 C89.7115981,80.6068273 87.4958329,81.7028903 85.3966553,81.999128 C83.9972036,82.1768707 82.6852373,82.073189 81.4607171,81.68808 C80.2361969,81.302971 79.1866238,80.6956928 78.3119665,79.8662272 C77.4373092,79.0367616 76.7375938,78.0147569 76.2127995,76.8001823 C75.6880051,75.5856077 75.4256118,74.2673696 75.4256118,72.8454286 C75.4256118,71.7197253 75.5276536,70.5940389 75.7317403,69.4683356 C75.9358271,68.3426323 76.2127977,67.2169459 76.5626606,66.0912426 L75.0320182,68.7795858 C74.5072278,69.7127276 73.9678597,70.6828991 73.4139101,71.6901073 C72.3060108,73.7045238 71.0523541,75.54117 69.6529024,77.2001012 C68.2534507,78.8590323 66.6936686,80.1328354 64.9735092,81.0215485 C63.2533498,81.9102616 61.2854004,82.0880016 59.0696019,81.5547737 C56.5622509,80.9622998 54.7838077,79.8069886 53.734219,78.0888098 C52.6846302,76.3706311 52.0869567,74.4303033 51.9411804,72.267768 C51.7954042,70.1052327 51.9994879,67.8834832 52.5534375,65.6024529 C53.1073871,63.3214225 53.7633703,61.321848 54.5214066,59.6036693 C56.4456527,55.1601036 58.952966,51.0572729 62.0434219,47.295054 C65.1338777,43.5328351 68.6616093,40.3187042 72.6267224,37.6525648 C74.4343475,36.4083664 76.4606066,35.2974917 78.7055603,34.3199073 C80.9505141,33.3423228 83.2391664,32.675798 85.5715859,32.3203127 C87.9040054,31.9648275 90.2072351,32.0092625 92.4813441,32.453619 C94.7554531,32.8979756 96.8545992,33.9199804 98.7788453,35.519664 C99.5368816,36.1713869 99.9887811,36.9267818 100.134557,37.7858711 C100.280334,38.6449605 100.192869,39.459602 99.8721614,40.22982 C99.5514537,41.000038 99.0266672,41.6369396 98.2977861,42.1405437 C97.568905,42.6441478 96.7088383,42.8366994 95.71756,42.7182043 Z M124.918892,48.5766061 C125.857547,46.9942265 126.414866,45.8074596 126.590864,45.0162698 C126.766861,44.22508 126.664198,43.6976281 126.282869,43.4338981 C125.90154,43.1701682 125.329556,43.1262139 124.566898,43.3020338 C123.804241,43.4778538 122.968263,43.7855341 122.058941,44.225084 C121.149618,44.6646339 120.24031,45.1481315 119.330987,45.6755913 C118.421665,46.2030512 117.673685,46.7012003 117.087025,47.1700535 C114.975051,48.6938264 113.596421,49.9978049 112.951096,51.0820279 C112.30577,52.166251 112.129775,52.9427775 112.423105,53.4116307 C112.599102,53.704664 112.951093,53.8658298 113.479087,53.8951332 C114.00708,53.9244365 114.623064,53.9244365 115.327055,53.8951332 C116.031047,53.8658298 116.720362,53.7925726 117.39502,53.6753593 C118.069679,53.558146 118.612331,53.4995402 119.022992,53.4995402 C121.017635,53.3237203 122.792254,53.5581434 124.346902,54.2028166 C125.90155,54.8474897 127.148183,55.7558792 128.086838,56.9280122 C129.025493,58.1001453 129.656143,59.4920324 129.978806,61.1037153 C130.301469,62.7153982 130.286802,64.4296171 129.934807,66.2464233 C131.04946,65.6017501 132.120098,64.7812693 133.146752,63.7849562 C134.173406,62.7886431 135.126714,61.7630421 136.006703,60.7081224 C136.886693,59.6532026 137.678671,58.6129502 138.382663,57.5873338 C139.086654,56.5617174 139.702638,55.7265851 140.230631,55.0819119 C140.875957,54.2614188 141.506607,53.7632697 142.122599,53.5874498 C142.738592,53.4116298 143.222579,53.4702356 143.574574,53.7632689 C143.92657,54.0563021 144.131898,54.5251483 144.190564,55.1698215 C144.237497,55.68556 144.096701,56.2763077 143.768172,56.9420764 L143.486576,57.4554695 C141.315935,61.4993284 138.94,65.2061436 136.358697,68.576026 C133.777395,71.9459085 130.785476,74.8615457 127.38285,77.3230251 C125.974867,78.3193382 124.288246,79.1837733 122.322936,79.9163565 C120.357627,80.6489396 118.304349,81.2056945 116.163041,81.5866377 C114.021734,81.9675809 111.924457,82.1433983 109.871148,82.1140949 C107.81784,82.0847916 105.999214,81.8064142 104.415241,81.2789543 C103.593918,80.9859211 102.75794,80.5903321 101.907284,80.0921756 C101.056627,79.594019 100.279315,79.0079613 99.5753235,78.3339848 C98.871332,77.6600083 98.2993474,76.8981332 97.8593527,76.0483368 C97.419358,75.1985403 97.199364,74.2754994 97.199364,73.2791863 C97.199364,72.0484467 97.5513544,70.934937 98.255346,69.9386239 C98.9593375,68.9423108 99.8246475,68.1950872 100.851302,67.6969307 C101.877956,67.1987741 102.96326,66.9790025 104.107246,67.0376091 C105.251233,67.0962158 106.292538,67.5064562 107.231193,68.2683427 C108.58051,69.4404757 110.017805,70.3488652 111.54312,70.9935383 C111.895116,70.9349317 112.613763,70.5100398 113.699083,69.71885 C114.784403,68.9276602 115.869707,68.0046193 116.955028,66.9496996 C118.040348,65.8947799 118.964323,64.8691788 119.72698,63.8728658 C120.489638,62.8765527 120.724298,62.1146776 120.430968,61.5872178 C120.196305,61.2355779 119.785649,61.074412 119.198989,61.1037153 C118.61233,61.1330186 118.143009,61.2062758 117.791013,61.3234891 C116.38303,61.6165224 114.916403,61.733734 113.391088,61.6751273 C111.865773,61.6165206 110.428479,61.3527947 109.079162,60.8839415 C107.729845,60.4150882 106.541877,59.6971675 105.515222,58.7301578 C104.488568,57.763148 103.769921,56.4591696 103.359259,54.8181833 C102.831265,53.0013771 102.743268,51.1992496 103.095264,49.4117467 C103.447259,47.6242438 104.092575,45.910025 105.031231,44.2690387 C105.969886,42.6280525 107.099189,41.1336053 108.419173,39.7856523 C109.739157,38.4376993 111.10312,37.2655838 112.511103,36.2692708 C113.919086,35.3315643 115.547042,34.4817806 117.39502,33.7198942 C119.242998,32.9580077 121.120281,32.4598586 123.026924,32.225432 C124.933568,31.9910054 126.781518,32.1375198 128.57083,32.6649797 C130.360142,33.1924396 131.9001,34.2473435 133.190751,35.8297231 C134.305404,37.2362827 134.906722,38.7453814 134.994721,40.3570643 C135.082719,41.9687472 134.818727,43.5071487 134.202734,44.972315 C133.586741,46.4374813 132.677433,47.7561112 131.47478,48.9282443 C130.272128,50.1003773 128.908165,50.9794639 127.38285,51.5655304 C126.209531,51.9171703 125.358887,51.7706559 124.830894,51.1259827 C124.3029,50.4813095 124.332232,49.6315258 124.918892,48.5766061 Z M174.027549,35.0557909 C173.385456,36.2257662 172.524482,37.1471079 171.444599,37.8198437 C170.364717,38.4925795 169.182701,39.004436 167.898517,39.3554286 C166.614332,39.7064212 165.286388,39.9111638 163.914646,39.9696625 C162.542903,40.0281613 161.244145,40.0281613 160.018333,39.9696625 L158.914035,41.890262 C158.503051,42.6191033 158.049183,43.4365874 157.552426,44.3427185 L157.041374,45.2783988 C155.815562,47.5306012 154.589767,49.9290145 153.363955,52.4737107 C152.138142,55.0184069 150.985312,57.563065 149.90543,60.1077612 C149.005528,62.2283414 148.338716,64.094998 147.904982,65.7077688 L147.672711,66.6449654 C147.147363,68.5169258 147.161955,69.7307569 147.71649,70.2864952 C148.271024,70.8422334 149.394669,70.5643685 151.087457,69.452892 C152.371642,68.6339093 153.641214,67.6101963 154.896213,66.3817222 C156.151212,65.1532482 157.34782,63.8809192 158.486075,62.564697 C159.624329,61.2484748 160.704195,59.9468968 161.725706,58.6599241 L164.396213,55.2377635 C164.979933,54.4187808 165.578237,53.9215488 166.191143,53.7460525 C166.80405,53.5705562 167.300204,53.6144296 167.679623,53.877674 C168.059041,54.1409185 168.292525,54.5942771 168.380083,55.2377635 C168.467641,55.8812499 168.307121,56.6124735 167.898517,57.4314562 L165.052895,63.4421741 L165.052895,63.4421741 C164.089756,65.4603814 163.068261,67.4054361 161.988379,69.2773966 C160.908496,71.149357 159.711888,72.8896691 158.398517,74.4983851 C157.085146,76.1071011 155.611275,77.4964259 153.976858,78.6664012 C151.992209,80.0703715 149.774106,80.9185909 147.32248,81.2110847 C144.870855,81.5035785 142.623566,80.8893507 140.580545,79.3683828 C138.946129,78.1984076 137.822484,76.7505849 137.209578,75.0248713 C136.596671,73.2991578 136.290223,71.4710989 136.290223,69.5406397 C136.290223,67.6101805 136.494522,65.6797502 136.903126,63.749291 C137.209579,62.3014466 137.548863,60.9358812 137.920982,59.6525721 L138.304048,58.3966809 C138.712652,56.9342118 139.208807,55.4571402 139.792527,53.9654217 C140.181674,52.9709428 140.603245,51.9439749 141.057247,50.8845042 L141.762573,49.2709194 C142.309811,48.0424454 142.906293,46.7399488 143.55203,45.3634072 L144.214186,43.9621832 C145.118952,42.0609734 146.15504,39.9696739 147.32248,37.6882221 C146.505272,37.5712246 145.731854,37.395731 145.002204,37.1617359 C144.272554,36.9277409 143.674249,36.5767535 143.207273,36.1087634 C142.506809,35.3482795 142.360881,34.4561867 142.769485,33.4324584 C143.178089,32.40873 143.907729,31.4581394 144.958425,30.5806579 C146.009122,29.7031765 147.278694,28.9865773 148.767181,28.4308391 C150.255668,27.8751008 151.729539,27.6849827 153.18884,27.860479 C154.006048,26.6905037 154.896208,25.5497949 155.859347,24.4383184 C156.822485,23.3268419 157.858573,22.3323779 158.967641,21.4548964 C159.843222,20.7529112 160.908495,20.1971813 162.163494,19.78769 C163.418492,19.3781986 164.629694,19.2173295 165.797134,19.3050776 C166.964575,19.3928257 168.015255,19.773062 168.949208,20.4457978 C169.88316,21.1185336 170.466872,22.18612 170.70036,23.6485891 C170.933848,25.0525594 170.744142,26.3687618 170.131235,27.5972359 C169.518329,28.8257099 168.803283,29.9664187 167.986074,31.0193964 C168.628167,31.2533915 169.299435,31.4435096 169.999899,31.5897565 C170.466875,31.6872545 170.920875,31.7522526 171.361906,31.7847516 L172.013724,31.8091258 C173.006048,31.8091258 173.677317,32.1747376 174.027549,32.9059721 C174.377781,33.6372067 174.377781,34.3538058 174.027549,35.0557909 Z M188.733303,41.5810255 C185.939326,44.5781384 183.320012,47.7074299 180.875282,50.968994 C178.430552,54.230558 176.335101,57.6242967 174.588866,61.1503119 C173.65754,62.9720864 173.206436,64.1767902 173.23554,64.7644594 C173.264644,65.3521286 173.541127,65.5725012 174.064998,65.4255839 C174.588868,65.2786666 175.243697,64.8819959 176.029503,64.2355598 L178.255942,62.3844111 L178.255942,62.3844111 C180.526048,60.4451027 182.825224,58.3001423 185.153538,55.9494655 C187.481852,53.5987887 189.781027,51.1893812 192.051133,48.7211705 C194.32124,46.2529599 196.547657,43.7554033 198.730451,41.2284257 L205.060523,33.9119808 L205.060523,33.9119808 C206.166472,32.6191086 207.461577,31.9579906 208.945878,31.9286072 C210.430178,31.8992237 211.725283,32.2958945 212.831232,33.1186314 C213.937181,33.9413682 214.708424,35.057923 215.144983,36.468329 C215.581541,37.8787351 215.334162,39.318503 214.402836,40.787676 C213.005848,43.0795859 211.637984,45.4449189 210.299203,47.8837461 C209.406683,49.5096309 208.514171,51.1812063 207.621657,52.898495 L205.267886,57.5168851 L205.267886,57.5168851 L202.091937,63.838885 C200.636741,66.7478476 199.036049,69.8477561 197.289814,73.1387036 C199.792751,71.1406283 201.975513,69.3335726 203.838164,67.7174824 C205.700815,66.1013921 207.359714,64.5881666 208.814911,63.1777605 C210.270107,61.7673544 211.565212,60.4304271 212.700265,59.1669383 C213.835318,57.9034495 214.897595,56.5959052 215.887129,55.244266 C216.411,54.480296 216.963966,53.9954762 217.546044,53.789792 C218.128123,53.5841078 218.622882,53.5987993 219.030337,53.833867 C219.437792,54.0689347 219.67062,54.4949884 219.728828,55.1120411 C219.787036,55.7290938 219.583311,56.5077438 219.117648,57.4480145 C216.440087,62.5607365 213.384221,67.1151045 209.949958,71.111255 C206.92315,74.754804 203.678111,77.9281701 200.214744,80.6314484 C196.751377,83.3347267 192.924268,85.4503041 188.733303,86.978244 C186.521404,89.91659 183.989401,92.4729126 181.137216,94.6472887 C179.973059,95.5287925 178.590643,96.322134 176.989928,97.027337 C175.389212,97.7325401 173.744865,98.2173599 172.056837,98.481811 C170.368809,98.7462621 168.724462,98.7021876 167.123746,98.3495861 C165.52303,97.9969846 164.111511,97.17426 162.889146,95.8813878 C161.899613,94.8235833 161.259336,93.6776455 160.968297,92.4435402 C160.677258,91.2094349 160.662706,89.9753481 160.924641,88.7412428 C161.186577,87.5071375 161.666784,86.3171252 162.365278,85.1711702 C163.063773,84.0252153 163.907774,83.0115011 164.897307,82.1299974 C166.934582,80.4257567 169.190102,79.2504359 171.663936,78.6039998 C174.13777,77.9575637 176.655221,77.8400316 179.216367,78.2514 L180.296844,76.6536829 C180.667917,76.0880555 181.049903,75.4893718 181.442806,74.8576274 C182.228612,73.5941386 182.999854,72.2572113 183.756556,70.8468052 C184.513258,69.4363991 185.255397,67.9966312 185.982995,66.5274582 C186.710594,65.0582852 187.336319,63.6479003 187.860189,62.2962611 L184.193115,66.919233 C183.572236,67.6962571 182.946504,68.4765474 182.315919,69.2601063 C180.424164,71.6107831 178.343265,73.6088284 176.073159,75.2543021 C174.734378,76.2533398 173.220997,76.9144577 171.532969,77.2376757 C169.844941,77.5608938 168.215146,77.3111381 166.643534,76.4884013 C165.362961,75.9007321 164.329787,75.1073906 163.543981,74.1083529 C162.758175,73.1093153 162.176106,72.0074521 161.797755,70.8027302 C161.419404,69.5980084 161.215679,68.3345385 161.186575,67.0122828 C161.157471,65.6900271 161.288437,64.3824828 161.579476,63.0896106 C162.103347,60.3863323 163.034659,57.6243285 164.373439,54.8035163 C165.71222,51.9827042 167.269256,49.2500834 169.044596,46.605572 C170.819935,43.9610606 172.726214,41.492887 174.763488,39.2009771 C176.800763,36.9090673 178.7798,34.911022 180.700659,33.2067813 C182.03944,31.972676 183.436407,31.4731647 184.891604,31.7082323 C186.3468,31.9433 187.569147,32.5750349 188.55868,33.603456 C189.548213,34.6318771 190.130283,35.8953469 190.304907,37.3939034 C190.47953,38.8924598 189.955667,40.2881532 188.733303,41.5810255 Z" id="Tasty" fill="#FFFFFF" transform="translate(115.000000, 59.000000) rotate(-7.000000) translate(-115.000000, -59.000000) "></path>
                <path d="M84.896567,86.7743536 C88.6493892,83.3692047 92.7341305,80.613384 97.1509134,78.5068089 C101.567696,76.4002337 106.229786,74.7121132 111.137323,73.4423966 C113.389016,72.8652528 115.943784,72.3891162 118.801702,72.0139727 C121.65962,71.6388291 124.488629,71.595544 127.288811,71.8841159 C130.088994,72.1726879 132.687063,72.9085353 135.083095,74.0916803 C137.479128,75.2748252 139.31221,77.1360863 140.582396,79.6755194 C140.871074,80.3103777 141.029845,80.930798 141.058713,81.5367991 C141.087581,82.1428002 140.972111,82.6766503 140.7123,83.1383654 C140.452489,83.6000805 140.033912,83.9463616 139.456554,84.1772192 C138.879197,84.4080767 138.157512,84.4657902 137.291476,84.3503615 L133.394334,83.7443634 L133.394334,83.7443634 C131.893205,83.5135059 130.31993,83.3259369 128.674462,83.1816509 C127.028994,83.037365 125.369116,82.9796514 123.694778,83.0085086 C122.020444,83.0373658 120.403868,83.2249348 118.845004,83.5712211 C116.362367,85.6489391 114.067407,87.9719084 111.960053,90.5401986 C109.852699,93.1084889 107.87528,95.7200258 106.027737,98.3748877 L108.895262,98.3941256 C109.38922,98.4005383 109.891197,98.4085542 110.401196,98.4181732 C111.931193,98.4470304 113.461167,98.5913142 114.991163,98.851029 C116.52116,99.1107437 117.993399,99.5435951 119.407924,100.149596 C120.822449,100.755597 122.078183,101.578015 123.175161,102.616874 C123.521576,102.96316 123.738081,103.352727 123.824685,103.785584 C123.911289,104.218442 123.882421,104.622437 123.738082,104.997581 C123.593743,105.372724 123.333936,105.67572 122.958654,105.906578 C122.677192,106.079721 122.322663,106.15547 121.89506,106.133827 L121.443098,106.07972 C119.941969,105.848862 118.238791,105.892148 116.333512,106.209577 C114.428233,106.527006 112.436381,106.974286 110.357895,107.551429 C108.279408,108.128573 106.157652,108.77785 103.992563,109.49928 L99.7586321,110.922894 C99.0690153,111.156956 98.3874159,111.389416 97.7138318,111.620274 C96.3859123,114.159707 95.2600825,116.742387 94.3363109,119.368391 C93.4125393,121.994396 92.9506604,124.663646 92.9506604,127.376223 C92.9506604,128.068795 92.9362267,128.775786 92.9073588,129.497216 C92.878491,130.218646 92.7485875,130.882351 92.5176446,131.488352 C92.2867017,132.094353 91.9258589,132.613775 91.4351052,133.046633 C90.9443516,133.479491 90.2370995,133.695917 89.3133279,133.695917 C88.2740849,133.695917 87.3791946,133.378492 86.6286301,132.743634 C85.8780657,132.108776 85.2429823,131.329643 84.7233586,130.406213 C84.2037392,129.482783 83.7995952,128.516081 83.5109166,127.506079 C83.2222379,126.496078 83.0201659,125.58709 82.9046945,124.779088 C82.5582797,122.008798 82.7314847,119.267405 83.4243134,116.554829 C81.8654488,117.074259 80.4509448,117.50711 79.1807588,117.853396 C77.9683086,118.141968 77.0734183,117.911114 76.496061,117.160827 C75.9187038,116.41054 75.9187038,115.487124 76.496061,114.39055 C78.0549256,111.273973 80.0756457,108.763435 82.5582797,106.85886 C85.040918,104.954285 87.523517,103.453734 90.0061532,102.357161 C91.1031319,100.625729 92.2289617,98.9808935 93.383674,97.422605 C94.7115979,95.5757446 96.1549694,93.7000551 97.7138318,91.7954803 C99.2726985,89.8909055 100.918142,88.0440728 102.650214,86.2549267 L94.2497077,88.2893487 L94.2497077,88.2893487 C91.4783929,88.9530642 88.7071197,89.6889116 85.9358049,90.4969131 C85.1852405,90.7277706 84.6223256,90.742199 84.2470434,90.5401986 C83.8717612,90.3381983 83.6552554,90.0352023 83.5975197,89.6312016 C83.539784,89.2272008 83.6263863,88.7654927 83.8573292,88.2460632 C84.0882721,87.7266337 84.4346812,87.2360687 84.896567,86.7743536 Z M150.613736,94.5639548 C150.035766,96.7597157 149.067682,98.8543246 147.709454,100.847844 C146.351226,102.841364 145.007467,104.762626 143.678138,106.611688 C142.059823,109.038581 140.484881,111.349874 138.953262,113.545635 C137.421643,115.741396 136.193476,118.052688 135.268725,120.479582 C134.632959,122.155294 134.575163,123.296495 135.095335,123.903218 C135.615508,124.509942 136.626939,124.293258 138.129659,123.253161 C139.516786,122.32863 141.07728,121.042974 142.811188,119.396153 C144.545096,117.749332 146.235631,116.088091 147.882844,114.412378 L150.644945,111.567727 L150.644945,111.567727 L152.26094,109.861976 C153.532473,108.504071 154.341618,107.593999 154.688399,107.131734 C155.035181,106.669468 155.468651,106.380557 155.988824,106.264991 C156.508996,106.149424 156.971365,106.192761 157.375943,106.395002 C157.780522,106.597243 158.069502,106.929491 158.242893,107.391757 C158.416284,107.854022 158.329589,108.374063 157.982808,108.951895 L157.261506,110.17227 C156.852307,110.837927 156.370285,111.586791 155.815434,112.418869 C154.890683,113.805665 153.893701,115.221332 152.824457,116.665911 C151.755214,118.110491 150.685987,119.511712 149.616743,120.869617 L146.972547,124.206579 L146.972547,124.206579 C145.874405,125.593375 144.704034,126.965705 143.4614,128.32361 C142.218766,129.681515 140.860558,130.822715 139.386737,131.747246 C137.912915,132.671777 136.352421,133.278491 134.705208,133.567407 C133.057995,133.856323 131.280766,133.625194 129.373467,132.874013 C127.23498,132.122831 125.717834,130.98163 124.821981,129.450376 C123.926128,127.919122 123.434862,126.243435 123.348166,124.423264 C123.261471,122.603094 123.478206,120.739615 123.998379,118.83277 C124.518551,116.925925 125.154308,115.163564 125.905668,113.545635 C126.946013,111.349874 128.130833,109.24082 129.460162,107.218408 L131.47582,104.184806 L131.47582,104.184806 L133.534826,101.151205 C133.843076,100.688939 134.177011,100.207417 134.536634,99.7066332 L135.095335,98.9410089 C135.673305,98.1609359 136.251265,97.3664291 136.829235,96.5574646 C137.407204,95.7485 137.927369,94.9539932 138.389744,94.1739202 C138.85212,93.3938473 139.198896,92.6571228 139.430084,91.9637246 C140.008053,90.172446 141.005036,88.9590174 142.421061,88.3234024 C143.837086,87.6877895 145.224191,87.528886 146.582419,87.8466935 C147.940647,88.164501 149.067671,88.9012255 149.963523,90.0568891 C150.859376,91.2125528 151.076111,92.714893 150.613736,94.5639548 Z M158.108984,79.7657922 C157.879328,81.3796441 157.333905,82.6476515 156.472698,83.5698526 C155.611491,84.4920536 154.635471,85.1260573 153.544608,85.4718827 C152.453746,85.8177081 151.31984,85.8753448 150.142856,85.6447945 C148.965873,85.4142443 147.961147,84.9243323 147.128646,84.175044 C146.296146,83.4257556 145.722016,82.4459317 145.40624,81.2355428 C145.090464,80.0251539 145.219643,78.5842364 145.793782,76.912747 C146.36792,75.2988952 147.401353,74.1605703 148.894112,73.4977383 C150.386871,72.8349063 151.865255,72.6331779 153.329307,72.8925469 C154.79336,73.151916 156.042091,73.8579655 157.07554,75.0107169 C158.108989,76.1634682 158.453466,77.7484774 158.108984,79.7657922 Z M175.181234,94.5098217 L174.948816,95.3488477 C174.910079,95.4759726 174.871343,95.5967415 174.832606,95.7111547 C175.70418,94.6814355 176.604793,93.6803346 177.534472,92.707822 C178.464151,91.7353095 179.422868,90.7914143 180.410652,89.8761084 C181.514646,88.9035958 182.749357,88.002605 184.114823,87.1731089 C185.480289,86.3436129 186.874787,85.7572538 188.298358,85.4140141 C189.721929,85.0707743 191.160004,85.02787 192.612628,85.2852998 C194.065251,85.5427296 195.459749,86.2435002 196.796162,87.3876327 C197.958261,88.3601453 198.757192,89.4756577 199.192979,90.7342034 C199.628766,91.9927491 199.817604,93.2941803 199.759499,94.6385359 C199.701394,95.9828916 199.468978,97.327227 199.062243,98.6715827 C198.655509,100.015938 198.161624,101.288767 197.580575,102.490106 C196.650896,104.492337 195.605023,106.394429 194.442924,108.196438 L190.670771,114.09155 L190.670771,114.09155 L189.95434,115.147008 C189.460448,115.86209 188.937512,116.662971 188.385515,117.549674 C187.833518,118.436377 187.310581,119.337367 186.816689,120.252673 C186.322797,121.167979 186.017751,121.911654 185.901541,122.48372 C185.785331,123.055787 185.901539,123.38472 186.250169,123.47053 C186.548994,123.544081 187.125293,123.333938 187.979077,122.840094 L188.429093,122.56953 C189.649297,121.88305 191.000216,120.867648 192.481892,119.523292 C193.963568,118.178937 195.445222,116.734491 196.926897,115.189912 C197.914681,114.160193 198.870175,113.143197 199.793392,112.138909 L203.339907,108.242775 L203.339907,108.242775 L204.553132,106.9522 C205.076077,106.380134 205.569961,106.036899 206.034801,105.922486 C206.49964,105.808073 206.891842,105.850977 207.21142,106.0512 C207.530997,106.251423 207.719835,106.594658 207.77794,107.080914 C207.836045,107.56717 207.719837,108.096324 207.429312,108.66839 C206.906368,109.755316 206.194593,110.999541 205.293966,112.401104 C204.39334,113.802666 203.420097,115.23281 202.374208,116.691579 C201.328319,118.150348 200.26792,119.580492 199.192979,120.982054 L197.656837,122.944947 C197.170212,123.552763 196.709007,124.114098 196.27322,124.628958 C195.285436,125.830297 194.166933,127.04592 192.917677,128.275862 C191.668421,129.505804 190.332027,130.535508 188.908457,131.365004 C187.484886,132.1945 185.988706,132.723654 184.419873,132.95248 C182.851039,133.181307 181.195074,132.895278 179.451926,132.094385 C177.766882,131.293492 176.503119,130.249487 175.660598,128.962338 C174.818076,127.675189 174.295139,126.259346 174.091772,124.714768 C173.888405,123.170189 173.946509,121.582729 174.266086,119.95234 C174.585663,118.321951 175.065022,116.791697 175.704176,115.361531 C176.517645,113.416506 177.476362,111.557319 178.580356,109.783914 C179.68435,108.010508 180.817379,106.265732 181.979478,104.549534 C182.734842,103.462608 183.533773,102.347096 184.376294,101.202963 C185.218816,100.058831 185.988695,98.9147153 186.685954,97.7705829 C187.325108,96.8552769 187.586576,96.2689178 187.470367,96.011488 C187.354157,95.7540582 187.020058,95.7111539 186.468061,95.8827737 C185.916065,96.0543936 185.233342,96.3833268 184.419873,96.8695831 C183.606404,97.3558393 182.807473,97.8563898 182.023056,98.3712494 C181.500112,98.7144891 181.022365,99.0386569 180.589809,99.3437567 L179.179995,100.358598 C179.059138,100.440975 178.975468,100.493604 178.928984,100.516487 C175.268373,103.262405 171.869285,106.408722 168.731619,109.955533 C166.523631,112.415417 164.519041,115.032581 162.717788,117.807102 C161.216744,120.119203 159.998169,122.560386 159.062038,125.130701 L158.534254,126.688386 C158.34057,127.184177 158.198537,127.654538 158.108153,128.099475 L158.011312,128.747814 C157.953207,129.377087 157.778895,130.006351 157.48837,130.635623 C157.13974,131.37931 156.645856,131.951367 156.006702,132.351814 C155.367547,132.75226 154.670298,132.995384 153.914934,133.081194 C153.15957,133.167004 152.389691,133.109798 151.605275,132.909575 C150.820858,132.709352 150.109083,132.380419 149.469929,131.922766 C147.901096,130.83584 147.029535,129.391395 146.85522,127.589386 C146.680905,125.787377 146.869743,123.885286 147.42174,121.883054 C147.973737,119.880822 148.714564,117.935826 149.644243,116.048008 L151.160774,113.020648 C151.462918,112.43028 151.741819,111.89483 151.997481,111.414294 C152.869055,109.812509 153.856824,108.23935 154.960818,106.694771 C156.064812,105.150193 157.168789,103.577034 158.272783,101.975249 C159.376776,100.373463 160.42265,98.7287974 161.410433,97.0412021 C162.398217,95.3536067 163.240726,93.5945294 163.937986,91.7639175 C164.22851,90.5625784 164.751447,89.6329847 165.506811,88.9751086 C166.262175,88.3172324 167.104684,87.8881892 168.034363,87.687966 C168.964042,87.4877428 169.908233,87.5020442 170.866964,87.7308707 C171.825696,87.9596972 172.682731,88.374439 173.438095,88.9751086 C174.193459,89.5757781 174.745448,90.3480559 175.094077,91.2919652 C175.442707,92.2358745 175.471759,93.3084826 175.181234,94.5098217 Z M242.919444,95.5545874 C239.945609,95.2062118 237.103016,95.4965204 234.391578,96.4255219 C231.68014,97.3545233 229.158249,98.6754274 226.82583,100.388274 C224.49341,102.10112 222.379687,104.046188 220.484596,106.223535 C218.589505,108.400882 216.971414,110.592712 215.630272,112.799091 C213.297853,116.631222 212.175393,119.142391 212.262859,120.332674 C212.350324,121.522957 213.152081,121.711658 214.668154,120.898782 C216.184227,120.085905 218.152176,118.431146 220.572061,115.934455 C222.991947,113.437774 225.397218,110.447585 227.787948,106.963829 L229.012461,105.299378 C229.226265,105.015518 229.444928,104.728432 229.668452,104.438119 C230.339023,103.56718 231.067893,102.768832 231.855084,102.043049 C232.642276,101.317267 233.531498,100.707619 234.522776,100.214087 C235.514054,99.720555 236.592782,99.4157309 237.758992,99.2996057 C239.158443,99.1834806 240.339213,99.3576657 241.301336,99.8221664 C242.263459,100.286667 242.992329,100.939862 243.487968,101.781769 C243.983608,102.623677 244.187691,103.625241 244.100225,104.786493 C244.01276,105.947745 243.590015,107.167041 242.831979,108.444418 L242.219722,109.478651 C242.103102,109.663724 241.979193,109.855148 241.847995,110.052923 L241.432534,110.665301 C240.849429,111.507209 240.251756,112.421681 239.639495,113.408745 C239.027235,114.395809 238.444139,115.397373 237.89019,116.413469 C237.33624,117.429564 236.88434,118.402098 236.534478,119.331099 C236.067994,120.608476 236.184613,121.203609 236.884339,121.116515 C237.584065,121.029421 238.517018,120.49235 239.683228,119.505286 C241.899027,117.647283 243.925286,115.65867 245.762066,113.539385 C247.598846,111.4201 249.362712,109.460517 251.053716,107.660577 C251.403579,107.312201 251.768014,107.108985 252.147033,107.050923 C252.526051,106.99286 252.875908,107.050922 253.196616,107.22511 C253.517324,107.399298 253.76514,107.675091 253.940071,108.052498 C254.115002,108.429904 254.144157,108.879883 254.027536,109.402446 C253.561052,111.434637 252.584366,113.800652 251.097449,116.500562 C249.610532,119.200473 247.846666,121.798735 245.805799,124.295426 C243.764932,126.792118 241.578321,128.969432 239.245902,130.827435 C236.913482,132.685438 234.697717,133.75958 232.598539,134.049893 C231.199088,134.22408 229.887121,134.122472 228.662601,133.745066 C227.438081,133.367659 226.388508,132.772526 225.513851,131.95965 C224.639193,131.146774 223.939478,130.145209 223.414683,128.954926 C222.889889,127.764643 222.627496,126.472769 222.627496,125.079267 C222.627496,123.976078 222.729538,122.872905 222.933624,121.769716 C223.137711,120.666527 223.414682,119.563354 223.764545,118.460165 L222.233902,121.094741 C221.709112,122.00922 221.169744,122.959988 220.615794,123.947052 C219.507895,125.92118 218.254238,127.721094 216.854786,129.346846 C215.455335,130.972599 213.895553,132.220926 212.175393,133.091865 C210.455234,133.962804 208.487284,134.136989 206.271486,133.614425 C203.764135,133.033801 201.985692,131.901596 200.936103,130.217781 C199.886514,128.533966 199.288841,126.632444 199.143064,124.51316 C198.997288,122.393875 199.201372,120.216561 199.755322,117.981151 C200.309271,115.745741 200.965254,113.786158 201.723291,112.102343 C203.647537,107.747649 206.15485,103.726875 209.245306,100.0399 C212.335762,96.3529256 215.863493,93.2030772 219.828606,90.5902607 C221.636232,89.3709463 223.662491,88.282289 225.907444,87.3242563 C228.152398,86.3662235 230.44105,85.7130292 232.77347,85.3646536 C235.105889,85.0162781 237.409119,85.0598244 239.683228,85.4952938 C241.957337,85.9307632 244.056483,86.9323279 245.980729,88.5000178 C246.738766,89.1387063 247.190665,89.8789933 247.336441,90.7209008 C247.482218,91.5628084 247.394753,92.3611571 247.074045,93.1159707 C246.753338,93.8707844 246.228551,94.4949479 245.49967,94.9884799 C244.770789,95.4820119 243.910722,95.6707125 242.919444,95.5545874 Z M270.813681,95.1694016 L270.581263,96.0084276 C270.542527,96.1355526 270.50379,96.2563214 270.465054,96.3707347 C271.336628,95.3410155 272.237241,94.3399146 273.16692,93.367402 C274.096598,92.3948894 275.055316,91.4509943 276.043099,90.5356883 C277.147093,89.5631757 278.381805,88.6621849 279.747271,87.8326889 C281.112737,87.0031929 282.507234,86.4168338 283.930805,86.073594 C285.354376,85.7303543 286.792451,85.68745 288.245075,85.9448798 C289.697698,86.2023096 291.092196,86.9030802 292.428609,88.0472127 C293.590708,89.0197253 294.389639,90.1352377 294.825426,91.3937834 C295.261213,92.6523291 295.450051,93.9537602 295.391946,95.2981159 C295.333841,96.6424715 295.101425,97.986807 294.69469,99.3311626 C294.287956,100.675518 293.794071,101.948347 293.213022,103.149686 C292.283343,105.151917 291.23747,107.054009 290.075371,108.856018 L286.303218,114.75113 L286.303218,114.75113 L285.586787,115.806588 C285.092895,116.52167 284.569959,117.322551 284.017962,118.209254 C283.465965,119.095956 282.943028,119.996947 282.449137,120.912253 C281.955245,121.827559 281.650198,122.571234 281.533988,123.1433 C281.417778,123.715367 281.533987,124.0443 281.882616,124.13011 C282.181442,124.203661 282.75774,123.993518 283.611524,123.499674 L284.06154,123.22911 C285.281744,122.54263 286.632664,121.527228 288.114339,120.182872 C289.596015,118.838517 291.077669,117.394071 292.559345,115.849492 C293.547129,114.819773 294.502623,113.802777 295.425839,112.798489 L298.972354,108.902355 L298.972354,108.902355 L300.185579,107.61178 C300.708524,107.039714 301.202408,106.696479 301.667248,106.582066 C302.132087,106.467653 302.52429,106.510557 302.843867,106.71078 C303.163444,106.911003 303.352282,107.254238 303.410387,107.740494 C303.468492,108.22675 303.352284,108.755904 303.061759,109.32797 C302.538815,110.414896 301.82704,111.659121 300.926414,113.060683 C300.025787,114.462246 299.052544,115.89239 298.006655,117.351159 C296.960766,118.809928 295.900367,120.240072 294.825426,121.641634 L293.289284,123.604527 C292.802659,124.212343 292.341454,124.773678 291.905667,125.288538 C290.917884,126.489877 289.79938,127.7055 288.550124,128.935442 C287.300868,130.165384 285.964475,131.195088 284.540904,132.024584 C283.117333,132.85408 281.621153,133.383234 280.05232,133.61206 C278.483487,133.840887 276.827521,133.554858 275.084373,132.753965 C273.39933,131.953072 272.135566,130.909067 271.293045,129.621918 C270.450523,128.334769 269.927587,126.918926 269.724219,125.374348 C269.520852,123.829769 269.578956,122.242309 269.898533,120.61192 C270.21811,118.981531 270.697469,117.451277 271.336623,116.021111 C272.150092,114.076086 273.108809,112.216899 274.212803,110.443494 C275.316797,108.670088 276.449826,106.925312 277.611925,105.209114 C278.367289,104.122188 279.16622,103.006675 280.008741,101.862543 C280.851263,100.718411 281.621142,99.5742953 282.318401,98.4301628 C282.957555,97.5148568 283.219024,96.9284978 283.102814,96.671068 C282.986604,96.4136382 282.652506,96.3707338 282.100509,96.5423537 C281.548512,96.7139736 280.865789,97.0429067 280.05232,97.529163 C279.238851,98.0154193 278.43992,98.5159697 277.655503,99.0308294 C277.132559,99.3740691 276.654812,99.6982368 276.222256,100.003337 L274.812442,101.018178 C274.691585,101.100555 274.607915,101.153184 274.561431,101.176067 C270.90082,103.921985 267.501732,107.068302 264.364066,110.615113 C262.156078,113.074997 260.151488,115.692161 258.350235,118.466682 C256.849191,120.778783 255.630616,123.219966 254.694486,125.790281 L254.166701,127.347966 C253.973018,127.843757 253.830984,128.314118 253.7406,128.759055 L253.643759,129.407394 C253.585654,130.036667 253.411342,130.665931 253.120817,131.295203 C252.772188,132.038889 252.278303,132.610947 251.639149,133.011393 C250.999994,133.41184 250.302746,133.654964 249.547381,133.740774 C248.792017,133.826584 248.022138,133.769378 247.237722,133.569155 C246.453305,133.368932 245.74153,133.039999 245.102376,132.582346 C243.533543,131.49542 242.661982,130.050975 242.487667,128.248966 C242.313352,126.446957 242.502191,124.544866 243.054187,122.542634 C243.606184,120.540402 244.347011,118.595406 245.27669,116.707587 L246.793221,113.680228 C247.095365,113.08986 247.374266,112.55441 247.629928,112.073874 C248.501502,110.472089 249.489271,108.89893 250.593265,107.354351 C251.697259,105.809773 252.801236,104.236614 253.90523,102.634829 C255.009224,101.033043 256.055097,99.3883774 257.042881,97.700782 C258.030665,96.0131866 258.873173,94.2541094 259.570433,92.4234974 C259.860957,91.2221584 260.383894,90.2925647 261.139258,89.6346885 C261.894622,88.9768123 262.737131,88.5477691 263.66681,88.3475459 C264.596489,88.1473228 265.54068,88.1616242 266.499412,88.3904507 C267.458143,88.6192772 268.315178,89.034019 269.070542,89.6346885 C269.825906,90.2353581 270.377895,91.0076359 270.726524,91.9515452 C271.075154,92.8954544 271.104206,93.9680625 270.813681,95.1694016 Z M330.640855,85.1985742 C332.307875,85.7224015 333.784774,86.5954339 335.071597,87.8176975 C336.358419,89.0399612 337.235785,90.6696216 337.703721,92.7067277 C338.054672,94.2782095 338.09854,95.8787688 337.835327,97.5084537 C337.572113,99.1381386 337.074939,100.695046 336.34379,102.179224 C335.612641,103.663401 334.676784,105.031152 333.536191,106.282517 C332.395598,107.533882 331.123418,108.508768 329.719611,109.207204 C328.78374,109.672829 327.891752,109.774682 327.043619,109.512769 C326.195485,109.250855 325.493593,108.799788 324.937919,108.159555 C324.382246,107.519322 324.060545,106.733593 323.972807,105.802344 C323.885069,104.871096 324.162902,103.998063 324.806313,103.183221 C325.215757,102.717597 325.698308,102.00462 326.253981,101.04427 C326.809655,100.08392 327.204469,99.109034 327.438437,98.1195825 C327.613913,97.3629431 327.526176,96.8245731 327.175225,96.5044565 C326.824273,96.1843398 326.327099,96.1115871 325.683688,96.2861962 C325.040277,96.4608053 324.26527,96.8391193 323.358645,97.4211496 C322.45202,98.0031799 321.530786,98.759808 320.594915,99.6910565 C319.425076,100.855117 318.313746,102.077362 317.260891,103.357829 C316.208036,104.638296 315.242934,105.976945 314.365555,107.373818 L313.470634,108.94529 C313.236667,109.364349 312.979304,109.829971 312.698543,110.342158 C311.99664,111.622625 311.411729,112.975825 310.943794,114.401799 C310.475858,115.827773 310.227271,117.210074 310.198025,118.548744 C310.168779,119.887414 310.592839,120.935053 311.470218,121.691692 C312.523073,122.622941 313.839122,123.044906 315.418404,122.957602 C316.997687,122.870297 318.693927,122.448332 320.507177,121.691692 C322.320427,120.935053 324.192141,119.945616 326.122375,118.723352 C328.052609,117.501089 329.880455,116.19154 331.605967,114.794667 C333.331479,113.397795 334.896115,111.986392 336.299921,110.560418 C337.422966,109.419639 338.358827,108.399933 339.107519,107.501283 L339.633945,106.849993 C339.734745,106.712078 339.836224,106.587666 339.938381,106.476759 C340.124803,106.051376 340.320446,105.627831 340.524356,105.207244 C341.530334,103.132304 342.608152,101.259123 343.757842,99.5876434 C344.907531,97.9738014 346.186542,96.3743928 347.594912,94.7893694 C349.003281,93.204346 350.540968,91.7634373 352.208018,90.4666 C353.875068,89.1697627 355.642689,88.0746721 357.510935,87.1812953 C359.37918,86.2879185 361.347994,85.7259641 363.417435,85.4954153 C365.831783,85.2072292 368.174241,85.5674564 370.444878,86.5761076 C372.715514,87.5847588 374.483136,89.1841675 375.747794,91.3743816 C376.954968,93.4493213 377.515434,95.5818662 377.429207,97.7720803 C377.34298,99.9622944 376.825628,102.066021 375.877134,104.083324 C374.92864,106.100626 373.649629,107.959398 372.040064,109.659696 C370.430498,111.359994 368.734732,112.728857 366.952713,113.766327 C364.021005,115.495443 361.103711,116.460852 358.200745,116.662582 C355.297779,116.864313 352.380485,116.532904 349.448777,115.668345 C348.988901,116.994001 348.744596,118.233183 348.715853,119.385927 C348.687111,120.538671 349.075125,121.432035 349.879908,122.066044 C351.259536,123.103514 352.825964,123.607832 354.579241,123.579013 C356.332517,123.550195 358.157622,123.189968 360.05461,122.498321 C361.951598,121.806675 363.862928,120.870084 365.788658,119.688521 C367.714388,118.506958 369.539493,117.253368 371.264027,115.927712 C372.988562,114.602056 374.540619,113.290829 375.920247,111.993992 C377.023949,110.956522 377.94369,110.038948 378.679487,109.241253 L379.196846,108.665459 C379.77169,107.973813 380.346527,107.584767 380.921371,107.498311 C381.496216,107.411856 381.970456,107.527128 382.344105,107.844133 C382.717754,108.161138 382.947689,108.651047 383.033915,109.313874 C383.120142,109.976702 382.990804,110.682748 382.645897,111.432031 C379.484251,117.829762 375.374172,123.103488 370.315538,127.253367 C368.705973,128.521386 366.967093,129.688522 365.098848,130.754811 C363.230602,131.821099 361.29053,132.671235 359.278573,133.305245 C357.266617,133.939254 355.225948,134.299481 353.156507,134.385937 C351.087066,134.472393 349.017656,134.140984 346.948214,133.3917 C344.476382,132.527142 342.507568,131.316778 341.041714,129.760574 C339.57586,128.204369 338.526784,126.460869 337.894454,124.530023 C337.361648,122.903075 337.083929,121.173846 337.06129,119.342296 C337.49365,118.797366 337.911807,118.241402 338.317883,117.675703 C339.13677,116.511642 339.926399,115.318498 340.686794,114.096235 C341.44719,112.873971 342.061346,111.564422 342.529281,110.16755 C342.821741,109.294504 342.9241,108.508775 342.836362,107.810339 C342.748624,107.111902 342.558528,106.588083 342.266069,106.238865 C341.973609,105.889647 341.578794,105.744141 341.081613,105.802344 C340.691532,105.848009 340.310457,106.072813 339.938381,106.476759 C339.200392,108.155513 338.591261,109.878932 338.11002,111.64817 C337.506433,113.867203 337.161531,116.086202 337.075305,118.305235 C337.061733,118.654492 337.057062,119.000179 337.06129,119.342296 C335.324621,121.551171 333.388501,123.599765 331.255017,125.489421 C328.593634,127.846644 325.683704,129.752764 322.525139,131.20784 C319.893002,132.430104 317.129299,133.186732 314.233949,133.477747 C311.338598,133.768762 308.54565,133.244943 305.855021,131.906273 C303.281375,130.567603 301.321925,128.690584 299.97661,126.275158 C298.631296,123.859732 297.929403,121.226084 297.870911,118.374136 C297.812419,115.172969 298.368084,111.899098 299.537923,108.552424 C300.707762,105.205749 302.316266,102.048282 304.363484,99.0799277 C306.410702,96.1115731 308.779589,93.4633749 311.470218,91.1352537 C314.160847,88.8071325 316.997664,87.0319667 319.980753,85.809703 C321.618527,85.1112666 323.387881,84.7038515 325.288869,84.5874455 C327.189857,84.4710394 328.973834,84.674747 330.640855,85.1985742 Z M365.478589,96.3579778 C364.949571,96.1487493 364.332394,96.1636939 363.627037,96.4028122 C362.627782,96.7017101 361.672626,97.2247734 360.76154,97.972018 C359.850455,98.7192626 359.042246,99.421662 358.336889,100.079237 C357.102515,101.274829 355.956328,102.56007 354.898293,103.935 C353.840258,105.30993 352.870407,106.714729 351.988711,108.149439 C353.869662,108.328777 355.633027,108.119552 357.278859,107.521756 C359.571268,106.625063 361.540359,105.160485 363.186191,103.12798 C363.433066,102.841038 363.711679,102.468017 364.022034,102.008913 L364.022034,102.008913 L364.685067,100.975926 C365.272864,100.019453 365.654926,99.0928838 365.831265,98.1961903 L365.831265,98.1961903 L365.932031,97.7853588 C366.083179,97.0131063 365.932032,96.5373165 365.478589,96.3579778 Z" id="Finance" fill="#FFFFFF" transform="translate(229.500000, 103.000000) rotate(-7.000000) translate(-229.500000, -103.000000) "></path>
                <path d="M5.54234862,28.0277355 C10.2316023,24.4832645 15.2285132,21.5443515 20.5332314,19.2109081 C25.8379496,16.8774647 31.3330863,15.0904874 37.0188064,13.8499225 C39.3048176,13.3773264 41.9424832,12.9785794 44.9318824,12.6536696 C47.9212816,12.3287597 50.8813286,12.3287597 53.8121121,12.6536696 C56.7428956,12.9785794 59.4538297,13.7317682 61.9449957,14.9132585 C64.4361617,16.0947488 66.3851035,17.9555682 67.7918796,20.4957724 C68.1435737,21.145592 68.3633791,21.8101704 68.4513026,22.4895273 C68.5392262,23.1688843 68.4659577,23.774389 68.2314946,24.3060596 C67.9970323,24.8377302 67.5720751,25.2217088 66.9566105,25.4580069 C66.341146,25.694305 65.5058852,25.7238418 64.4508031,25.5466182 C62.9854114,25.2512457 61.3881583,24.9706459 59.658996,24.7048106 C57.9298337,24.4389753 56.1420826,24.246986 54.295689,24.1288369 C52.4492953,24.0106879 50.5882757,23.9811511 48.7125742,24.0402256 C46.8368728,24.0993001 45.0198142,24.3060578 43.2613441,24.6605049 C40.5064076,27.9096033 38.0299327,31.2620318 35.831845,34.717891 C33.6337574,38.1737502 31.5089712,41.5852523 29.4574227,44.9524997 C28.3437249,46.8428843 27.2446976,48.7627772 26.1603077,50.7122363 C25.0759178,52.6616953 24.0794663,54.6554303 23.1709234,56.6935011 C22.2623805,58.7315719 21.4710809,60.799149 20.7970006,62.8962943 C20.1229204,64.9934396 19.6393484,67.1348587 19.3462701,69.3206158 L19.1704239,71.1814537 L19.1704239,71.1814537 C19.1118082,71.8312734 18.979925,72.4515465 18.7747701,73.0422917 C18.5696153,73.6330368 18.2618876,74.1351627 17.8515779,74.5486843 C17.4412682,74.9622059 16.8551203,75.2280373 16.0931166,75.3461863 C14.9794188,75.5234098 13.9976211,75.3314205 13.1476939,74.7702126 C12.2977666,74.2090047 11.5797354,73.4705844 10.9935787,72.5549294 C10.407422,71.6392744 9.9385037,70.6350227 9.58680968,69.5421441 C9.23511565,68.4492656 9.00065649,67.4893191 8.88342476,66.6622758 C8.59034679,64.1811462 8.72223007,61.7295905 9.27907895,59.3075354 C9.83592782,56.8854802 10.6418812,54.5077666 11.6969633,52.1743232 C12.7520453,49.8408798 13.982956,47.5960819 15.3897321,45.4398621 C16.7965082,43.2836422 18.1739558,41.2603704 19.5221162,39.3699859 C21.2805863,36.8888562 23.1562596,34.525911 25.1491924,32.2810794 L27.4281604,29.7290706 C28.5113704,28.5239589 29.510172,27.4251834 30.4245764,26.4327315 C26.4387108,27.2007003 22.4968661,28.0572679 18.598924,29.0024601 C14.7009819,29.9476524 10.7884446,30.8632937 6.86119462,31.7494114 C6.15780657,31.926635 5.61561975,31.8823297 5.23461789,31.6164944 C4.85361603,31.3506591 4.61915687,31.0109857 4.53123336,30.5974641 C4.44330985,30.1839425 4.48727154,29.7261219 4.66311796,29.2239885 C4.83896497,28.7218551 5.13203893,28.3231081 5.54234862,28.0277355 Z M90.71756,36.7182043 C87.7437251,36.3627191 84.9011315,36.6589523 82.1896938,37.606913 C79.4782562,38.5548737 76.9563654,39.902735 74.6239459,41.6505375 C72.2915264,43.39834 70.177803,45.3831029 68.2827121,47.6048857 C66.3876213,49.8266685 64.7695295,52.0632296 63.4283883,54.3146362 C61.0959688,58.224974 59.9735088,60.7873917 60.0609745,62.0019663 C60.1484402,63.2165409 60.9501974,63.4090925 62.4662701,62.579627 C63.9823428,61.7501614 65.9502922,60.0616318 68.3701774,57.5139875 C70.7900626,54.9663544 73.1953342,51.9151405 75.5860641,48.360288 L76.8105774,46.6618681 C77.0243811,46.3722153 77.2430444,46.0792706 77.466568,45.7830329 C78.1371386,44.8943197 78.8660087,44.0796783 79.6532003,43.339084 C80.4403919,42.5984897 81.3296135,41.9763999 82.3208918,41.4727958 C83.3121701,40.9691917 84.3908979,40.6581467 85.5571076,40.5396516 C86.9565593,40.4211566 88.137329,40.5988965 89.099452,41.0728769 C90.0615751,41.5468572 90.7904452,42.213382 91.2860844,43.0724714 C91.7817235,43.9315607 91.9858072,44.9535655 91.8983414,46.1385163 C91.8108757,47.3234672 91.388131,48.5676469 90.6300947,49.8710928 L90.0178381,50.9264322 C89.901218,51.1152826 89.777309,51.3106134 89.6461111,51.5124246 L89.23065,52.1372999 C88.6475451,52.9963893 88.0498716,53.9295241 87.4376115,54.9367323 C86.8253513,55.9439405 86.2422552,56.9659453 85.6883056,58.0027772 C85.134356,59.0396092 84.6824565,60.0319907 84.3325935,60.9799513 C83.8661096,62.2833972 83.9827289,62.8906754 84.6824547,62.8018041 C85.3821806,62.7129328 86.3151344,62.1649013 87.4813441,61.1576931 C89.6971426,59.2617717 91.7234017,57.2325739 93.560182,55.0700386 C95.3969624,52.9075033 97.1608282,50.9079288 98.8518323,49.071255 C99.2016952,48.7157697 99.5661303,48.5084065 99.9451485,48.4491589 C100.324167,48.3899114 100.674024,48.449158 100.994732,48.6269006 C101.31544,48.8046433 101.563256,49.0860649 101.738187,49.4711739 C101.913118,49.8562829 101.942273,50.3154445 101.825652,50.8486724 C101.359168,52.9223363 100.382482,55.3366374 98.8955649,58.0916481 C97.4086475,60.8466588 95.6447817,63.4979465 93.6039147,66.0455908 C91.5630476,68.5932351 89.3764371,70.8149846 87.0440176,72.7109059 C84.7115981,74.6068273 82.4958329,75.7028903 80.3966553,75.999128 C78.9972036,76.1768707 77.6852373,76.073189 76.4607171,75.68808 C75.2361969,75.302971 74.1866238,74.6956928 73.3119665,73.8662272 C72.4373092,73.0367616 71.7375938,72.0147569 71.2127995,70.8001823 C70.6880051,69.5856077 70.4256118,68.2673696 70.4256118,66.8454286 C70.4256118,65.7197253 70.5276536,64.5940389 70.7317403,63.4683356 C70.9358271,62.3426323 71.2127977,61.2169459 71.5626606,60.0912426 L70.0320182,62.7795858 C69.5072278,63.7127276 68.9678597,64.6828991 68.4139101,65.6901073 C67.3060108,67.7045238 66.0523541,69.54117 64.6529024,71.2001012 C63.2534507,72.8590323 61.6936686,74.1328354 59.9735092,75.0215485 C58.2533498,75.9102616 56.2854004,76.0880016 54.0696019,75.5547737 C51.5622509,74.9622998 49.7838077,73.8069886 48.734219,72.0888098 C47.6846302,70.3706311 47.0869567,68.4303033 46.9411804,66.267768 C46.7954042,64.1052327 46.9994879,61.8834832 47.5534375,59.6024529 C48.1073871,57.3214225 48.7633703,55.321848 49.5214066,53.6036693 C51.4456527,49.1601036 53.952966,45.0572729 57.0434219,41.295054 C60.1338777,37.5328351 63.6616093,34.3187042 67.6267224,31.6525648 C69.4343475,30.4083664 71.4606066,29.2974917 73.7055603,28.3199073 C75.9505141,27.3423228 78.2391664,26.675798 80.5715859,26.3203127 C82.9040054,25.9648275 85.2072351,26.0092625 87.4813441,26.453619 C89.7554531,26.8979756 91.8545992,27.9199804 93.7788453,29.519664 C94.5368816,30.1713869 94.9887811,30.9267818 95.1345573,31.7858711 C95.2803335,32.6449605 95.1928691,33.459602 94.8721614,34.22982 C94.5514537,35.000038 94.0266672,35.6369396 93.2977861,36.1405437 C92.568905,36.6441478 91.7088383,36.8366994 90.71756,36.7182043 Z M119.918892,42.5766061 C120.857547,40.9942265 121.414866,39.8074596 121.590864,39.0162698 C121.766861,38.22508 121.664198,37.6976281 121.282869,37.4338981 C120.90154,37.1701682 120.329556,37.1262139 119.566898,37.3020338 C118.804241,37.4778538 117.968263,37.7855341 117.058941,38.225084 C116.149618,38.6646339 115.24031,39.1481315 114.330987,39.6755913 C113.421665,40.2030512 112.673685,40.7012003 112.087025,41.1700535 C109.975051,42.6938264 108.596421,43.9978049 107.951096,45.0820279 C107.30577,46.166251 107.129775,46.9427775 107.423105,47.4116307 C107.599102,47.704664 107.951093,47.8658298 108.479087,47.8951332 C109.00708,47.9244365 109.623064,47.9244365 110.327055,47.8951332 C111.031047,47.8658298 111.720362,47.7925726 112.39502,47.6753593 C113.069679,47.558146 113.612331,47.4995402 114.022992,47.4995402 C116.017635,47.3237203 117.792254,47.5581434 119.346902,48.2028166 C120.90155,48.8474897 122.148183,49.7558792 123.086838,50.9280122 C124.025493,52.1001453 124.656143,53.4920324 124.978806,55.1037153 C125.301469,56.7153982 125.286802,58.4296171 124.934807,60.2464233 C126.04946,59.6017501 127.120098,58.7812693 128.146752,57.7849562 C129.173406,56.7886431 130.126714,55.7630421 131.006703,54.7081224 C131.886693,53.6532026 132.678671,52.6129502 133.382663,51.5873338 C134.086654,50.5617174 134.702638,49.7265851 135.230631,49.0819119 C135.875957,48.2614188 136.506607,47.7632697 137.122599,47.5874498 C137.738592,47.4116298 138.222579,47.4702356 138.574574,47.7632689 C138.92657,48.0563021 139.131898,48.5251483 139.190564,49.1698215 C139.237497,49.68556 139.096701,50.2763077 138.768172,50.9420764 L138.486576,51.4554695 C136.315935,55.4993284 133.94,59.2061436 131.358697,62.576026 C128.777395,65.9459085 125.785476,68.8615457 122.38285,71.3230251 C120.974867,72.3193382 119.288246,73.1837733 117.322936,73.9163565 C115.357627,74.6489396 113.304349,75.2056945 111.163041,75.5866377 C109.021734,75.9675809 106.924457,76.1433983 104.871148,76.1140949 C102.81784,76.0847916 100.999214,75.8064142 99.4152411,75.2789543 C98.5939177,74.9859211 97.7579402,74.5903321 96.9072838,74.0921756 C96.0566274,73.594019 95.279315,73.0079613 94.5753235,72.3339848 C93.871332,71.6600083 93.2993474,70.8981332 92.8593527,70.0483368 C92.419358,69.1985403 92.199364,68.2754994 92.199364,67.2791863 C92.199364,66.0484467 92.5513544,64.934937 93.255346,63.9386239 C93.9593375,62.9423108 94.8246475,62.1950872 95.8513018,61.6969307 C96.8779561,61.1987741 97.9632601,60.9790025 99.1072464,61.0376091 C100.251233,61.0962158 101.292538,61.5064562 102.231193,62.2683427 C103.58051,63.4404757 105.017805,64.3488652 106.54312,64.9935383 C106.895116,64.9349317 107.613763,64.5100398 108.699083,63.71885 C109.784403,62.9276602 110.869707,62.0046193 111.955028,60.9496996 C113.040348,59.8947799 113.964323,58.8691788 114.72698,57.8728658 C115.489638,56.8765527 115.724298,56.1146776 115.430968,55.5872178 C115.196305,55.2355779 114.785649,55.074412 114.198989,55.1037153 C113.61233,55.1330186 113.143009,55.2062758 112.791013,55.3234891 C111.38303,55.6165224 109.916403,55.733734 108.391088,55.6751273 C106.865773,55.6165206 105.428479,55.3527947 104.079162,54.8839415 C102.729845,54.4150882 101.541877,53.6971675 100.515222,52.7301578 C99.4885681,51.763148 98.7699208,50.4591696 98.3592591,48.8181833 C97.8312654,47.0013771 97.7432678,45.1992496 98.0952636,43.4117467 C98.4472594,41.6242438 99.0925752,39.910025 100.031231,38.2690387 C100.969886,36.6280525 102.099189,35.1336053 103.419173,33.7856523 C104.739157,32.4376993 106.10312,31.2655838 107.511103,30.2692708 C108.919086,29.3315643 110.547042,28.4817806 112.39502,27.7198942 C114.242998,26.9580077 116.120281,26.4598586 118.026924,26.225432 C119.933568,25.9910054 121.781518,26.1375198 123.57083,26.6649797 C125.360142,27.1924396 126.9001,28.2473435 128.190751,29.8297231 C129.305404,31.2362827 129.906722,32.7453814 129.994721,34.3570643 C130.082719,35.9687472 129.818727,37.5071487 129.202734,38.972315 C128.586741,40.4374813 127.677433,41.7561112 126.47478,42.9282443 C125.272128,44.1003773 123.908165,44.9794639 122.38285,45.5655304 C121.209531,45.9171703 120.358887,45.7706559 119.830894,45.1259827 C119.3029,44.4813095 119.332232,43.6315258 119.918892,42.5766061 Z M169.027549,29.0557909 C168.385456,30.2257662 167.524482,31.1471079 166.444599,31.8198437 C165.364717,32.4925795 164.182701,33.004436 162.898517,33.3554286 C161.614332,33.7064212 160.286388,33.9111638 158.914646,33.9696625 C157.542903,34.0281613 156.244145,34.0281613 155.018333,33.9696625 L153.914035,35.890262 C153.503051,36.6191033 153.049183,37.4365874 152.552426,38.3427185 L152.041374,39.2783988 C150.815562,41.5306012 149.589767,43.9290145 148.363955,46.4737107 C147.138142,49.0184069 145.985312,51.563065 144.90543,54.1077612 C144.005528,56.2283414 143.338716,58.094998 142.904982,59.7077688 L142.672711,60.6449654 C142.147363,62.5169258 142.161955,63.7307569 142.71649,64.2864952 C143.271024,64.8422334 144.394669,64.5643685 146.087457,63.452892 C147.371642,62.6339093 148.641214,61.6101963 149.896213,60.3817222 C151.151212,59.1532482 152.34782,57.8809192 153.486075,56.564697 C154.624329,55.2484748 155.704195,53.9468968 156.725706,52.6599241 L159.396213,49.2377635 C159.979933,48.4187808 160.578237,47.9215488 161.191143,47.7460525 C161.80405,47.5705562 162.300204,47.6144296 162.679623,47.877674 C163.059041,48.1409185 163.292525,48.5942771 163.380083,49.2377635 C163.467641,49.8812499 163.307121,50.6124735 162.898517,51.4314562 L160.052895,57.4421741 L160.052895,57.4421741 C159.089756,59.4603814 158.068261,61.4054361 156.988379,63.2773966 C155.908496,65.149357 154.711888,66.8896691 153.398517,68.4983851 C152.085146,70.1071011 150.611275,71.4964259 148.976858,72.6664012 C146.992209,74.0703715 144.774106,74.9185909 142.32248,75.2110847 C139.870855,75.5035785 137.623566,74.8893507 135.580545,73.3683828 C133.946129,72.1984076 132.822484,70.7505849 132.209578,69.0248713 C131.596671,67.2991578 131.290223,65.4710989 131.290223,63.5406397 C131.290223,61.6101805 131.494522,59.6797502 131.903126,57.749291 C132.209579,56.3014466 132.548863,54.9358812 132.920982,53.6525721 L133.304048,52.3966809 C133.712652,50.9342118 134.208807,49.4571402 134.792527,47.9654217 C135.181674,46.9709428 135.603245,45.9439749 136.057247,44.8845042 L136.762573,43.2709194 C137.309811,42.0424454 137.906293,40.7399488 138.55203,39.3634072 L139.214186,37.9621832 C140.118952,36.0609734 141.15504,33.9696739 142.32248,31.6882221 C141.505272,31.5712246 140.731854,31.395731 140.002204,31.1617359 C139.272554,30.9277409 138.674249,30.5767535 138.207273,30.1087634 C137.506809,29.3482795 137.360881,28.4561867 137.769485,27.4324584 C138.178089,26.40873 138.907729,25.4581394 139.958425,24.5806579 C141.009122,23.7031765 142.278694,22.9865773 143.767181,22.4308391 C145.255668,21.8751008 146.729539,21.6849827 148.18884,21.860479 C149.006048,20.6905037 149.896208,19.5497949 150.859347,18.4383184 C151.822485,17.3268419 152.858573,16.3323779 153.967641,15.4548964 C154.843222,14.7529112 155.908495,14.1971813 157.163494,13.78769 C158.418492,13.3781986 159.629694,13.2173295 160.797134,13.3050776 C161.964575,13.3928257 163.015255,13.773062 163.949208,14.4457978 C164.88316,15.1185336 165.466872,16.18612 165.70036,17.6485891 C165.933848,19.0525594 165.744142,20.3687618 165.131235,21.5972359 C164.518329,22.8257099 163.803283,23.9664187 162.986074,25.0193964 C163.628167,25.2533915 164.299435,25.4435096 164.999899,25.5897565 C165.466875,25.6872545 165.920875,25.7522526 166.361906,25.7847516 L167.013724,25.8091258 C168.006048,25.8091258 168.677317,26.1747376 169.027549,26.9059721 C169.377781,27.6372067 169.377781,28.3538058 169.027549,29.0557909 Z M183.733303,35.5810255 C180.939326,38.5781384 178.320012,41.7074299 175.875282,44.968994 C173.430552,48.230558 171.335101,51.6242967 169.588866,55.1503119 C168.65754,56.9720864 168.206436,58.1767902 168.23554,58.7644594 C168.264644,59.3521286 168.541127,59.5725012 169.064998,59.4255839 C169.588868,59.2786666 170.243697,58.8819959 171.029503,58.2355598 L173.255942,56.3844111 L173.255942,56.3844111 C175.526048,54.4451027 177.825224,52.3001423 180.153538,49.9494655 C182.481852,47.5987887 184.781027,45.1893812 187.051133,42.7211705 C189.32124,40.2529599 191.547657,37.7554033 193.730451,35.2284257 L200.060523,27.9119808 L200.060523,27.9119808 C201.166472,26.6191086 202.461577,25.9579906 203.945878,25.9286072 C205.430178,25.8992237 206.725283,26.2958945 207.831232,27.1186314 C208.937181,27.9413682 209.708424,29.057923 210.144983,30.468329 C210.581541,31.8787351 210.334162,33.318503 209.402836,34.787676 C208.005848,37.0795859 206.637984,39.4449189 205.299203,41.8837461 C204.406683,43.5096309 203.514171,45.1812063 202.621657,46.898495 L200.267886,51.5168851 L200.267886,51.5168851 L197.091937,57.838885 C195.636741,60.7478476 194.036049,63.8477561 192.289814,67.1387036 C194.792751,65.1406283 196.975513,63.3335726 198.838164,61.7174824 C200.700815,60.1013921 202.359714,58.5881666 203.814911,57.1777605 C205.270107,55.7673544 206.565212,54.4304271 207.700265,53.1669383 C208.835318,51.9034495 209.897595,50.5959052 210.887129,49.244266 C211.411,48.480296 211.963966,47.9954762 212.546044,47.789792 C213.128123,47.5841078 213.622882,47.5987993 214.030337,47.833867 C214.437792,48.0689347 214.67062,48.4949884 214.728828,49.1120411 C214.787036,49.7290938 214.583311,50.5077438 214.117648,51.4480145 C211.440087,56.5607365 208.384221,61.1151045 204.949958,65.111255 C201.92315,68.754804 198.678111,71.9281701 195.214744,74.6314484 C191.751377,77.3347267 187.924268,79.4503041 183.733303,80.978244 C181.521404,83.91659 178.989401,86.4729126 176.137216,88.6472887 C174.973059,89.5287925 173.590643,90.322134 171.989928,91.027337 C170.389212,91.7325401 168.744865,92.2173599 167.056837,92.481811 C165.368809,92.7462621 163.724462,92.7021876 162.123746,92.3495861 C160.52303,91.9969846 159.111511,91.17426 157.889146,89.8813878 C156.899613,88.8235833 156.259336,87.6776455 155.968297,86.4435402 C155.677258,85.2094349 155.662706,83.9753481 155.924641,82.7412428 C156.186577,81.5071375 156.666784,80.3171252 157.365278,79.1711702 C158.063773,78.0252153 158.907774,77.0115011 159.897307,76.1299974 C161.934582,74.4257567 164.190102,73.2504359 166.663936,72.6039998 C169.13777,71.9575637 171.655221,71.8400316 174.216367,72.2514 L175.296844,70.6536829 C175.667917,70.0880555 176.049903,69.4893718 176.442806,68.8576274 C177.228612,67.5941386 177.999854,66.2572113 178.756556,64.8468052 C179.513258,63.4363991 180.255397,61.9966312 180.982995,60.5274582 C181.710594,59.0582852 182.336319,57.6479003 182.860189,56.2962611 L179.193115,60.919233 C178.572236,61.6962571 177.946504,62.4765474 177.315919,63.2601063 C175.424164,65.6107831 173.343265,67.6088284 171.073159,69.2543021 C169.734378,70.2533398 168.220997,70.9144577 166.532969,71.2376757 C164.844941,71.5608938 163.215146,71.3111381 161.643534,70.4884013 C160.362961,69.9007321 159.329787,69.1073906 158.543981,68.1083529 C157.758175,67.1093153 157.176106,66.0074521 156.797755,64.8027302 C156.419404,63.5980084 156.215679,62.3345385 156.186575,61.0122828 C156.157471,59.6900271 156.288437,58.3824828 156.579476,57.0896106 C157.103347,54.3863323 158.034659,51.6243285 159.373439,48.8035163 C160.71222,45.9827042 162.269256,43.2500834 164.044596,40.605572 C165.819935,37.9610606 167.726214,35.492887 169.763488,33.2009771 C171.800763,30.9090673 173.7798,28.911022 175.700659,27.2067813 C177.03944,25.972676 178.436407,25.4731647 179.891604,25.7082323 C181.3468,25.9433 182.569147,26.5750349 183.55868,27.603456 C184.548213,28.6318771 185.130283,29.8953469 185.304907,31.3939034 C185.47953,32.8924598 184.955667,34.2881532 183.733303,35.5810255 Z" id="Tasty-Copy" fill="#000000" transform="translate(110.000000, 53.000000) rotate(-7.000000) translate(-110.000000, -53.000000) "></path>
                <path d="M79.896567,80.7743536 C83.6493892,77.3692047 87.7341305,74.613384 92.1509134,72.5068089 C96.5676964,70.4002337 101.229786,68.7121132 106.137323,67.4423966 C108.389016,66.8652528 110.943784,66.3891162 113.801702,66.0139727 C116.65962,65.6388291 119.488629,65.595544 122.288811,65.8841159 C125.088994,66.1726879 127.687063,66.9085353 130.083095,68.0916803 C132.479128,69.2748252 134.31221,71.1360863 135.582396,73.6755194 C135.871074,74.3103777 136.029845,74.930798 136.058713,75.5367991 C136.087581,76.1428002 135.972111,76.6766503 135.7123,77.1383654 C135.452489,77.6000805 135.033912,77.9463616 134.456554,78.1772192 C133.879197,78.4080767 133.157512,78.4657902 132.291476,78.3503615 L128.394334,77.7443634 L128.394334,77.7443634 C126.893205,77.5135059 125.31993,77.3259369 123.674462,77.1816509 C122.028994,77.037365 120.369116,76.9796514 118.694778,77.0085086 C117.020444,77.0373658 115.403868,77.2249348 113.845004,77.5712211 C111.362367,79.6489391 109.067407,81.9719084 106.960053,84.5401986 C104.852699,87.1084889 102.87528,89.7200258 101.027737,92.3748877 L103.895262,92.3941256 C104.38922,92.4005383 104.891197,92.4085542 105.401196,92.4181732 C106.931193,92.4470304 108.461167,92.5913142 109.991163,92.851029 C111.52116,93.1107437 112.993399,93.5435951 114.407924,94.1495962 C115.822449,94.7555973 117.078183,95.578015 118.175161,96.616874 C118.521576,96.9631603 118.738081,97.3527266 118.824685,97.7855845 C118.911289,98.2184424 118.882421,98.6224371 118.738082,98.9975806 C118.593743,99.3727241 118.333936,99.6757201 117.958654,99.9065776 C117.677192,100.079721 117.322663,100.15547 116.89506,100.133827 L116.443098,100.07972 C114.941969,99.8488624 113.238791,99.8921475 111.333512,100.209577 C109.428233,100.527006 107.436381,100.974286 105.357895,101.551429 C103.279408,102.128573 101.157652,102.77785 98.9925626,103.49928 L94.7586321,104.922894 C94.0690153,105.156956 93.3874159,105.389416 92.7138318,105.620274 C91.3859123,108.159707 90.2600825,110.742387 89.3363109,113.368391 C88.4125393,115.994396 87.9506604,118.663646 87.9506604,121.376223 C87.9506604,122.068795 87.9362267,122.775786 87.9073588,123.497216 C87.878491,124.218646 87.7485875,124.882351 87.5176446,125.488352 C87.2867017,126.094353 86.9258589,126.613775 86.4351052,127.046633 C85.9443516,127.479491 85.2370995,127.695917 84.3133279,127.695917 C83.2740849,127.695917 82.3791946,127.378492 81.6286301,126.743634 C80.8780657,126.108776 80.2429823,125.329643 79.7233586,124.406213 C79.2037392,123.482783 78.7995952,122.516081 78.5109166,121.506079 C78.2222379,120.496078 78.0201659,119.58709 77.9046945,118.779088 C77.5582797,116.008798 77.7314847,113.267405 78.4243134,110.554829 C76.8654488,111.074259 75.4509448,111.50711 74.1807588,111.853396 C72.9683086,112.141968 72.0734183,111.911114 71.496061,111.160827 C70.9187038,110.41054 70.9187038,109.487124 71.496061,108.39055 C73.0549256,105.273973 75.0756457,102.763435 77.5582797,100.85886 C80.040918,98.9542855 82.523517,97.4537339 85.0061532,96.3571605 C86.1031319,94.6257289 87.2289617,92.9808935 88.383674,91.422605 C89.7115979,89.5757446 91.1549694,87.7000551 92.7138318,85.7954803 C94.2726985,83.8909055 95.918142,82.0440728 97.6502137,80.2549267 L89.2497077,82.2893487 L89.2497077,82.2893487 C86.4783929,82.9530642 83.7071197,83.6889116 80.9358049,84.4969131 C80.1852405,84.7277706 79.6223256,84.742199 79.2470434,84.5401986 C78.8717612,84.3381983 78.6552554,84.0352023 78.5975197,83.6312016 C78.539784,83.2272008 78.6263863,82.7654927 78.8573292,82.2460632 C79.0882721,81.7266337 79.4346812,81.2360687 79.896567,80.7743536 Z M145.613736,88.5639548 C145.035766,90.7597157 144.067682,92.8543246 142.709454,94.8478443 C141.351226,96.8413641 140.007467,98.7626261 138.678138,100.611688 C137.059823,103.038581 135.484881,105.349874 133.953262,107.545635 C132.421643,109.741396 131.193476,112.052688 130.268725,114.479582 C129.632959,116.155294 129.575163,117.296495 130.095335,117.903218 C130.615508,118.509942 131.626939,118.293258 133.129659,117.253161 C134.516786,116.32863 136.07728,115.042974 137.811188,113.396153 C139.545096,111.749332 141.235631,110.088091 142.882844,108.412378 L145.644945,105.567727 L145.644945,105.567727 L147.26094,103.861976 C148.532473,102.504071 149.341618,101.593999 149.688399,101.131734 C150.035181,100.669468 150.468651,100.380557 150.988824,100.264991 C151.508996,100.149424 151.971365,100.192761 152.375943,100.395002 C152.780522,100.597243 153.069502,100.929491 153.242893,101.391757 C153.416284,101.854022 153.329589,102.374063 152.982808,102.951895 L152.261506,104.17227 C151.852307,104.837927 151.370285,105.586791 150.815434,106.418869 C149.890683,107.805665 148.893701,109.221332 147.824457,110.665911 C146.755214,112.110491 145.685987,113.511712 144.616743,114.869617 L141.972547,118.206579 L141.972547,118.206579 C140.874405,119.593375 139.704034,120.965705 138.4614,122.32361 C137.218766,123.681515 135.860558,124.822715 134.386737,125.747246 C132.912915,126.671777 131.352421,127.278491 129.705208,127.567407 C128.057995,127.856323 126.280766,127.625194 124.373467,126.874013 C122.23498,126.122831 120.717834,124.98163 119.821981,123.450376 C118.926128,121.919122 118.434862,120.243435 118.348166,118.423264 C118.261471,116.603094 118.478206,114.739615 118.998379,112.83277 C119.518551,110.925925 120.154308,109.163564 120.905668,107.545635 C121.946013,105.349874 123.130833,103.24082 124.460162,101.218408 L126.47582,98.1848064 L126.47582,98.1848064 L128.534826,95.1512045 C128.843076,94.6889391 129.177011,94.2074175 129.536634,93.7066332 L130.095335,92.9410089 C130.673305,92.1609359 131.251265,91.3664291 131.829235,90.5574646 C132.407204,89.7485 132.927369,88.9539932 133.389744,88.1739202 C133.85212,87.3938473 134.198896,86.6571228 134.430084,85.9637246 C135.008053,84.172446 136.005036,82.9590174 137.421061,82.3234024 C138.837086,81.6877895 140.224191,81.528886 141.582419,81.8466935 C142.940647,82.164501 144.067671,82.9012255 144.963523,84.0568891 C145.859376,85.2125528 146.076111,86.714893 145.613736,88.5639548 Z M153.108984,73.7657922 C152.879328,75.3796441 152.333905,76.6476515 151.472698,77.5698526 C150.611491,78.4920536 149.635471,79.1260573 148.544608,79.4718827 C147.453746,79.8177081 146.31984,79.8753448 145.142856,79.6447945 C143.965873,79.4142443 142.961147,78.9243323 142.128646,78.175044 C141.296146,77.4257556 140.722016,76.4459317 140.40624,75.2355428 C140.090464,74.0251539 140.219643,72.5842364 140.793782,70.912747 C141.36792,69.2988952 142.401353,68.1605703 143.894112,67.4977383 C145.386871,66.8349063 146.865255,66.6331779 148.329307,66.8925469 C149.79336,67.151916 151.042091,67.8579655 152.07554,69.0107169 C153.108989,70.1634682 153.453466,71.7484774 153.108984,73.7657922 Z M170.181234,88.5098217 L169.948816,89.3488477 C169.910079,89.4759726 169.871343,89.5967415 169.832606,89.7111547 C170.70418,88.6814355 171.604793,87.6803346 172.534472,86.707822 C173.464151,85.7353095 174.422868,84.7914143 175.410652,83.8761084 C176.514646,82.9035958 177.749357,82.002605 179.114823,81.1731089 C180.480289,80.3436129 181.874787,79.7572538 183.298358,79.4140141 C184.721929,79.0707743 186.160004,79.02787 187.612628,79.2852998 C189.065251,79.5427296 190.459749,80.2435002 191.796162,81.3876327 C192.958261,82.3601453 193.757192,83.4756577 194.192979,84.7342034 C194.628766,85.9927491 194.817604,87.2941803 194.759499,88.6385359 C194.701394,89.9828916 194.468978,91.327227 194.062243,92.6715827 C193.655509,94.0159383 193.161624,95.2887666 192.580575,96.4901057 C191.650896,98.4923375 190.605023,100.394429 189.442924,102.196438 L185.670771,108.09155 L185.670771,108.09155 L184.95434,109.147008 C184.460448,109.86209 183.937512,110.662971 183.385515,111.549674 C182.833518,112.436377 182.310581,113.337367 181.816689,114.252673 C181.322797,115.167979 181.017751,115.911654 180.901541,116.48372 C180.785331,117.055787 180.901539,117.38472 181.250169,117.47053 C181.548994,117.544081 182.125293,117.333938 182.979077,116.840094 L183.429093,116.56953 C184.649297,115.88305 186.000216,114.867648 187.481892,113.523292 C188.963568,112.178937 190.445222,110.734491 191.926897,109.189912 C192.914681,108.160193 193.870175,107.143197 194.793392,106.138909 L198.339907,102.242775 L198.339907,102.242775 L199.553132,100.9522 C200.076077,100.380134 200.569961,100.036899 201.034801,99.9224859 C201.49964,99.8080726 201.891842,99.8509769 202.21142,100.0512 C202.530997,100.251423 202.719835,100.594658 202.77794,101.080914 C202.836045,101.56717 202.719837,102.096324 202.429312,102.66839 C201.906368,103.755316 201.194593,104.999541 200.293966,106.401104 C199.39334,107.802666 198.420097,109.23281 197.374208,110.691579 C196.328319,112.150348 195.26792,113.580492 194.192979,114.982054 L192.656837,116.944947 C192.170212,117.552763 191.709007,118.114098 191.27322,118.628958 C190.285436,119.830297 189.166933,121.04592 187.917677,122.275862 C186.668421,123.505804 185.332027,124.535508 183.908457,125.365004 C182.484886,126.1945 180.988706,126.723654 179.419873,126.95248 C177.851039,127.181307 176.195074,126.895278 174.451926,126.094385 C172.766882,125.293492 171.503119,124.249487 170.660598,122.962338 C169.818076,121.675189 169.295139,120.259346 169.091772,118.714768 C168.888405,117.170189 168.946509,115.582729 169.266086,113.95234 C169.585663,112.321951 170.065022,110.791697 170.704176,109.361531 C171.517645,107.416506 172.476362,105.557319 173.580356,103.783914 C174.68435,102.010508 175.817379,100.265732 176.979478,98.5495338 C177.734842,97.4626079 178.533773,96.3470955 179.376294,95.2029631 C180.218816,94.0588306 180.988695,92.9147153 181.685954,91.7705829 C182.325108,90.8552769 182.586576,90.2689178 182.470367,90.011488 C182.354157,89.7540582 182.020058,89.7111539 181.468061,89.8827737 C180.916065,90.0543936 180.233342,90.3833268 179.419873,90.8695831 C178.606404,91.3558393 177.807473,91.8563898 177.023056,92.3712494 C176.500112,92.7144891 176.022365,93.0386569 175.589809,93.3437567 L174.179995,94.358598 C174.059138,94.4409749 173.975468,94.4936044 173.928984,94.516487 C170.268373,97.2624049 166.869285,100.408722 163.731619,103.955533 C161.523631,106.415417 159.519041,109.032581 157.717788,111.807102 C156.216744,114.119203 154.998169,116.560386 154.062038,119.130701 L153.534254,120.688386 C153.34057,121.184177 153.198537,121.654538 153.108153,122.099475 L153.011312,122.747814 C152.953207,123.377087 152.778895,124.006351 152.48837,124.635623 C152.13974,125.37931 151.645856,125.951367 151.006702,126.351814 C150.367547,126.75226 149.670298,126.995384 148.914934,127.081194 C148.15957,127.167004 147.389691,127.109798 146.605275,126.909575 C145.820858,126.709352 145.109083,126.380419 144.469929,125.922766 C142.901096,124.83584 142.029535,123.391395 141.85522,121.589386 C141.680905,119.787377 141.869743,117.885286 142.42174,115.883054 C142.973737,113.880822 143.714564,111.935826 144.644243,110.048008 L146.160774,107.020648 C146.462918,106.43028 146.741819,105.89483 146.997481,105.414294 C147.869055,103.812509 148.856824,102.23935 149.960818,100.694771 C151.064812,99.1501926 152.168789,97.5770341 153.272783,95.9752486 C154.376776,94.3734632 155.42265,92.7287974 156.410433,91.0412021 C157.398217,89.3536067 158.240726,87.5945294 158.937986,85.7639175 C159.22851,84.5625784 159.751447,83.6329847 160.506811,82.9751086 C161.262175,82.3172324 162.104684,81.8881892 163.034363,81.687966 C163.964042,81.4877428 164.908233,81.5020442 165.866964,81.7308707 C166.825696,81.9596972 167.682731,82.374439 168.438095,82.9751086 C169.193459,83.5757781 169.745448,84.3480559 170.094077,85.2919652 C170.442707,86.2358745 170.471759,87.3084826 170.181234,88.5098217 Z M237.919444,89.5545874 C234.945609,89.2062118 232.103016,89.4965204 229.391578,90.4255219 C226.68014,91.3545233 224.158249,92.6754274 221.82583,94.3882739 C219.49341,96.1011203 217.379687,98.0461879 215.484596,100.223535 C213.589505,102.400882 211.971414,104.592712 210.630272,106.799091 C208.297853,110.631222 207.175393,113.142391 207.262859,114.332674 C207.350324,115.522957 208.152081,115.711658 209.668154,114.898782 C211.184227,114.085905 213.152176,112.431146 215.572061,109.934455 C217.991947,107.437774 220.397218,104.447585 222.787948,100.963829 L224.012461,99.2993778 C224.226265,99.0155181 224.444928,98.7284323 224.668452,98.4381193 C225.339023,97.5671805 226.067893,96.7688318 226.855084,96.0430494 C227.642276,95.3172671 228.531498,94.707619 229.522776,94.214087 C230.514054,93.720555 231.592782,93.4157309 232.758992,93.2996057 C234.158443,93.1834806 235.339213,93.3576657 236.301336,93.8221664 C237.263459,94.2866672 237.992329,94.9398615 238.487968,95.7817691 C238.983608,96.6236767 239.187691,97.6252413 239.100225,98.7864931 C239.01276,99.947745 238.590015,101.167041 237.831979,102.444418 L237.219722,103.478651 C237.103102,103.663724 236.979193,103.855148 236.847995,104.052923 L236.432534,104.665301 C235.849429,105.507209 235.251756,106.421681 234.639495,107.408745 C234.027235,108.395809 233.444139,109.397373 232.89019,110.413469 C232.33624,111.429564 231.88434,112.402098 231.534478,113.331099 C231.067994,114.608476 231.184613,115.203609 231.884339,115.116515 C232.584065,115.029421 233.517018,114.49235 234.683228,113.505286 C236.899027,111.647283 238.925286,109.65867 240.762066,107.539385 C242.598846,105.4201 244.362712,103.460517 246.053716,101.660577 C246.403579,101.312201 246.768014,101.108985 247.147033,101.050923 C247.526051,100.99286 247.875908,101.050922 248.196616,101.22511 C248.517324,101.399298 248.76514,101.675091 248.940071,102.052498 C249.115002,102.429904 249.144157,102.879883 249.027536,103.402446 C248.561052,105.434637 247.584366,107.800652 246.097449,110.500562 C244.610532,113.200473 242.846666,115.798735 240.805799,118.295426 C238.764932,120.792118 236.578321,122.969432 234.245902,124.827435 C231.913482,126.685438 229.697717,127.75958 227.598539,128.049893 C226.199088,128.22408 224.887121,128.122472 223.662601,127.745066 C222.438081,127.367659 221.388508,126.772526 220.513851,125.95965 C219.639193,125.146774 218.939478,124.145209 218.414683,122.954926 C217.889889,121.764643 217.627496,120.472769 217.627496,119.079267 C217.627496,117.976078 217.729538,116.872905 217.933624,115.769716 C218.137711,114.666527 218.414682,113.563354 218.764545,112.460165 L217.233902,115.094741 C216.709112,116.00922 216.169744,116.959988 215.615794,117.947052 C214.507895,119.92118 213.254238,121.721094 211.854786,123.346846 C210.455335,124.972599 208.895553,126.220926 207.175393,127.091865 C205.455234,127.962804 203.487284,128.136989 201.271486,127.614425 C198.764135,127.033801 196.985692,125.901596 195.936103,124.217781 C194.886514,122.533966 194.288841,120.632444 194.143064,118.51316 C193.997288,116.393875 194.201372,114.216561 194.755322,111.981151 C195.309271,109.745741 195.965254,107.786158 196.723291,106.102343 C198.647537,101.747649 201.15485,97.7268746 204.245306,94.0399001 C207.335762,90.3529256 210.863493,87.2030772 214.828606,84.5902607 C216.636232,83.3709463 218.662491,82.282289 220.907444,81.3242563 C223.152398,80.3662235 225.44105,79.7130292 227.77347,79.3646536 C230.105889,79.0162781 232.409119,79.0598244 234.683228,79.4952938 C236.957337,79.9307632 239.056483,80.9323279 240.980729,82.5000178 C241.738766,83.1387063 242.190665,83.8789933 242.336441,84.7209008 C242.482218,85.5628084 242.394753,86.3611571 242.074045,87.1159707 C241.753338,87.8707844 241.228551,88.4949479 240.49967,88.9884799 C239.770789,89.4820119 238.910722,89.6707125 237.919444,89.5545874 Z M265.813681,89.1694016 L265.581263,90.0084276 C265.542527,90.1355526 265.50379,90.2563214 265.465054,90.3707347 C266.336628,89.3410155 267.237241,88.3399146 268.16692,87.367402 C269.096598,86.3948894 270.055316,85.4509943 271.043099,84.5356883 C272.147093,83.5631757 273.381805,82.6621849 274.747271,81.8326889 C276.112737,81.0031929 277.507234,80.4168338 278.930805,80.073594 C280.354376,79.7303543 281.792451,79.68745 283.245075,79.9448798 C284.697698,80.2023096 286.092196,80.9030802 287.428609,82.0472127 C288.590708,83.0197253 289.389639,84.1352377 289.825426,85.3937834 C290.261213,86.6523291 290.450051,87.9537602 290.391946,89.2981159 C290.333841,90.6424715 290.101425,91.986807 289.69469,93.3311626 C289.287956,94.6755183 288.794071,95.9483465 288.213022,97.1496856 C287.283343,99.1519174 286.23747,101.054009 285.075371,102.856018 L281.303218,108.75113 L281.303218,108.75113 L280.586787,109.806588 C280.092895,110.52167 279.569959,111.322551 279.017962,112.209254 C278.465965,113.095956 277.943028,113.996947 277.449137,114.912253 C276.955245,115.827559 276.650198,116.571234 276.533988,117.1433 C276.417778,117.715367 276.533987,118.0443 276.882616,118.13011 C277.181442,118.203661 277.75774,117.993518 278.611524,117.499674 L279.06154,117.22911 C280.281744,116.54263 281.632664,115.527228 283.114339,114.182872 C284.596015,112.838517 286.077669,111.394071 287.559345,109.849492 C288.547129,108.819773 289.502623,107.802777 290.425839,106.798489 L293.972354,102.902355 L293.972354,102.902355 L295.185579,101.61178 C295.708524,101.039714 296.202408,100.696479 296.667248,100.582066 C297.132087,100.467653 297.52429,100.510557 297.843867,100.71078 C298.163444,100.911003 298.352282,101.254238 298.410387,101.740494 C298.468492,102.22675 298.352284,102.755904 298.061759,103.32797 C297.538815,104.414896 296.82704,105.659121 295.926414,107.060683 C295.025787,108.462246 294.052544,109.89239 293.006655,111.351159 C291.960766,112.809928 290.900367,114.240072 289.825426,115.641634 L288.289284,117.604527 C287.802659,118.212343 287.341454,118.773678 286.905667,119.288538 C285.917884,120.489877 284.79938,121.7055 283.550124,122.935442 C282.300868,124.165384 280.964475,125.195088 279.540904,126.024584 C278.117333,126.85408 276.621153,127.383234 275.05232,127.61206 C273.483487,127.840887 271.827521,127.554858 270.084373,126.753965 C268.39933,125.953072 267.135566,124.909067 266.293045,123.621918 C265.450523,122.334769 264.927587,120.918926 264.724219,119.374348 C264.520852,117.829769 264.578956,116.242309 264.898533,114.61192 C265.21811,112.981531 265.697469,111.451277 266.336623,110.021111 C267.150092,108.076086 268.108809,106.216899 269.212803,104.443494 C270.316797,102.670088 271.449826,100.925312 272.611925,99.2091137 C273.367289,98.1221879 274.16622,97.0066755 275.008741,95.862543 C275.851263,94.7184106 276.621142,93.5742953 277.318401,92.4301628 C277.957555,91.5148568 278.219024,90.9284978 278.102814,90.671068 C277.986604,90.4136382 277.652506,90.3707338 277.100509,90.5423537 C276.548512,90.7139736 275.865789,91.0429067 275.05232,91.529163 C274.238851,92.0154193 273.43992,92.5159697 272.655503,93.0308294 C272.132559,93.3740691 271.654812,93.6982368 271.222256,94.0033367 L269.812442,95.018178 C269.691585,95.1005548 269.607915,95.1531843 269.561431,95.176067 C265.90082,97.9219849 262.501732,101.068302 259.364066,104.615113 C257.156078,107.074997 255.151488,109.692161 253.350235,112.466682 C251.849191,114.778783 250.630616,117.219966 249.694486,119.790281 L249.166701,121.347966 C248.973018,121.843757 248.830984,122.314118 248.7406,122.759055 L248.643759,123.407394 C248.585654,124.036667 248.411342,124.665931 248.120817,125.295203 C247.772188,126.038889 247.278303,126.610947 246.639149,127.011393 C245.999994,127.41184 245.302746,127.654964 244.547381,127.740774 C243.792017,127.826584 243.022138,127.769378 242.237722,127.569155 C241.453305,127.368932 240.74153,127.039999 240.102376,126.582346 C238.533543,125.49542 237.661982,124.050975 237.487667,122.248966 C237.313352,120.446957 237.502191,118.544866 238.054187,116.542634 C238.606184,114.540402 239.347011,112.595406 240.27669,110.707587 L241.793221,107.680228 C242.095365,107.08986 242.374266,106.55441 242.629928,106.073874 C243.501502,104.472089 244.489271,102.89893 245.593265,101.354351 C246.697259,99.8097726 247.801236,98.236614 248.90523,96.6348286 C250.009224,95.0330431 251.055097,93.3883774 252.042881,91.700782 C253.030665,90.0131866 253.873173,88.2541094 254.570433,86.4234974 C254.860957,85.2221584 255.383894,84.2925647 256.139258,83.6346885 C256.894622,82.9768123 257.737131,82.5477691 258.66681,82.3475459 C259.596489,82.1473228 260.54068,82.1616242 261.499412,82.3904507 C262.458143,82.6192772 263.315178,83.034019 264.070542,83.6346885 C264.825906,84.2353581 265.377895,85.0076359 265.726524,85.9515452 C266.075154,86.8954544 266.104206,87.9680625 265.813681,89.1694016 Z M325.640855,79.1985742 C327.307875,79.7224015 328.784774,80.5954339 330.071597,81.8176975 C331.358419,83.0399612 332.235785,84.6696216 332.703721,86.7067277 C333.054672,88.2782095 333.09854,89.8787688 332.835327,91.5084537 C332.572113,93.1381386 332.074939,94.6950463 331.34379,96.1792236 C330.612641,97.6634009 329.676784,99.0311516 328.536191,100.282517 C327.395598,101.533882 326.123418,102.508768 324.719611,103.207204 C323.78374,103.672829 322.891752,103.774682 322.043619,103.512769 C321.195485,103.250855 320.493593,102.799788 319.937919,102.159555 C319.382246,101.519322 319.060545,100.733593 318.972807,99.8023441 C318.885069,98.8710956 319.162902,97.9980633 319.806313,97.1832208 C320.215757,96.7175966 320.698308,96.0046202 321.253981,95.0442702 C321.809655,94.0839202 322.204469,93.109034 322.438437,92.1195825 C322.613913,91.3629431 322.526176,90.8245731 322.175225,90.5044565 C321.824273,90.1843398 321.327099,90.1115871 320.683688,90.2861962 C320.040277,90.4608053 319.26527,90.8391193 318.358645,91.4211496 C317.45202,92.0031799 316.530786,92.759808 315.594915,93.6910565 C314.425076,94.8551171 313.313746,96.0773624 312.260891,97.3578291 C311.208036,98.6382957 310.242934,99.9769454 309.365555,101.373818 L308.470634,102.94529 C308.236667,103.364349 307.979304,103.829971 307.698543,104.342158 C306.99664,105.622625 306.411729,106.975825 305.943794,108.401799 C305.475858,109.827773 305.227271,111.210074 305.198025,112.548744 C305.168779,113.887414 305.592839,114.935053 306.470218,115.691692 C307.523073,116.622941 308.839122,117.044906 310.418404,116.957602 C311.997687,116.870297 313.693927,116.448332 315.507177,115.691692 C317.320427,114.935053 319.192141,113.945616 321.122375,112.723352 C323.052609,111.501089 324.880455,110.19154 326.605967,108.794667 C328.331479,107.397795 329.896115,105.986392 331.299921,104.560418 C332.422966,103.419639 333.358827,102.399933 334.107519,101.501283 L334.633945,100.849993 C334.734745,100.712078 334.836224,100.587666 334.938381,100.476759 C335.124803,100.051376 335.320446,99.6278306 335.524356,99.2072436 C336.530334,97.1323039 337.608152,95.2591226 338.757842,93.5876434 C339.907531,91.9738014 341.186542,90.3743928 342.594912,88.7893694 C344.003281,87.204346 345.540968,85.7634373 347.208018,84.4666 C348.875068,83.1697627 350.642689,82.0746721 352.510935,81.1812953 C354.37918,80.2879185 356.347994,79.7259641 358.417435,79.4954153 C360.831783,79.2072292 363.174241,79.5674564 365.444878,80.5761076 C367.715514,81.5847588 369.483136,83.1841675 370.747794,85.3743816 C371.954968,87.4493213 372.515434,89.5818662 372.429207,91.7720803 C372.34298,93.9622944 371.825628,96.0660211 370.877134,98.0833236 C369.92864,100.100626 368.649629,101.959398 367.040064,103.659696 C365.430498,105.359994 363.734732,106.728857 361.952713,107.766327 C359.021005,109.495443 356.103711,110.460852 353.200745,110.662582 C350.297779,110.864313 347.380485,110.532904 344.448777,109.668345 C343.988901,110.994001 343.744596,112.233183 343.715853,113.385927 C343.687111,114.538671 344.075125,115.432035 344.879908,116.066044 C346.259536,117.103514 347.825964,117.607832 349.579241,117.579013 C351.332517,117.550195 353.157622,117.189968 355.05461,116.498321 C356.951598,115.806675 358.862928,114.870084 360.788658,113.688521 C362.714388,112.506958 364.539493,111.253368 366.264027,109.927712 C367.988562,108.602056 369.540619,107.290829 370.920247,105.993992 C372.023949,104.956522 372.94369,104.038948 373.679487,103.241253 L374.196846,102.665459 C374.77169,101.973813 375.346527,101.584767 375.921371,101.498311 C376.496216,101.411856 376.970456,101.527128 377.344105,101.844133 C377.717754,102.161138 377.947689,102.651047 378.033915,103.313874 C378.120142,103.976702 377.990804,104.682748 377.645897,105.432031 C374.484251,111.829762 370.374172,117.103488 365.315538,121.253367 C363.705973,122.521386 361.967093,123.688522 360.098848,124.754811 C358.230602,125.821099 356.29053,126.671235 354.278573,127.305245 C352.266617,127.939254 350.225948,128.299481 348.156507,128.385937 C346.087066,128.472393 344.017656,128.140984 341.948214,127.3917 C339.476382,126.527142 337.507568,125.316778 336.041714,123.760574 C334.57586,122.204369 333.526784,120.460869 332.894454,118.530023 C332.361648,116.903075 332.083929,115.173846 332.06129,113.342296 C332.49365,112.797366 332.911807,112.241402 333.317883,111.675703 C334.13677,110.511642 334.926399,109.318498 335.686794,108.096235 C336.44719,106.873971 337.061346,105.564422 337.529281,104.16755 C337.821741,103.294504 337.9241,102.508775 337.836362,101.810339 C337.748624,101.111902 337.558528,100.588083 337.266069,100.238865 C336.973609,99.8896465 336.578794,99.7441411 336.081613,99.8023441 C335.691532,99.8480094 335.310457,100.072813 334.938381,100.476759 C334.200392,102.155513 333.591261,103.878932 333.11002,105.64817 C332.506433,107.867203 332.161531,110.086202 332.075305,112.305235 C332.061733,112.654492 332.057062,113.000179 332.06129,113.342296 C330.324621,115.551171 328.388501,117.599765 326.255017,119.489421 C323.593634,121.846644 320.683704,123.752764 317.525139,125.20784 C314.893002,126.430104 312.129299,127.186732 309.233949,127.477747 C306.338598,127.768762 303.54565,127.244943 300.855021,125.906273 C298.281375,124.567603 296.321925,122.690584 294.97661,120.275158 C293.631296,117.859732 292.929403,115.226084 292.870911,112.374136 C292.812419,109.172969 293.368084,105.899098 294.537923,102.552424 C295.707762,99.2057493 297.316266,96.0482823 299.363484,93.0799277 C301.410702,90.1115731 303.779589,87.4633749 306.470218,85.1352537 C309.160847,82.8071325 311.997664,81.0319667 314.980753,79.809703 C316.618527,79.1112666 318.387881,78.7038515 320.288869,78.5874455 C322.189857,78.4710394 323.973834,78.674747 325.640855,79.1985742 Z M360.478589,90.3579778 C359.949571,90.1487493 359.332394,90.1636939 358.627037,90.4028122 C357.627782,90.7017101 356.672626,91.2247734 355.76154,91.972018 C354.850455,92.7192626 354.042246,93.421662 353.336889,94.0792372 C352.102515,95.2748286 350.956328,96.56007 349.898293,97.9350001 C348.840258,99.3099301 347.870407,100.714729 346.988711,102.149439 C348.869662,102.328777 350.633027,102.119552 352.278859,101.521756 C354.571268,100.625063 356.540359,99.1604852 358.186191,97.1279799 C358.433066,96.841038 358.711679,96.4680174 359.022034,96.0089134 L359.022034,96.0089134 L359.685067,94.9759263 C360.272864,94.0194532 360.654926,93.0928838 360.831265,92.1961903 L360.831265,92.1961903 L360.932031,91.7853588 C361.083179,91.0131063 360.932032,90.5373165 360.478589,90.3579778 Z" id="Finance-Copy" fill="#000000" transform="translate(224.500000, 97.000000) rotate(-7.000000) translate(-224.500000, -97.000000) "></path>
            </g>
        </g>
    </g>
</svg>